<svg xmlns="http://www.w3.org/2000/svg" xmlns:xlink="http://www.w3.org/1999/xlink" viewBox="0 0 300.59 418.74"><defs><style>.cls-1{isolation:isolate;}.cls-16,.cls-17,.cls-2,.cls-30,.cls-31,.cls-33,.cls-35,.cls-36,.cls-52,.cls-54{opacity:0.4;}.cls-11,.cls-13,.cls-16,.cls-17,.cls-19,.cls-2,.cls-22,.cls-23,.cls-25,.cls-29,.cls-30,.cls-31,.cls-34,.cls-37,.cls-38,.cls-39,.cls-4,.cls-40,.cls-41,.cls-43,.cls-45,.cls-46,.cls-5,.cls-50,.cls-52,.cls-54,.cls-55,.cls-58,.cls-60,.cls-61,.cls-62,.cls-63,.cls-66,.cls-7,.cls-8{mix-blend-mode:multiply;}.cls-2{fill:url(#Безымянный_градиент_113);}.cls-3{fill:url(#Безымянный_градиент_3);}.cls-4,.cls-43,.cls-45,.cls-7{opacity:0.5;}.cls-4{fill:url(#Безымянный_градиент_18);}.cls-34,.cls-5,.cls-8{opacity:0.15;}.cls-5{fill:url(#Безымянный_градиент_17);}.cls-6{fill:url(#Безымянный_градиент_3-2);}.cls-7{fill:url(#Безымянный_градиент_18-2);}.cls-8{fill:url(#Безымянный_градиент_17-2);}.cls-9{fill:url(#Безымянный_градиент_6);}.cls-10{fill:url(#Безымянный_градиент_6-2);}.cls-11,.cls-50,.cls-58,.cls-63{opacity:0.45;}.cls-11{fill:url(#Безымянный_градиент_88);}.cls-12{fill:url(#Безымянный_градиент_6-3);}.cls-13,.cls-19,.cls-23,.cls-60,.cls-61,.cls-62,.cls-66{opacity:0.85;}.cls-13{fill:url(#Безымянный_градиент_88-2);}.cls-14{fill:url(#Безымянный_градиент_20);}.cls-15{fill:url(#Безымянный_градиент_2);}.cls-16{fill:url(#Безымянный_градиент_14);}.cls-17{fill:url(#Безымянный_градиент_14-2);}.cls-18{fill:url(#Безымянный_градиент_6-4);}.cls-19{fill:url(#Безымянный_градиент_88-3);}.cls-20{fill:url(#Безымянный_градиент_5);}.cls-21{fill:url(#Безымянный_градиент_6-5);}.cls-22,.cls-25{opacity:0.8;}.cls-22{fill:url(#Безымянный_градиент_141);}.cls-23{fill:url(#Безымянный_градиент_88-4);}.cls-24{fill:url(#Безымянный_градиент_6-6);}.cls-25{fill:url(#Безымянный_градиент_148);}.cls-26{fill:url(#Безымянный_градиент_20-2);}.cls-27{fill:url(#Безымянный_градиент_2-2);}.cls-28{fill:url(#Безымянный_градиент_20-3);}.cls-29{opacity:0.2;fill:url(#Безымянный_градиент_8);}.cls-30{fill:url(#Безымянный_градиент_88-5);}.cls-31{fill:url(#Безымянный_градиент_88-6);}.cls-32{fill:url(#Безымянный_градиент_3-3);}.cls-33,.cls-35,.cls-36{mix-blend-mode:screen;}.cls-33{fill:url(#radial-gradient);}.cls-34{fill:url(#Безымянный_градиент_11);}.cls-35{fill:url(#radial-gradient-2);}.cls-36{fill:url(#radial-gradient-3);}.cls-37,.cls-38{opacity:0.35;}.cls-37{fill:url(#Безымянный_градиент_15);}.cls-38{fill:url(#Безымянный_градиент_15-2);}.cls-39{opacity:0.1;fill:url(#Безымянный_градиент_4);}.cls-40{opacity:0.05;fill:url(#Безымянный_градиент_13);}.cls-41{opacity:0.3;fill:url(#Безымянный_градиент_12);}.cls-42{fill:url(#Безымянный_градиент_11-2);}.cls-43{fill:url(#Безымянный_градиент_3-4);}.cls-44{fill:#161616;}.cls-45{fill:url(#Безымянный_градиент_3-5);}.cls-46{opacity:0.25;fill:url(#Безымянный_градиент_66);}.cls-47{fill:url(#Безымянный_градиент_2-3);}.cls-48{fill:url(#Безымянный_градиент_2-4);}.cls-49{fill:url(#Безымянный_градиент_2-5);}.cls-50{fill:url(#Безымянный_градиент_14-3);}.cls-51{fill:url(#Безымянный_градиент_2-6);}.cls-52{fill:url(#Безымянный_градиент_14-4);}.cls-53{fill:url(#Безымянный_градиент_2-7);}.cls-54{fill:url(#Безымянный_градиент_14-5);}.cls-55{fill:url(#Безымянный_градиент_14-6);}.cls-56{fill:url(#Безымянный_градиент_20-4);}.cls-57{fill:url(#Безымянный_градиент_2-8);}.cls-58{fill:url(#Безымянный_градиент_88-7);}.cls-59{fill:url(#Безымянный_градиент_7);}.cls-60{fill:url(#Безымянный_градиент_88-8);}.cls-61{fill:url(#Безымянный_градиент_88-9);}.cls-62{fill:url(#Безымянный_градиент_88-10);}.cls-63{fill:url(#Безымянный_градиент_88-11);}.cls-64{fill:url(#Безымянный_градиент_7-2);}.cls-65{fill:url(#Безымянный_градиент_7-3);}.cls-66{fill:url(#Безымянный_градиент_88-12);}.cls-67{fill:url(#Безымянный_градиент_7-4);}</style><radialGradient id="Безымянный_градиент_113" cx="17231.54" cy="-112971.52" r="4962.46" gradientTransform="matrix(0.03, 0, 0, 0, -360.81, 931.65)" gradientUnits="userSpaceOnUse"><stop offset="0.07" stop-color="#a3a3a3"/><stop offset="0.29" stop-color="#c1c1c1"/><stop offset="0.59" stop-color="#e3e3e3"/><stop offset="0.84" stop-color="#f7f7f7"/><stop offset="1" stop-color="#fff"/></radialGradient><radialGradient id="Безымянный_градиент_3" cx="258.37" cy="100.68" r="40.07" gradientUnits="userSpaceOnUse"><stop offset="0" stop-color="#ffdbbf"/><stop offset="0.22" stop-color="#ffd8b6"/><stop offset="0.57" stop-color="#ffd09f"/><stop offset="1" stop-color="#ffc47a"/></radialGradient><linearGradient id="Безымянный_градиент_18" x1="234.74" y1="102.83" x2="219.37" y2="98.44" gradientTransform="translate(20.33 19.88) rotate(-1.61)" xlink:href="#Безымянный_градиент_3"/><radialGradient id="Безымянный_градиент_17" cx="4125.96" cy="-6746.46" r="12.16" gradientTransform="matrix(0.79, -0.7, 0.71, 0.74, 1793.24, 7968.32)" gradientUnits="userSpaceOnUse"><stop offset="0" stop-color="#da5d02"/><stop offset="0.08" stop-color="#dd6810"/><stop offset="0.24" stop-color="#e38534"/><stop offset="0.45" stop-color="#eeb56f"/><stop offset="0.72" stop-color="#fdf6bf"/><stop offset="0.75" stop-color="#ffffca"/></radialGradient><radialGradient id="Безымянный_градиент_3-2" cx="657.32" cy="100.68" r="40.07" gradientTransform="matrix(-1, 0, 0, 1, 705.27, 0)" xlink:href="#Безымянный_градиент_3"/><linearGradient id="Безымянный_градиент_18-2" x1="633.53" y1="114.05" x2="618.16" y2="109.65" gradientTransform="matrix(-1, -0.03, -0.03, 1, 684.94, 19.88)" xlink:href="#Безымянный_градиент_3"/><radialGradient id="Безымянный_градиент_17-2" cx="4399.77" cy="-6489.19" r="12.16" gradientTransform="matrix(-0.79, -0.7, -0.71, 0.74, -1087.97, 7968.32)" xlink:href="#Безымянный_градиент_17"/><linearGradient id="Безымянный_градиент_6" x1="-429.18" y1="248.88" x2="-351.56" y2="260.31" gradientTransform="translate(500.86 117.17) rotate(10.66)" gradientUnits="userSpaceOnUse"><stop offset="0" stop-color="#ff91d4"/><stop offset="0.04" stop-color="#ff88cf"/><stop offset="0.22" stop-color="#ff66bd"/><stop offset="0.41" stop-color="#ff4caf"/><stop offset="0.6" stop-color="#ff39a5"/><stop offset="0.79" stop-color="#ff2e9f"/><stop offset="1" stop-color="#ff2a9d"/></linearGradient><linearGradient id="Безымянный_градиент_6-2" x1="-527" y1="200.72" x2="-449.4" y2="212.14" gradientTransform="matrix(0.8, 0.6, -0.6, 0.8, 591.07, 399.92)" xlink:href="#Безымянный_градиент_6"/><radialGradient id="Безымянный_градиент_88" cx="325.8" cy="785.27" r="19.56" gradientTransform="matrix(0.34, -0.82, -0.53, -0.22, 361.72, 688.67)" gradientUnits="userSpaceOnUse"><stop offset="0.16" stop-color="#974b1d"/><stop offset="0.21" stop-color="#9f592f"/><stop offset="0.37" stop-color="#bc8b6e"/><stop offset="0.53" stop-color="#d4b5a2"/><stop offset="0.67" stop-color="#e7d5ca"/><stop offset="0.8" stop-color="#f4ece7"/><stop offset="0.92" stop-color="#fcfaf9"/><stop offset="1" stop-color="#fff"/></radialGradient><linearGradient id="Безымянный_градиент_6-3" x1="-512.68" y1="179.16" x2="-435.07" y2="190.58" gradientTransform="matrix(0.8, 0.6, -0.6, 0.8, 591.07, 399.92)" xlink:href="#Безымянный_градиент_6"/><radialGradient id="Безымянный_градиент_88-2" cx="437.63" cy="568.57" r="35.77" gradientTransform="matrix(0.54, -0.4, 0.3, 0.41, -326.68, 228.83)" xlink:href="#Безымянный_градиент_88"/><linearGradient id="Безымянный_градиент_20" x1="495.31" y1="284.06" x2="338.51" y2="347.32" gradientTransform="matrix(-0.7, 0.94, 1.04, 0.78, -23.46, -378.03)" gradientUnits="userSpaceOnUse"><stop offset="0" stop-color="#ffdbbf"/><stop offset="0.15" stop-color="#ffdabb"/><stop offset="0.3" stop-color="#ffd5ae"/><stop offset="0.47" stop-color="#ffce99"/><stop offset="0.63" stop-color="#ffc47b"/><stop offset="0.64" stop-color="#ffc47a"/></linearGradient><linearGradient id="Безымянный_градиент_2" x1="44.37" y1="246.62" x2="163.86" y2="214.54" gradientUnits="userSpaceOnUse"><stop offset="0" stop-color="#ff9400"/><stop offset="0.17" stop-color="#f47600"/><stop offset="0.37" stop-color="#ea5c00"/><stop offset="0.57" stop-color="#e44900"/><stop offset="0.78" stop-color="#df3e00"/><stop offset="1" stop-color="#de3a00"/></linearGradient><radialGradient id="Безымянный_градиент_14" cx="-289.99" cy="335" r="38.84" gradientTransform="matrix(-0.1, 0.68, -0.45, -0.07, 226.54, 459.23)" gradientUnits="userSpaceOnUse"><stop offset="0.25" stop-color="#974b1d"/><stop offset="0.34" stop-color="#a05b31"/><stop offset="0.52" stop-color="#b88364"/><stop offset="0.78" stop-color="#ddc4b5"/><stop offset="1" stop-color="#fff"/></radialGradient><radialGradient id="Безымянный_градиент_14-2" cx="-173.92" cy="1543.53" r="38.84" gradientTransform="matrix(0.1, 0.68, 0.45, -0.07, -485.02, 459.23)" xlink:href="#Безымянный_градиент_14"/><linearGradient id="Безымянный_градиент_6-4" x1="-935.78" y1="393.06" x2="-858.17" y2="404.48" gradientTransform="matrix(-1, -0.08, -0.08, 1, -635.58, -180.4)" xlink:href="#Безымянный_градиент_6"/><radialGradient id="Безымянный_градиент_88-3" cx="578.38" cy="1050.3" r="35.77" gradientTransform="matrix(0.31, -0.6, 0.45, 0.23, -415.14, 387.42)" xlink:href="#Безымянный_градиент_88"/><linearGradient id="Безымянный_градиент_5" x1="-763.44" y1="372.15" x2="-685.83" y2="383.58" gradientTransform="matrix(-0.93, -0.37, -0.37, 0.93, -402.55, -303.57)" gradientUnits="userSpaceOnUse"><stop offset="0" stop-color="#ffa1c4"/><stop offset="0.15" stop-color="#ff88bd"/><stop offset="0.35" stop-color="#ff6eb6"/><stop offset="0.56" stop-color="#ff5bb1"/><stop offset="0.77" stop-color="#ff50ae"/><stop offset="1" stop-color="#ff4cad"/></linearGradient><linearGradient id="Безымянный_градиент_6-5" x1="-996.28" y1="553.74" x2="-918.67" y2="565.16" gradientTransform="matrix(-0.8, 0.6, 0.6, 0.8, -874.4, 399.92)" xlink:href="#Безымянный_градиент_6"/><radialGradient id="Безымянный_градиент_141" cx="408.73" cy="417.31" r="19.57" gradientTransform="matrix(0.05, -1.23, -0.7, -0.03, 513.03, 769.8)" gradientUnits="userSpaceOnUse"><stop offset="0.16" stop-color="#974b1d"/><stop offset="0.28" stop-color="#a86842"/><stop offset="0.54" stop-color="#cda892"/><stop offset="0.76" stop-color="#e8d7cd"/><stop offset="0.92" stop-color="#f9f4f1"/><stop offset="1" stop-color="#fff"/></radialGradient><radialGradient id="Безымянный_градиент_88-4" cx="583.93" cy="1021.07" r="35.77" gradientTransform="matrix(0.31, -0.6, 0.45, 0.23, -415.14, 387.42)" xlink:href="#Безымянный_градиент_88"/><linearGradient id="Безымянный_градиент_6-6" x1="-981.95" y1="532.17" x2="-904.35" y2="543.6" gradientTransform="matrix(-0.8, 0.6, 0.6, 0.8, -874.4, 399.92)" xlink:href="#Безымянный_градиент_6"/><radialGradient id="Безымянный_градиент_148" cx="418.81" cy="454.63" r="19.57" gradientTransform="matrix(1.23, 0, 0, -0.7, -298.03, 562.17)" gradientUnits="userSpaceOnUse"><stop offset="0.16" stop-color="#974b1d"/><stop offset="0.43" stop-color="#b78262"/><stop offset="1" stop-color="#fff"/></radialGradient><linearGradient id="Безымянный_градиент_20-2" x1="915.29" y1="-219.34" x2="758.49" y2="-156.09" gradientTransform="matrix(0.7, 0.94, -1.04, 0.78, -495.05, -378.03)" xlink:href="#Безымянный_градиент_20"/><linearGradient id="Безымянный_градиент_2-2" x1="-774.74" y1="246.62" x2="-655.25" y2="214.54" gradientTransform="matrix(-1, 0, 0, 1, -518.52, 0)" xlink:href="#Безымянный_градиент_2"/><linearGradient id="Безымянный_градиент_20-3" x1="297.29" y1="751.59" x2="96.5" y2="832.59" gradientTransform="matrix(1, 0, 0, -1, 0, 1050.86)" xlink:href="#Безымянный_градиент_20"/><radialGradient id="Безымянный_градиент_8" cx="125.75" cy="4678.92" r="43.35" gradientTransform="matrix(1, -0.03, 0.02, 0.8, -80.39, -3566.59)" gradientUnits="userSpaceOnUse"><stop offset="0.25" stop-color="#c46227"/><stop offset="0.34" stop-color="#c9703b"/><stop offset="0.53" stop-color="#d7956e"/><stop offset="0.8" stop-color="#edd0bf"/><stop offset="1" stop-color="#fff"/></radialGradient><radialGradient id="Безымянный_градиент_88-5" cx="817.45" cy="634.72" r="42.25" gradientTransform="matrix(0.04, -0.67, 0.37, 0.02, -29.15, 648.76)" xlink:href="#Безымянный_градиент_88"/><radialGradient id="Безымянный_градиент_88-6" cx="851.43" cy="1581.69" r="42.25" gradientTransform="matrix(-0.04, -0.67, -0.37, 0.02, 687.03, 648.76)" xlink:href="#Безымянный_градиент_88"/><radialGradient id="Безымянный_градиент_3-3" cx="133.15" cy="42.18" r="142.63" gradientTransform="matrix(1, -0.03, 0.03, 1.04, 19.61, 11.88)" xlink:href="#Безымянный_градиент_3"/><radialGradient id="radial-gradient" cx="4412.76" cy="-5907.63" r="92.91" gradientTransform="matrix(0.34, 0, 0.01, 0.15, -1306.08, 966.95)" gradientUnits="userSpaceOnUse"><stop offset="0.25" stop-color="#ffffca"/><stop offset="0.41" stop-color="#bdbd96"/><stop offset="0.63" stop-color="#6d6d56"/><stop offset="0.8" stop-color="#323228"/><stop offset="0.93" stop-color="#0e0e0b"/><stop offset="1"/></radialGradient><radialGradient id="Безымянный_градиент_11" cx="129.83" cy="185.05" r="20.69" gradientTransform="matrix(1, -0.03, 0.02, 0.57, 19.19, -5.51)" gradientUnits="userSpaceOnUse"><stop offset="0" stop-color="#ffdbbf"/><stop offset="0.15" stop-color="#ffd3b6"/><stop offset="0.39" stop-color="#ffbe9f"/><stop offset="0.58" stop-color="#ffa987"/><stop offset="0.71" stop-color="#ffae8c"/><stop offset="0.85" stop-color="#fb9"/><stop offset="1" stop-color="#ffd1af"/><stop offset="1" stop-color="#ffd1af"/></radialGradient><radialGradient id="radial-gradient-2" cx="4392.87" cy="-5066.46" r="21.6" gradientTransform="matrix(0.34, -0.01, 0.01, 0.12, -1310.82, 775.62)" xlink:href="#radial-gradient"/><radialGradient id="radial-gradient-3" cx="4395.11" cy="-5066.53" r="9.7" gradientTransform="matrix(0.34, -0.01, 0.01, 0.12, -1310.82, 775.62)" xlink:href="#radial-gradient"/><radialGradient id="Безымянный_градиент_15" cx="177.86" cy="81.96" r="31.37" gradientTransform="translate(20.33 19.88) rotate(-1.61)" gradientUnits="userSpaceOnUse"><stop offset="0" stop-color="#ff9b92"/><stop offset="0.53" stop-color="#ffd2ce"/><stop offset="1" stop-color="#fff"/></radialGradient><radialGradient id="Безымянный_градиент_15-2" cx="79.55" cy="80.48" r="31.37" xlink:href="#Безымянный_градиент_15"/><radialGradient id="Безымянный_градиент_4" cx="129.78" cy="131.71" r="20.32" gradientTransform="matrix(1, -0.03, 0.02, 0.8, 20.03, 7.16)" gradientUnits="userSpaceOnUse"><stop offset="0.25" stop-color="#cf620e"/><stop offset="0.34" stop-color="#d36f22"/><stop offset="0.51" stop-color="#dd9055"/><stop offset="0.75" stop-color="#edc5a7"/><stop offset="1" stop-color="#fff"/></radialGradient><radialGradient id="Безымянный_градиент_13" cx="129.49" cy="4570.98" r="19.51" gradientTransform="matrix(1, -0.03, 0.02, 0.8, -80.39, -3566.59)" gradientUnits="userSpaceOnUse"><stop offset="0.25" stop-color="#ff7f32"/><stop offset="0.35" stop-color="#ff8b46"/><stop offset="0.55" stop-color="#ffab79"/><stop offset="0.83" stop-color="#ffdeca"/><stop offset="1" stop-color="#fff"/></radialGradient><radialGradient id="Безымянный_градиент_12" cx="129.05" cy="108.64" r="22.64" gradientTransform="translate(20.33 19.88) rotate(-1.61)" gradientUnits="userSpaceOnUse"><stop offset="0.02" stop-color="#94460c"/><stop offset="0.03" stop-color="#97470c"/><stop offset="0.09" stop-color="#bc5712"/><stop offset="0.16" stop-color="#d96416"/><stop offset="0.23" stop-color="#ee6d19"/><stop offset="0.29" stop-color="#fb721a"/><stop offset="0.35" stop-color="#ff741b"/><stop offset="0.41" stop-color="#fa721a"/><stop offset="0.47" stop-color="#ec6c18"/><stop offset="0.54" stop-color="#d46115"/><stop offset="0.61" stop-color="#b25310"/><stop offset="0.66" stop-color="#94460c"/><stop offset="0.68" stop-color="#98480d"/><stop offset="0.71" stop-color="#a34d0e"/><stop offset="0.73" stop-color="#b75511"/><stop offset="0.75" stop-color="#d26115"/><stop offset="0.77" stop-color="#f5701a"/><stop offset="0.78" stop-color="#ff741b"/></radialGradient><radialGradient id="Безымянный_градиент_11-2" cx="130.22" cy="184.88" r="20.69" xlink:href="#Безымянный_градиент_11"/><radialGradient id="Безымянный_градиент_3-4" cx="-984.29" cy="68.13" r="12.41" gradientTransform="matrix(-0.99, 0.16, 0.16, 0.99, -800.48, 164.54)" xlink:href="#Безымянный_градиент_3"/><radialGradient id="Безымянный_градиент_3-5" cx="-1047.26" cy="78.24" r="12.41" gradientTransform="translate(1166.15 164.54) rotate(9.13)" xlink:href="#Безымянный_градиент_3"/><radialGradient id="Безымянный_градиент_66" cx="149.76" cy="52.6" r="115.08" gradientUnits="userSpaceOnUse"><stop offset="0" stop-color="#ffdbbf"/><stop offset="0.22" stop-color="#fbd2b8"/><stop offset="0.56" stop-color="#efbba6"/><stop offset="0.99" stop-color="#dc9588"/><stop offset="1" stop-color="#dc9488"/></radialGradient><linearGradient id="Безымянный_градиент_2-3" x1="89.05" y1="272.51" x2="258.77" y2="186.17" xlink:href="#Безымянный_градиент_2"/><linearGradient id="Безымянный_градиент_2-4" x1="114.17" y1="240.17" x2="248.86" y2="171.65" xlink:href="#Безымянный_градиент_2"/><linearGradient id="Безымянный_градиент_2-5" x1="-249.25" y1="273.68" x2="-79.48" y2="187.32" gradientTransform="matrix(-1, 0, 0, 1, -37.59, 0)" xlink:href="#Безымянный_градиент_2"/><radialGradient id="Безымянный_градиент_14-3" cx="-306.32" cy="401.91" r="32.32" gradientTransform="matrix(-0.92, 0.39, 0.2, 0.47, -177.02, 222.51)" xlink:href="#Безымянный_градиент_14"/><linearGradient id="Безымянный_градиент_2-6" x1="115.57" y1="235.81" x2="223.49" y2="251.69" xlink:href="#Безымянный_градиент_2"/><radialGradient id="Безымянный_градиент_14-4" cx="-4.39" cy="150.09" r="31.21" gradientTransform="matrix(0.92, 0.39, -0.2, 0.47, 151.24, 222.51)" xlink:href="#Безымянный_градиент_14"/><linearGradient id="Безымянный_градиент_2-7" x1="87.85" y1="293.51" x2="185.57" y2="307.89" xlink:href="#Безымянный_градиент_2"/><radialGradient id="Безымянный_градиент_14-5" cx="-147.81" cy="278.74" r="27.34" gradientTransform="matrix(-0.51, -0.04, -0.03, 0.46, 72.26, 173.82)" xlink:href="#Безымянный_градиент_14"/><radialGradient id="Безымянный_градиент_14-6" cx="-390.98" cy="407.53" r="18.64" gradientTransform="matrix(-0.47, 0.2, 0.2, 0.47, -120.16, 198.55)" xlink:href="#Безымянный_градиент_14"/><linearGradient id="Безымянный_градиент_20-4" x1="344.96" y1="464.28" x2="387.92" y2="501.89" gradientTransform="translate(-450.54 463.44) rotate(-67.33)" xlink:href="#Безымянный_градиент_20"/><linearGradient id="Безымянный_градиент_2-8" x1="-264.5" y1="16.65" x2="-163.8" y2="31.47" gradientTransform="matrix(-1, 0, 0, 1, -49.64, 277.25)" xlink:href="#Безымянный_градиент_2"/><radialGradient id="Безымянный_градиент_88-7" cx="108.27" cy="476.85" r="35.77" gradientTransform="matrix(-0.53, -0.71, -0.41, 0.3, 314.31, 227.37)" xlink:href="#Безымянный_градиент_88"/><linearGradient id="Безымянный_градиент_7" x1="-342.62" y1="305.37" x2="-257.5" y2="317.89" gradientTransform="translate(358.36 -32.56) rotate(-6.1)" gradientUnits="userSpaceOnUse"><stop offset="0" stop-color="#ffd2d5"/><stop offset="0.22" stop-color="#ffbbcf"/><stop offset="0.47" stop-color="#ffa8cb"/><stop offset="0.72" stop-color="#ff9dc8"/><stop offset="1" stop-color="#ff99c7"/></linearGradient><radialGradient id="Безымянный_градиент_88-8" cx="-1.78" cy="351.3" r="35.77" gradientTransform="matrix(0, -1.2, -0.51, 0, 283.48, 306.04)" xlink:href="#Безымянный_градиент_88"/><radialGradient id="Безымянный_градиент_88-9" cx="254.57" cy="805.93" r="35.77" gradientTransform="matrix(0.96, -0.72, 0.3, 0.41, -323.15, 164.56)" xlink:href="#Безымянный_градиент_88"/><radialGradient id="Безымянный_градиент_88-10" cx="286.92" cy="848.24" r="35.77" gradientTransform="matrix(0.96, -0.72, 0.3, 0.41, -323.15, 164.56)" xlink:href="#Безымянный_градиент_88"/><radialGradient id="Безымянный_градиент_88-11" cx="84.92" cy="454.41" r="35.77" gradientTransform="matrix(-0.53, -0.71, -0.41, 0.3, 314.31, 227.37)" xlink:href="#Безымянный_градиент_88"/><linearGradient id="Безымянный_градиент_7-2" x1="73.32" y1="309.6" x2="158.43" y2="322.13" gradientTransform="matrix(1, 0, 0, 1, 0, 0)" xlink:href="#Безымянный_градиент_7"/><linearGradient id="Безымянный_градиент_7-3" x1="-322.39" y1="325.04" x2="-237.27" y2="337.57" gradientTransform="matrix(-1, -0.04, -0.04, 1, -64.42, -32.38)" xlink:href="#Безымянный_градиент_7"/><radialGradient id="Безымянный_градиент_88-12" cx="453.71" cy="900.71" r="35.77" gradientTransform="matrix(0.43, -0.52, 0.39, 0.32, -360.86, 252.63)" xlink:href="#Безымянный_градиент_88"/><linearGradient id="Безымянный_градиент_7-4" x1="-283.6" y1="309.64" x2="-198.49" y2="322.17" gradientTransform="matrix(-1, 0, 0, 1, -84.02, 0)" xlink:href="#Безымянный_градиент_7"/></defs><title>buddhaAsset 1</title><g class="cls-1"><g id="Layer_2" data-name="Layer 2"><g id="Слой_1" data-name="Слой 1"><path class="cls-2" d="M297,394.22c.11,12.8-65.94,23.77-147.55,24.48S1.61,409.62,1.5,396.82s66-23.77,147.54-24.48S296.89,381.42,297,394.22Z"/><path class="cls-3" d="M244.8,90.61s15.07-14.66,20.36,0-10.18,31.77-11.4,43.58,2,19.55-3.26,19.95-10.18-8.55-10.18-19.95S244.8,90.61,244.8,90.61Z"/><path class="cls-4" d="M244,98l0,41.48s4.67-13.67,15.88-32.58c3.76-6.35,3-16.13-2.83-18C251,87,245.62,94.66,244,98Z"/><path class="cls-5" d="M256,97.59a12,12,0,0,1-.94,17.47,13.32,13.32,0,0,1-18.25-.54,12,12,0,0,1,1-17.46A13.31,13.31,0,0,1,256,97.59Z"/><path class="cls-6" d="M61.52,90.61S46.45,76,41.15,90.61s10.19,31.77,11.41,43.58-2,19.55,3.26,19.95S66,145.59,66,134.19,61.52,90.61,61.52,90.61Z"/><path class="cls-7" d="M62.35,98l0,41.48s-4.68-13.67-15.88-32.58c-3.76-6.35-3-16.13,2.83-18C55.32,87,60.7,94.66,62.35,98Z"/><path class="cls-8" d="M50.28,97.59a12,12,0,0,0,.94,17.47,13.32,13.32,0,0,0,18.25-.54,12,12,0,0,0-1-17.46A13.31,13.31,0,0,0,50.28,97.59Z"/><path class="cls-9" d="M84.39,321s6.21-30.74-22.18-47.27-28-16.46-28-16.46-8.6,30.29,9.9,48.69S84.39,321,84.39,321Z"/><path class="cls-10" d="M78.4,299.48s19.25-24.76,1.2-52.2-17.72-27.2-17.72-27.2-21.19,23.29-12.83,48S78.4,299.48,78.4,299.48Z"/><path class="cls-11" d="M67.34,230.76c-6.09-2.56-14.26,3.07-18.24,12.57s-2.27,19.27,3.83,21.82,14.26-3.07,18.24-12.57S73.44,233.31,67.34,230.76Z"/><path class="cls-12" d="M102.84,290.93s19.25-24.76,1.2-52.2-17.72-27.2-17.72-27.2-21.2,23.29-12.83,48S102.84,290.93,102.84,290.93Z"/><path class="cls-13" d="M102.3,266.8c6.44,8.57,2.44,22.45-8.94,31s-25.82,8.53-32.27,0-2.44-22.46,8.94-31S95.85,258.22,102.3,266.8Z"/><path class="cls-14" d="M102.4,215.15c-25.17,20.91-53.44,34-85.32,35.68-2.73-4-5.44-7.29-8.34-7.51-3.4-.26-4.51,1.66-3.74,2.43s5.53-1.1,5.12,4.41c-5.49.76-3.82-3.79-5.12-4.41s-2.21,1.48-1.6,3.79c1.26,4.8,5.06,4.89,5.06,4.89s-9.87,1.87-8.29,4.5,9.63-.33,9.63-.33-5.27,4.4-3.41,6.15c1.25,1.16,5.65-2.3,11.53-6.72,27.21,2.7,67-16.12,90.06-35Z"/><path class="cls-15" d="M106.8,188.22c-11.46,23.95-28.6,44.61-59.75,57.16,3.88,12.52,4.88,29.52,3.68,39.84,44.66-3.52,65.86-41.91,80-90.73Z"/><path class="cls-16" d="M96.75,271.25c-11.51-1.68-18.81-17-16.3-34.18S94.33,207.28,105.83,209s18.81,17,16.3,34.19S108.26,272.93,96.75,271.25Z"/><path class="cls-17" d="M203.46,270c11.5-1.68,18.8-17,16.29-34.18s-13.87-29.79-25.38-28.11-18.81,17-16.3,34.18S192,271.71,203.46,270Z"/><path class="cls-18" d="M204.16,313.37s2.23-31.28,34-39.65,31.36-8.39,31.36-8.39.21,31.49-22.53,44.29S204.16,313.37,204.16,313.37Z"/><path class="cls-19" d="M248.79,266.36c9.51,5,11.87,19.22,5.28,31.84S234.43,317,224.92,312.05s-11.87-19.22-5.28-31.84S239.29,261.4,248.79,266.36Z"/><path class="cls-20" d="M104.26,330.35s11.25-29.27,44.07-28,32.45,1.12,32.45,1.12-9,30.18-34.47,35.79S104.26,330.35,104.26,330.35Z"/><path class="cls-21" d="M225.52,297.85s-19.24-24.76-1.19-52.2,17.72-27.2,17.72-27.2,21.19,23.29,12.83,48S225.52,297.85,225.52,297.85Z"/><path class="cls-22" d="M242.42,231.07c-8.11-.34-15.16,10.89-15.75,25.07s5.51,25.95,13.62,26.29,15.17-10.89,15.76-25.07S250.53,231.4,242.42,231.07Z"/><path class="cls-23" d="M237.39,256.18c9.5,5,11.87,19.22,5.28,31.84S223,306.83,213.52,301.87s-11.87-19.22-5.28-31.84S227.88,251.22,237.39,256.18Z"/><path class="cls-24" d="M201.09,289.3s-19.25-24.76-1.2-52.2,17.72-27.2,17.72-27.2,21.2,23.29,12.83,48S201.09,289.3,201.09,289.3Z"/><ellipse class="cls-25" cx="215.7" cy="243.31" rx="25.7" ry="14.7" transform="translate(-36.32 448.76) rotate(-87.63)"/><path class="cls-26" d="M198.2,215.15c25.16,20.91,53.43,34,85.32,35.68,2.72-4,5.44-7.29,8.34-7.51,3.4-.26,4.5,1.66,3.74,2.43s-5.54-1.1-5.13,4.41c5.49.76,3.83-3.79,5.13-4.41s2.21,1.48,1.6,3.79c-1.27,4.8-5.06,4.89-5.06,4.89s9.86,1.87,8.28,4.5-9.63-.33-9.63-.33,5.28,4.4,3.41,6.15c-1.25,1.16-5.65-2.3-11.53-6.72-27.21,2.7-67-16.12-90.05-35Z"/><path class="cls-27" d="M193.8,188.22c11.45,23.95,28.59,44.61,59.75,57.16-3.88,12.52-4.89,29.52-3.69,39.84-44.65-3.52-65.86-41.91-80-90.73Z"/><path class="cls-28" d="M108.27,284.89s-21.76-13.27-15.49-43.52,17.34-43.52,30.24-47.21,60.86-5.16,66.39,0,19.55,36.89,20.66,47.21.37,33.93-14.39,43.52S108.27,284.89,108.27,284.89Z"/><path class="cls-29" d="M198.68,192c.5,17.87-20.68,33-47.31,33.71s-48.63-13.13-49.13-31,20.68-33,47.31-33.7S198.18,174.16,198.68,192Z"/><path class="cls-30" d="M242.68,84.92c9.22.6,15.81,14.69,14.72,31.47s-9.46,29.89-18.68,29.29S222.91,131,224,114.21,233.46,84.32,242.68,84.92Z"/><path class="cls-31" d="M64.18,84.92c-9.22.6-15.81,14.69-14.71,31.47s9.46,29.89,18.68,29.29S84,131,82.86,114.21,73.4,84.32,64.18,84.92Z"/><path class="cls-32" d="M250.27,110.07c1.4,49.64-40.78,87.33-94.32,88.83S57.8,165.16,56.41,115.52,62.35,0,149.1,0C240.32,0,248.88,60.43,250.27,110.07Z"/><path class="cls-33" d="M184,39.4c.43,7.9-13.46,14.46-31,14.7s-32.12-6-32.54-13.89,13.45-14.44,31-14.67S183.63,31.53,184,39.4Z"/><path class="cls-34" d="M165,99.79c.12,4.08-5.61,7.54-12.79,7.75s-13.09-2.94-13.21-7,5.62-7.54,12.8-7.74S164.92,95.72,165,99.79Z"/><path class="cls-35" d="M159.17,126c.09,1.48-3.15,2.72-7.22,2.79s-7.46-1.08-7.55-2.56,3.15-2.71,7.23-2.78S159.08,124.53,159.17,126Z"/><path class="cls-36" d="M155.87,126.05c0,.66-1.42,1.22-3.25,1.25s-3.35-.49-3.38-1.15,1.41-1.22,3.24-1.25S155.83,125.38,155.87,126.05Z"/><path class="cls-37" d="M231.77,95.93a31.37,31.37,0,1,1-32.23-30.48A31.37,31.37,0,0,1,231.77,95.93Z"/><path class="cls-38" d="M133.46,97.21a31.37,31.37,0,1,1-32.24-30.47A31.38,31.38,0,0,1,133.46,97.21Z"/><path class="cls-39" d="M176.5,110.78c.3,10.68-10.23,19.65-23.52,20s-24.3-8-24.6-18.67,10.23-19.64,23.52-20S176.2,100.1,176.5,110.78Z"/><path class="cls-40" d="M173.79,104c.23,8-9.31,14.83-21.29,15.17s-21.89-5.91-22.11-14,9.3-14.83,21.29-15.17S173.56,96,173.79,104Z"/><path class="cls-41" d="M152.28,130.77a12.17,12.17,0,0,1-10.87-6.25,3.54,3.54,0,0,1,1.53-4.78,3.64,3.64,0,0,1,1.52-.39,3.52,3.52,0,0,1,3.24,1.9,5,5,0,0,0,4.4,2.43h.17a5.5,5.5,0,0,0,4.58-2.91A3.55,3.55,0,0,1,160,118.7a3.61,3.61,0,0,1,1.55.31,3.57,3.57,0,0,1,1.79,4.69,12.62,12.62,0,0,1-7.5,6.49,12.83,12.83,0,0,1-3.13.56Z"/><path d="M155.39,128.84a11.74,11.74,0,0,1-2.79.5,10.67,10.67,0,0,1-9.93-5.47,2.12,2.12,0,0,1,3.77-2,6.42,6.42,0,0,0,5.91,3.18,7,7,0,0,0,5.79-3.71,2.11,2.11,0,0,1,2.8-1.07,2.14,2.14,0,0,1,1.07,2.82A11.34,11.34,0,0,1,155.39,128.84Z"/><path class="cls-42" d="M165.42,99.69c.11,4.07-5.62,7.54-12.8,7.74s-13.09-2.94-13.21-7,5.62-7.55,12.8-7.75S165.3,95.61,165.42,99.69Z"/><path class="cls-43" d="M194.89,81.25a4.13,4.13,0,0,0,2.53-1.46,4.08,4.08,0,0,0,.92-3A4.12,4.12,0,0,0,196.85,74c-5.61-4.59-11.39-6.44-17.19-5.51a23.78,23.78,0,0,0-11.84,6,4.13,4.13,0,0,0,5.45,6.2A15.57,15.57,0,0,1,181,76.61c3.42-.55,6.91.68,10.66,3.76A4.13,4.13,0,0,0,194.89,81.25Z"/><path class="cls-44" d="M194.66,79.83a2.69,2.69,0,0,0,1.28-4.74c-9-7.38-18.41-7.22-27.17.47a2.69,2.69,0,0,0,3.55,4c6.79-6,13.21-6.08,20.2-.35A2.68,2.68,0,0,0,194.66,79.83Z"/><path class="cls-45" d="M107,81.25a4.13,4.13,0,0,1-2.54-1.46,4.14,4.14,0,0,1,.58-5.81c5.6-4.59,11.39-6.44,17.18-5.51a23.78,23.78,0,0,1,11.84,6,4.13,4.13,0,0,1-5.45,6.2,15.53,15.53,0,0,0-7.68-4.08c-3.42-.55-6.9.68-10.66,3.76A4.12,4.12,0,0,1,107,81.25Z"/><path class="cls-44" d="M107.23,79.83A2.69,2.69,0,0,1,106,75.09c9-7.38,18.41-7.22,27.16.47a2.69,2.69,0,1,1-3.55,4c-6.79-6-13.21-6.08-20.2-.35A2.68,2.68,0,0,1,107.23,79.83Z"/><path class="cls-46" d="M149.1,0C97.78,0,74.26,23.05,63.89,52.16,88,24.43,107.55,17.61,120.59,26.88c17.67,12.55,45.85,10.31,65.57,0,17.92-9.37,43,14.49,56,27.83C231.53,24.28,206.93,0,149.1,0Z"/><path class="cls-47" d="M152.9,215.14c-17.7-15.49-47-26.18-47-26.18S69.54,256.82,102,285.22s101.43,4.06,101.43,4.06S169.78,229.91,152.9,215.14Z"/><path class="cls-48" d="M105.85,188.6a40.67,40.67,0,0,0-8.07,13.8c28.19,15.52,54.95,36.79,81.05,60.68l15.88-29.73C169.87,215.84,115.3,190.59,105.85,188.6Z"/><path class="cls-49" d="M148.41,214.4c14.08-16.23,45.89-23,45.89-23s37.46,65.45,5,93.85-101.42,4.06-101.42,4.06S115.41,252.43,148.41,214.4Z"/><path class="cls-50" d="M150.27,308.61c4.14,9.89,23.32,11.29,42.82,3.11s32-22.82,27.82-32.71-23.32-11.29-42.83-3.11S146.12,298.72,150.27,308.61Z"/><path class="cls-51" d="M195.5,190.55s7.41,8.69,10.61,13.89c-41.13,14.7-73.93,46.42-102.58,86.62l-5.75-1.91C127.24,201.9,181.3,194.37,195.5,190.55Z"/><path class="cls-52" d="M150.59,307c-4,9.55-22.51,10.9-41.35,3s-30.86-22-26.85-31.58,22.51-10.9,41.35-3S154.6,297.41,150.59,307Z"/><path class="cls-53" d="M156,301s-60.72-43.8-71.67-26.88-3,39.81,33.84,47.77,43.29,0,43.29,0Z"/><path class="cls-54" d="M121.37,308.27c-.61,8.25,6.24,15.48,15.3,16.15s16.89-5.48,17.49-13.73-6.24-15.48-15.3-16.15S122,300,121.37,308.27Z"/><path class="cls-55" d="M133.05,317.82a11.21,11.21,0,1,0,6-14.66A11.2,11.2,0,0,0,133.05,317.82Z"/><path class="cls-56" d="M152.77,298.61l-7.19,5.31s-8.84-.25-10.35-1.57-4.45-3.42-6.27-.13c-1.69,3.06,2.56,4.08,2.56,4.08s-4.37-.22-3.47,3.36c.66,2.61,4.69,2,4.69,2s-4,1-3,3.45a2.84,2.84,0,0,0,3.58,1.62s-.91,2,.88,2.89,2.63-1.42,2.63-1.42,14.34,1.87,16.4-1.4,3.5-14.09,3.5-14.09Z"/><path class="cls-57" d="M146.25,302.58s61.44-44.91,72.38-28S222,316.5,184.8,322.36s-45.48,3-45.48,3Z"/><path class="cls-58" d="M42.92,268.38c-8.58,6.44-6.36,23.87,5,38.92s27.43,22,36,15.58,6.36-23.87-5-38.92S51.49,261.93,42.92,268.38Z"/><path class="cls-59" d="M116.28,331.85S113.07,297.61,78,289.22s-34.59-8.43-34.59-8.43.55,34.53,25.79,48S116.28,331.85,116.28,331.85Z"/><ellipse class="cls-60" cx="105.6" cy="308.43" rx="19.42" ry="46.03" transform="translate(-204.63 208.22) rotate(-53.2)"/><path class="cls-61" d="M203.19,280.86c6.43,8.58-4.87,27.89-25.22,43.12s-42.07,20.61-48.49,12,4.86-27.89,25.22-43.12S196.76,272.27,203.19,280.86Z"/><path class="cls-62" d="M247.17,274.75c6.43,8.58-4.87,27.89-25.22,43.12s-42.07,20.61-48.49,12,4.87-27.89,25.22-43.12S240.75,266.16,247.17,274.75Z"/><path class="cls-63" d="M64.5,278.15c-8.57,6.44-6.35,23.87,5,38.92s27.43,22,36,15.58,6.35-23.87-5-38.92S73.07,271.7,64.5,278.15Z"/><path class="cls-64" d="M136.48,340.86s.45-34.39-33.49-46.45-33.5-12.06-33.5-12.06S66.36,316.74,90,332.82,136.48,340.86,136.48,340.86Z"/><path class="cls-65" d="M179.35,334.67s1-34.38,35.45-45,34-10.61,34-10.61,1.66,34.49-22.68,49.54S179.35,334.67,179.35,334.67Z"/><path class="cls-66" d="M201.65,291c8.23,6.88,7.52,21.31-1.6,32.23s-23.19,14.22-31.43,7.35-7.52-21.31,1.61-32.23S193.42,284.13,201.65,291Z"/><path class="cls-67" d="M136.42,340.9s-.45-34.39,33.5-46.45,33.49-12.06,33.49-12.06,3.13,34.39-20.54,50.47S136.42,340.9,136.42,340.9Z"/></g></g></g></svg>