<svg xmlns="http://www.w3.org/2000/svg" xmlns:xlink="http://www.w3.org/1999/xlink" viewBox="0 0 498.66 560.11"><defs><style>.cls-1{fill:url(#linear-gradient);}.cls-2{fill:url(#linear-gradient-2);}.cls-3{fill:#fff;}</style><linearGradient id="linear-gradient" x1="212.4" y1="19.92" x2="296.9" y2="251.22" gradientTransform="translate(-0.12 0.32) rotate(0.03)" gradientUnits="userSpaceOnUse"><stop offset="0" stop-color="#f15a24"/><stop offset="0.84" stop-color="#c1272d"/></linearGradient><linearGradient id="linear-gradient-2" x1="90.24" y1="214.53" x2="453.19" y2="518.66" gradientTransform="translate(-0.12 0.32) rotate(0.03)" gradientUnits="userSpaceOnUse"><stop offset="0" stop-color="#f15a24"/><stop offset="0" stop-color="#ef5824"/><stop offset="1" stop-color="#c1272d"/></linearGradient></defs><title>correctAsset 11</title><g id="Layer_2" data-name="Layer 2"><g id="Layer_1-2" data-name="Layer 1"><path class="cls-1" d="M249.59,0C179.12,0,121.78,54.88,121.74,122.42S179,244.93,249.47,245s127.81-54.88,127.84-122.42S320.05,0,249.59,0Zm-.11,215.53c-54.31,0-98.32-41.71-98.29-93.09s44.07-93,98.38-93,98.32,41.71,98.3,93.09S303.8,215.55,249.48,215.53Z"/><path class="cls-2" d="M498.13,521.71c1.86,20.61.47,38.18-32.78,38.4l-423.57-.79a56.49,56.49,0,0,0-9.08-.1C4.8,561-1.79,540.88.38,520.26l41-388.39c.1-.9.13-1.81.19-2.72.66-11.19,9.39-20,20.05-20l374.31.18c15,0,27.21,8.57,27.82,24.4,0,.82.64,6.05.71,6.87Z"/><circle class="cls-3" cx="133.51" cy="153.82" r="12.28"/><circle class="cls-3" cx="360.51" cy="153.94" r="12.28"/><path class="cls-3" d="M177.28,224.58l57.77-9.29,0,95s44.74-37.24,89.44,1.91c0,0,12.11,10.26,12.09,51.25L336.48,479l-59.63,0,.06-121.12s1.87-16.77-13-18.64c-27.74-3.48-26.11,29.8-26.11,29.8L235.86,479l-59.63,0Z"/></g></g></svg>