<svg xmlns="http://www.w3.org/2000/svg" xmlns:xlink="http://www.w3.org/1999/xlink" viewBox="0 0 952.64 1024"><defs><style>.cls-1{fill:url(#linear-gradient);}.cls-2{fill:url(#linear-gradient-2);}.cls-3{fill:#fff;}</style><linearGradient id="linear-gradient" x1="402.43" y1="40.33" x2="569.79" y2="498.44" gradientUnits="userSpaceOnUse"><stop offset="0" stop-color="#f15a24"/><stop offset="0.84" stop-color="#c1272d"/></linearGradient><linearGradient id="linear-gradient-2" x1="180.45" y1="398.97" x2="854.54" y2="963.8" gradientUnits="userSpaceOnUse"><stop offset="0" stop-color="#f15a24"/><stop offset="0" stop-color="#ef5824"/><stop offset="1" stop-color="#c1272d"/></linearGradient></defs><title>correctAsset 10</title><g id="Layer_2" data-name="Layer 2"><g id="Layer_1-2" data-name="Layer 1"><path class="cls-1" d="M476.32,0C336.76,0,223.23,108.82,223.23,242.59S336.76,485.18,476.32,485.18,729.41,376.37,729.41,242.59,615.88,0,476.32,0Zm0,426.87c-107.58,0-194.77-82.51-194.77-184.28S368.74,58.32,476.32,58.32s194.77,82.5,194.77,184.27S583.9,426.87,476.32,426.87Z"/><path class="cls-2" d="M951.63,955.18c3.56,36.92.92,68.4-62.59,68.82l-809.19-1a115.87,115.87,0,0,0-17.34-.17C9.21,1026-3.41,990,.73,953L78.65,257.09c.18-1.62.24-3.25.35-4.87a38.36,38.36,0,0,1,38.28-35.92H832.37c28.64,0,52,15.33,53.16,43.69.07,1.48,1.24,10.84,1.38,12.32Z"/><circle class="cls-3" cx="476.32" cy="279.6" r="24.31"/><circle class="cls-3" cx="476.32" cy="284.97" r="24.31"/><path class="cls-3" d="M319.47,393.38l114.41-18.45V563.15s88.57-73.81,177.15,3.69c0,0,24,20.3,24,101.49V897.15H516.92V657.26s3.69-33.21-25.84-36.9c-54.93-6.87-51.67,59-51.67,59l-3.69,217.74H317.62Z"/></g></g></svg>