<svg width="934" height="912" viewBox="0 0 934 912" fill="none" xmlns="http://www.w3.org/2000/svg">
<path fill-rule="evenodd" clip-rule="evenodd" d="M524.596 160.845C548.989 154.92 574.978 150.447 598.877 158.139C622.776 165.83 643.288 189.46 639.221 214.228C635.727 235.506 616.395 250.417 607.659 270.12C593.37 302.344 610.391 340.633 635.18 365.704C659.969 390.776 691.915 407.673 717.612 431.81C772.281 483.164 792.893 567.731 767.968 638.458C758.484 665.37 741.375 691.558 715.001 702.455C667.091 722.25 615.502 684.937 563.84 680.598C482.4 673.759 410.1 749.503 328.967 739.681C297.782 735.908 269.672 719.717 242.549 703.868C198.811 678.311 153.744 651.57 124.231 610.4C94.6504 569.138 83.6316 516.306 88.0577 465.738C92.4839 415.171 111.479 366.707 137.181 322.932C155.199 292.242 178.763 262.533 209.134 243.271C246.472 219.589 277.121 225.577 318.601 229.788C350.776 233.057 368.167 220.534 395.975 206.662C436.598 186.4 480.54 171.546 524.596 160.845V160.845Z" fill="#33D6A6"/>
</svg>
