<svg width="508" height="468" viewBox="0 0 508 468" fill="none" xmlns="http://www.w3.org/2000/svg">
<path fill-rule="evenodd" clip-rule="evenodd" d="M319.892 439.824C306.577 451.989 291.754 463.793 274.043 467.211C256.331 470.629 235.242 462.838 229.24 445.832C224.084 431.223 231.105 415.147 229.795 399.717C227.653 374.481 203.695 356.25 179.414 349.03C155.133 341.809 129.17 342.212 104.639 335.894C52.4517 322.451 10.2316 276.313 1.47662 223.149C-1.85459 202.92 -0.132982 180.511 12.711 164.529C36.0425 135.497 81.4359 141.161 115.475 126.033C169.133 102.183 188.483 29.4798 242.979 7.6145C263.925 -0.790392 287.227 -0.311614 309.79 0.293091C346.175 1.26761 383.805 2.52899 416.627 18.2553C449.524 34.0166 474.73 63.4822 489.426 96.8619C504.121 130.242 508.913 167.333 507.861 203.791C507.123 229.35 502.553 256.209 490.084 278.841C474.754 306.666 453.38 313.491 425.799 325.18C404.404 334.246 397.779 348.146 385.061 366.497C366.481 393.304 343.94 417.852 319.892 439.824V439.824Z" fill="#F48E45"/>
</svg>
