<?xml version="1.0" encoding="utf-8"?>
<!-- Generator: Adobe Illustrator 24.0.1, SVG Export Plug-In . SVG Version: 6.00 Build 0)  -->
<svg version="1.1" id="Layer_1" xmlns="http://www.w3.org/2000/svg" xmlns:xlink="http://www.w3.org/1999/xlink" x="0px" y="0px"
	 viewBox="0 0 337 332" style="enable-background:new 0 0 337 332;" xml:space="preserve">
<style type="text/css">
	.st0{fill:#FDBF00;}
	.st1{fill:#FF9100;}
	.st2{fill:#B4D2D7;}
	.st3{fill:#87A0AF;}
	.st4{fill:#E1EBF0;}
</style>
<g>
	<path class="st0" d="M152.1,84L88.5,20.4c-5.7-5.7-15.3-5.7-21.3,0l-21,21.3l-21.3,21c-5.7,6-5.7,15.6,0,21.3l63.6,63.6
		c8.7,9,20.4,13.2,31.8,13.2c11.7,0,23.1-4.2,31.8-13.2C169.8,130.2,169.8,101.7,152.1,84L152.1,84z"/>
	<path class="st1" d="M152.1,147.6L46.2,41.7l21-21.3c6-5.7,15.6-5.7,21.3,0L152.1,84C169.8,101.7,169.8,130.2,152.1,147.6
		L152.1,147.6z"/>
	<path class="st2" d="M332.4,306.9l-21,21c-5,5-12.7,5.9-18.3,2.4L240,298.5c-8.5-5.3-9.7-17.3-3-23.4l10.8-10.8l-74.4-74.1
		c-6-6-6-15.3,0-21.3c6-6,15.3-6,21.3,0l74.1,74.4l10.8-10.8c7-7,18.4-5.1,23.4,3l31.8,53.1C338.3,294.2,337.5,301.9,332.4,306.9
		L332.4,306.9z"/>
	<path class="st3" d="M332.4,306.9l-10.5,10.5L173.4,168.9c6-6,15.3-6,21.3,0l74.1,74.4l10.8-10.8c7-7,18.4-5.1,23.4,3l31.8,53.1
		C338.3,294.2,337.5,301.9,332.4,306.9L332.4,306.9z"/>
	<path class="st4" d="M307.5,34.8l-51.9,51.9c-6,6-15.6,5.7-21.3,0c-5.7-5.7-5.7-15.3,0-21.3l51.9-51.9
		C257.1-5.4,217.5-2.4,192,23.1c-16.8,16.5-24.3,40.2-21,63.3l-85.5,85.5c-23.1-3.3-46.8,4.2-63.3,21c-25.5,25.5-28.5,65.1-9.6,94.2
		l51.9-51.9c6-5.7,15.6-5.7,21.3,0c6,6,6,15.3,0,21.3l-51.9,51.9c12.6,8.4,27,12.3,41.4,12.3c19.2,0,38.4-7.2,53.1-21.9
		c16.5-16.5,24-40.2,21-63.3l85.2-85.2c23.1,3,46.8-4.5,63.3-21C323.7,103.5,326.7,64.2,307.5,34.8z"/>
	<path class="st2" d="M297.9,129.3c-16.5,16.5-40.2,24-63.3,21l-85.2,85.2c3,23.1-4.5,46.8-21,63.3c-14.7,14.7-33.9,21.9-53.1,21.9
		c-14.4,0-28.8-3.9-41.4-12.3l51.9-51.9c6-6,6-15.3,0-21.3L234.3,86.7c5.7,5.7,15.3,6,21.3,0l51.9-51.9
		C326.7,64.2,323.7,103.5,297.9,129.3L297.9,129.3z"/>
</g>
</svg>
