<svg width="337" height="332" viewBox="0 0 337 332" fill="none" xmlns="http://www.w3.org/2000/svg">
<path d="M151.688 82.6846L88.0859 19.083C82.3867 13.3838 72.7852 13.3838 66.7852 19.083L45.7852 40.3838L24.4844 61.3838C18.7852 67.3838 18.7852 76.9854 24.4844 82.6846L88.0859 146.282C96.7852 155.282 108.484 159.485 119.887 159.485C131.586 159.485 142.984 155.282 151.688 146.282C169.383 128.884 169.383 100.384 151.688 82.6846V82.6846Z" fill="#FDBF00"/>
<path d="M151.688 146.282L45.7852 40.3838L66.7852 19.083C72.7852 13.3838 82.3867 13.3838 88.0859 19.083L151.688 82.6846C169.383 100.384 169.383 128.884 151.688 146.282V146.282Z" fill="#FF9100"/>
<path d="M331.98 305.583L310.984 326.579C305.953 331.61 298.25 332.458 292.684 328.981L239.582 297.18C231.047 291.926 229.883 279.872 236.582 273.782L247.383 262.981L172.984 188.883C166.984 182.883 166.984 173.583 172.984 167.583C178.984 161.579 188.285 161.583 194.285 167.583L268.383 241.981L279.184 231.18C286.199 224.168 297.586 226.059 302.582 234.18L334.383 287.282C337.855 292.836 337.02 300.543 331.98 305.583V305.583Z" fill="#B4D2D7"/>
<path d="M331.98 305.583L321.484 316.083L172.984 167.583C178.984 161.583 188.285 161.583 194.285 167.583L268.383 241.981L279.184 231.181C286.199 224.169 297.586 226.063 302.582 234.185L334.383 287.282C337.855 292.837 337.02 300.544 331.98 305.583V305.583Z" fill="#87A0AF"/>
<path d="M307.082 33.4849L255.183 85.3834C249.183 91.3834 239.582 91.0826 233.883 85.3834C228.183 79.6842 228.183 70.0826 233.883 64.0826L285.785 12.1842C256.683 -6.71428 217.086 -3.71428 191.586 21.7857C174.785 38.2857 167.285 61.9849 170.586 85.0826L85.0858 170.583C61.9842 167.282 38.285 174.782 21.785 191.583C-3.715 217.083 -6.715 256.684 12.1873 285.782L64.0858 233.883C70.0858 228.18 79.6873 228.18 85.3866 233.883C91.3866 239.883 91.3866 249.18 85.3866 255.18L33.4881 307.083C46.0858 315.481 60.4842 319.379 74.8866 319.379C94.0858 319.379 113.285 312.18 127.984 297.481C144.484 280.981 151.984 257.282 148.984 234.184L234.183 148.981C257.285 151.985 280.984 144.485 297.484 127.981C323.281 102.184 326.281 62.8834 307.082 33.4849Z" fill="#E1EBF0"/>
<path d="M297.484 127.981C280.984 144.481 257.285 151.981 234.184 148.981L148.984 234.185C151.984 257.282 144.484 280.981 127.984 297.481C113.285 312.181 94.0859 319.38 74.8867 319.38C60.4844 319.38 46.0859 315.481 33.4883 307.083L85.3867 255.181C91.3867 249.185 91.3867 239.884 85.3867 233.884L233.883 85.3838C239.582 91.083 249.184 91.3838 255.184 85.3838L307.082 33.4854C326.281 62.8838 323.281 102.185 297.484 127.981V127.981Z" fill="#B4D2D7"/>
</svg>
