<svg xmlns="http://www.w3.org/2000/svg" viewBox="0 0 813.07 59.01"><defs><style>.cls-1{fill:#fff;}</style></defs><title>8Asset 6</title><g id="Layer_2" data-name="Layer 2"><g id="Layer_1-2" data-name="Layer 1"><path class="cls-1" d="M34.07,0,0,59H68.14Zm68,0L68,59h68.14Zm67,0L135,59h68.14Zm68,0L203,59h68.14Zm68.05,0L271.05,59H339.2Zm68,0L339.05,59H407.2Zm67,0L406.05,59H474.2Zm68,0L474.05,59H542.2ZM576,.93l-34.07,58h68.14Zm68,0-34.07,58h68.14Zm67,0-34.07,58h68.14Zm68,0-34.07,58h68.14Z"/></g></g></svg>