<svg height="16" viewBox="0 0 415 16" width="415" xmlns="http://www.w3.org/2000/svg"><path d="m97 425 12.085415 10.313057c2.635524 2.249257 6.437433 2.249257 9.072957-.000625l7.54773-6.441283c2.635524-2.248631 6.437433-2.248631 9.07356 0l7.548333 6.441908c2.635524 2.249257 6.437433 2.249257 9.072957-.000625l7.547731-6.441283c2.635524-2.248631 6.438036-2.248631 9.07356 0l7.548333 6.441908c2.635524 2.249257 6.437433 2.249257 9.072957 0l7.548333-6.441908c2.634921-2.248631 6.437433-2.248631 9.072957 0l7.548334 6.441908c2.636127 2.249257 6.438036 2.249257 9.07356 0l7.54773-6.441908c2.635524-2.248631 6.437433-2.248631 9.07356 0l7.548936 6.441908c2.635524 2.249257 6.43683 2.249257 9.072354 0l7.548333-6.441908c2.635524-2.248631 6.438037-2.248631 9.07356 0l7.548334 6.441908c2.635524 2.249257 6.43683 2.249257 9.072957 0l7.548936-6.441908c2.635524-2.248631 6.437433-2.248631 9.072957 0l7.548333 6.441908c2.635524 2.249257 6.438037 2.249257 9.07356 0l7.548334-6.441908c2.634921-2.248631 6.43683-2.248631 9.072354 0l7.550142 6.441908c2.635524 2.249257 6.437433 2.249257 9.072957 0l7.548334-6.441908c2.635523-2.248631 6.437433-2.248631 9.072956 0l7.548937 6.441908c2.635524 2.249257 6.437433 2.249257 9.072957 0l7.548333-6.441908c2.636127-2.248631 6.437433-2.248631 9.072957 0l7.54954 6.441908c2.635524 2.249257 6.437433 2.249257 9.072957 0l7.549539-6.442533c2.636127-2.248006 6.43683-2.248006 9.072354 0l7.549539 6.442533c2.635524 2.249257 6.438037 2.248632 9.07356-.000625l7.545921-6.440657c2.635524-2.249257 6.43683-2.249257 9.07356-.000626l7.547731 6.441908c2.636127 2.249257 6.438036 2.249257 9.07356-.000625l7.546524-6.440657c2.635524-2.249257 6.437433-2.249257 9.07356 0l7.547127 6.440657" fill="none" opacity=".89" stroke="#ffffff" stroke-width="4" transform="translate(-95 -423)"/></svg>