<svg xmlns="http://www.w3.org/2000/svg" viewBox="0 0 282.81 230.08"><defs><style>.cls-1{isolation:isolate;}.cls-2{fill:#871500;}.cls-3{fill:#546e7a;}.cls-4{fill:#37474f;}.cls-5{fill:#fbb914;}.cls-6{fill:#ffc738;}.cls-7{fill:#eb9711;}.cls-8{fill:#ffd6ad;}.cls-9{fill:#ffc58f;}.cls-10{fill:#ffcb9c;}.cls-11{fill:#90a4ae;}.cls-12{fill:#263238;}.cls-13{fill:#455a64;}.cls-14{fill:#6a828c;}.cls-15{fill:#78909c;}.cls-16{fill:#324047;}.cls-17{fill:#b0bec5;}.cls-18{fill:#b7c5cc;}.cls-19{fill:#c11e00;}.cls-20{fill:#d13619;}.cls-21{fill:#de5431;}.cls-22{fill:#4e342e;}.cls-23{fill:#3e2723;}.cls-24,.cls-25{fill:#b3e5fc;}.cls-25,.cls-34{mix-blend-mode:soft-light;}.cls-26{fill:#9db2c7;}.cls-27{fill:#abd7fb;}.cls-28{fill:#eceff1;}.cls-29{fill:#ffbb7c;}.cls-30{fill:#fff;}.cls-31{fill:#474747;}.cls-32{fill:#5d4037;}.cls-33{fill:#898094;opacity:0.35;}.cls-34{fill:#b2a6c2;}.cls-35{fill:#db4123;}</style></defs><title>buddhaAsset 1</title><g class="cls-1"><g id="Layer_2" data-name="Layer 2"><g id="Layer_3" data-name="Layer 3"><polygon class="cls-2" points="104.76 23.42 104.12 33.96 109.44 46.34 119.61 49.08 114.92 14.71 104.76 23.42"/><path class="cls-3" d="M178.56,185h-7.27a2,2,0,0,1-2-2h0a2,2,0,0,1,2-2h7.27a2,2,0,0,1,2,2h0A2,2,0,0,1,178.56,185Z"/><path class="cls-4" d="M178.56,185.36h-7.27a2.37,2.37,0,1,1,0-4.73h7.27a2.37,2.37,0,1,1,0,4.73Zm-7.27-4a1.6,1.6,0,1,0,0,3.19h7.27a1.6,1.6,0,1,0,0-3.19Z"/><path class="cls-4" d="M178.56,185.36a2.37,2.37,0,1,1,2.37-2.37A2.37,2.37,0,0,1,178.56,185.36Zm0-4a1.6,1.6,0,1,0,1.6,1.59A1.6,1.6,0,0,0,178.56,181.4Z"/><path class="cls-5" d="M105.83,80a8,8,0,0,0,11.46.72c4-3.62,10.64-9.83,13.93-13.31A8,8,0,0,0,130.83,56h0a8,8,0,0,0-11.27.33c-3,3.14-9.39,9.15-13.12,12.63A8,8,0,0,0,105.83,80Z"/><path class="cls-6" d="M121,55.09l-6.55,6.23c-2.25,2.17-4.69,4.47-6.69,6.35h0c2.29-.49,7.3-.22,10.17,5.55l8.91-7.75A15.4,15.4,0,0,0,129,69.68c.85-.84,1.62-1.62,2.26-2.3A8,8,0,0,0,130.83,56h0a8,8,0,0,0-7-2c-1.52.59-2.52,1-2.73,1.08Z"/><path class="cls-7" d="M111.92,83.15l-.54,0a8.28,8.28,0,0,1-5.84-2.92h0a8.36,8.36,0,0,1,.64-11.58c2.21-2.06,9.69-9.06,13.1-12.62a8.47,8.47,0,0,1,11.81-.34,8.43,8.43,0,0,1,.4,12c-3.34,3.53-10.17,9.9-13.94,13.32A8.3,8.3,0,0,1,111.92,83.15ZM125.37,54.2a7.66,7.66,0,0,0-5.54,2.34c-3.42,3.57-10.91,10.59-13.13,12.65a7.6,7.6,0,0,0-.58,10.53h0A7.62,7.62,0,0,0,117,80.4c3.76-3.41,10.57-9.76,13.9-13.28a7.66,7.66,0,0,0-5.57-12.92Z"/><path class="cls-8" d="M104.83,72.13c-18,15.74-34.79,24.05-64.78,30.7a5.49,5.49,0,0,0-4.16,6.08l.13.85a4.6,4.6,0,0,0,5.65,3.76c27.41-6.83,43.9-6.63,71.85-31.56a6.55,6.55,0,0,0,.61-9.15h0A6.56,6.56,0,0,0,104.83,72.13Z"/><path class="cls-9" d="M40.56,114a5,5,0,0,1-4.92-4.23l-.13-.84A5.87,5.87,0,0,1,40,102.46C69.3,96,86.21,87.94,104.58,71.84l.25.29-.25-.29a6.95,6.95,0,0,1,9.84.72,7,7,0,0,1-.65,9.69c-23.28,20.76-39,24.23-58.9,28.62-4.16.92-8.46,1.86-13.11,3A4.87,4.87,0,0,1,40.56,114Zm68.57-43.15a6.1,6.1,0,0,0-4,1.53C86.6,88.61,69.6,96.67,40.13,103.2a5.08,5.08,0,0,0-3.86,5.65l.13.85a4.21,4.21,0,0,0,5.18,3.45c4.65-1.16,9-2.11,13.12-3,20.57-4.53,35.43-7.81,58.56-28.45a6.17,6.17,0,0,0-3.68-10.76Z"/><path class="cls-10" d="M114.13,72.81h0a6.56,6.56,0,0,0-9.3-.68l-.66.58h0a6.49,6.49,0,0,1,7.9,2.11,143.6,143.6,0,0,1-76.18,34.09l.13.85a4.6,4.6,0,0,0,5.65,3.76c27.41-6.83,43.9-6.63,71.85-31.56A6.55,6.55,0,0,0,114.13,72.81Z"/><path class="cls-11" d="M225.06,155.47c-13.5,0-24.44,13-24.44,29s10.94,29,24.44,29,24.45-13,24.45-29S238.56,155.47,225.06,155.47Zm0,44.39c-7.19,0-13-6.9-13-15.42s5.82-15.42,13-15.42,13,6.9,13,15.42S232.25,199.86,225.06,199.86Z"/><path class="cls-12" d="M225.06,213.79c-13.69,0-24.83-13.17-24.83-29.35s11.14-29.35,24.83-29.35,24.83,13.17,24.83,29.35S238.75,213.79,225.06,213.79Zm0-57.94c-13.27,0-24.06,12.83-24.06,28.59S211.79,213,225.06,213s24.06-12.83,24.06-28.59S238.33,155.85,225.06,155.85Zm0,44.39c-7.38,0-13.39-7.09-13.39-15.8s6-15.8,13.39-15.8,13.39,7.09,13.39,15.8S232.44,200.24,225.06,200.24Zm0-30.84c-7,0-12.63,6.75-12.63,15s5.67,15,12.63,15,12.63-6.75,12.63-15S232,169.4,225.06,169.4Z"/><path class="cls-3" d="M240.25,220.7c10.3-7.45,17.19-20.9,17.19-36.26s-6.89-28.81-17.19-36.26v-3.33l10.86.12a42.69,42.69,0,0,0-20.77-5.79c-9.27,0-18.48,4.26-20.87,5.33-13.68,6.16-23.66,21.54-23.66,39.93,0,17.81,9.47,32.57,22.35,39.36,5.08,2.67,10.24,5.9,22.18,5.9,13.84,0,21-5.9,21-5.9h-11.1Zm-30.6-36.26c0-15.41,8.78-28.38,20.73-32.29,12,3.91,20.73,16.88,20.73,32.29s-8.78,28.38-20.73,32.29C218.43,212.82,209.65,199.85,209.65,184.44Z"/><path class="cls-13" d="M230.34,139.18c-20,0-38.72,18-38.72,45.26s18.77,45.26,38.72,45.26c25.64,0,36.13-20.26,36.13-45.26S254,139.18,230.34,139.18Zm0,77.55c-11.95-3.91-20.73-16.88-20.73-32.29s8.78-28.38,20.73-32.29c12,3.91,20.73,16.88,20.73,32.29S242.33,212.82,230.38,216.73Z"/><path class="cls-12" d="M230.34,230.08c-11.22,0-16.58-2.86-21.31-5.39l-1.05-.56a41.19,41.19,0,0,1-16.15-15.68,48.43,48.43,0,0,1,.35-48.76,38.88,38.88,0,0,1,17.13-15.52l.19-.09c7.77-3.5,14.79-5.28,20.84-5.28a43.4,43.4,0,0,1,21,5.85.38.38,0,0,1-.2.7h0l-10.47-.11V148c10.77,7.87,17.19,21.48,17.19,36.45S251.4,213,240.63,220.89v2.52h10.72a.38.38,0,0,1,.36.26.38.38,0,0,1-.12.42C251.3,224.34,244.16,230.08,230.34,230.08Zm0-90.52c-5.94,0-12.85,1.76-20.53,5.22l-.18.08c-14.24,6.41-23.44,21.94-23.44,39.58,0,16.61,8.69,31.92,22.15,39l1,.56c4.65,2.48,9.92,5.3,21,5.3,10.7,0,17.42-3.61,19.8-5.14h-9.89a.39.39,0,0,1-.39-.38v-3.1a.38.38,0,0,1,.16-.31c10.67-7.71,17-21.15,17-35.95s-6.36-28.24-17-35.95a.38.38,0,0,1-.16-.31v-3.33a.4.4,0,0,1,.12-.27.46.46,0,0,1,.27-.11l9.38.1A42.72,42.72,0,0,0,230.34,139.56Zm0,77.55h-.12c-12.36-4-21-17.48-21-32.66s8.63-28.61,21-32.66a.49.49,0,0,1,.24,0c12.36,4.05,21,17.48,21,32.66s-8.63,28.61-21,32.66Zm0-64.56c-12,4-20.35,17.08-20.35,31.89s8.36,27.9,20.35,31.89c12-4,20.35-17.08,20.35-31.89S242.37,156.54,230.38,152.55Z"/><path class="cls-4" d="M237.92,142c-19.78,0-35.82,19-35.82,42.44s16,42.44,35.82,42.44,35.81-19,35.81-42.44S257.7,142,237.92,142Zm-7.54,74.73c-11.95-3.91-20.73-16.88-20.73-32.29s8.78-28.38,20.73-32.29c12,3.91,20.73,16.88,20.73,32.29S242.33,212.82,230.38,216.73Z"/><path class="cls-12" d="M237.92,227.27c-20,0-36.2-19.22-36.2-42.83s16.24-42.83,36.2-42.83,36.19,19.21,36.19,42.83S257.88,227.27,237.92,227.27Zm0-84.89c-19.54,0-35.44,18.87-35.44,42.06s15.9,42.06,35.44,42.06,35.43-18.87,35.43-42.06S257.45,142.38,237.92,142.38Zm-7.54,74.73h-.12c-12.36-4-21-17.48-21-32.66s8.63-28.61,21-32.66a.49.49,0,0,1,.24,0c12.36,4.05,21,17.48,21,32.66s-8.63,28.61-21,32.66Zm0-64.56c-12,4-20.35,17.08-20.35,31.89s8.36,27.9,20.35,31.89c12-4,20.35-17.08,20.35-31.89S242.37,156.54,230.38,152.55Z"/><path class="cls-14" d="M237.92,148.34c-16.83,0-30.46,16.17-30.46,36.1s13.63,36.09,30.46,36.09,30.45-16.16,30.45-36.09S254.74,148.34,237.92,148.34Zm-7.54,68.39c-11.95-3.91-20.73-16.88-20.73-32.29s8.78-28.38,20.73-32.29c12,3.91,20.73,16.88,20.73,32.29S242.33,212.82,230.38,216.73Z"/><path class="cls-15" d="M237.92,150.94a24.05,24.05,0,0,0-7.54,1.21c12,3.91,20.73,16.88,20.73,32.29s-8.78,28.38-20.73,32.29a24.05,24.05,0,0,0,7.54,1.21c15.61,0,28.26-15,28.26-33.5S253.53,150.94,237.92,150.94Z"/><path class="cls-12" d="M237.92,218.32a24.69,24.69,0,0,1-7.66-1.22.39.39,0,0,1-.26-.37.38.38,0,0,1,.26-.36c12.05-3.94,20.47-17.07,20.47-31.93s-8.42-28-20.47-31.93a.38.38,0,0,1-.26-.36.39.39,0,0,1,.26-.37,24.69,24.69,0,0,1,7.66-1.22c15.79,0,28.65,15.2,28.65,33.88S253.71,218.32,237.92,218.32Zm-6.31-1.62a23.65,23.65,0,0,0,6.31.86c15.37,0,27.88-14.86,27.88-33.12s-12.51-33.12-27.88-33.12a23.65,23.65,0,0,0-6.31.86c11.76,4.46,19.88,17.54,19.88,32.26S243.37,212.24,231.61,216.7Z"/><path class="cls-12" d="M237.92,220.92c-17,0-30.84-16.37-30.84-36.48S220.91,148,237.92,148s30.84,16.37,30.84,36.48S254.92,220.92,237.92,220.92Zm0-72.19c-16.59,0-30.08,16-30.08,35.71s13.49,35.71,30.08,35.71,30.07-16,30.07-35.71S254.5,148.73,237.92,148.73Zm-7.54,68.38h-.12c-12.36-4-21-17.48-21-32.66s8.63-28.61,21-32.66a.49.49,0,0,1,.24,0c12.36,4.05,21,17.48,21,32.66s-8.63,28.61-21,32.66Zm0-64.56c-12,4-20.35,17.08-20.35,31.89s8.36,27.9,20.35,31.89c12-4,20.35-17.08,20.35-31.89S242.37,156.54,230.38,152.55Z"/><ellipse class="cls-4" cx="225.06" cy="184.61" rx="10.88" ry="13.78"/><path class="cls-12" d="M225.06,198.78c-6.21,0-11.27-6.36-11.27-14.17s5.06-14.16,11.27-14.16,11.27,6.35,11.27,14.16S231.27,198.78,225.06,198.78Zm0-27.57c-5.79,0-10.5,6-10.5,13.4s4.71,13.4,10.5,13.4,10.5-6,10.5-13.4S230.85,171.21,225.06,171.21Z"/><path class="cls-13" d="M242.84,183.42c-2.88-1.53-4.1-5.84-2.65-9.34l6.42-15.46a26.41,26.41,0,0,0-4.92-3.56l-8.48,12.19a4.62,4.62,0,0,1-8,0L219.51,159a32.49,32.49,0,0,0-4.85,6.39l3.6,8.68c1.45,3.5.23,7.81-2.65,9.34l-5.9,3.12a39,39,0,0,0,1.46,8.76l7.6-1.42c2.94-.55,5.66,2.06,6,5.79L226.39,215a24.46,24.46,0,0,0,4.56,1.88q.47,0,.93-.06l1.76-17.18c.38-3.73,3.1-6.34,6-5.79l15.65,2.92a36,36,0,0,0,1.53-6Z"/><path class="cls-12" d="M231,217.29h-.11a25.81,25.81,0,0,1-4.63-1.91.38.38,0,0,1-.2-.3l-1.58-15.37A6.61,6.61,0,0,0,222,195a4,4,0,0,0-3.18-.79l-7.6,1.42a.39.39,0,0,1-.44-.27,39.47,39.47,0,0,1-1.48-8.84.41.41,0,0,1,.21-.36l5.9-3.12c2.69-1.42,3.85-5.56,2.48-8.85l-3.61-8.68a.41.41,0,0,1,0-.34,32.94,32.94,0,0,1,4.91-6.46.39.39,0,0,1,.31-.12.38.38,0,0,1,.28.17l5.72,8.23a4.25,4.25,0,0,0,7.35,0l8.47-12.19a.4.4,0,0,1,.51-.12,27.37,27.37,0,0,1,5,3.61.39.39,0,0,1,.1.43l-6.43,15.47c-1.37,3.29-.21,7.43,2.48,8.85h0l14,7.41a.41.41,0,0,1,.2.4,38.46,38.46,0,0,1-1.54,6,.4.4,0,0,1-.44.25l-15.65-2.93a4,4,0,0,0-3.18.79A6.61,6.61,0,0,0,234,199.7l-1.76,17.19a.37.37,0,0,1-.35.34c-.32,0-.63.05-.95.06Zm-4.2-2.5a25.39,25.39,0,0,0,4.24,1.74l.54,0,1.73-16.87a7.34,7.34,0,0,1,2.72-5.2,4.8,4.8,0,0,1,3.77-.93l15.33,2.87a37.17,37.17,0,0,0,1.36-5.33l-13.78-7.29c-3.07-1.62-4.36-6.12-2.83-9.82l6.33-15.21a27.44,27.44,0,0,0-4.36-3.16l-8.27,11.91a5,5,0,0,1-8.61,0l-5.45-7.86a32.65,32.65,0,0,0-4.39,5.82l3.54,8.5c1.53,3.7.24,8.2-2.83,9.82l-5.69,3a38.29,38.29,0,0,0,1.34,8.1l7.26-1.36a4.8,4.8,0,0,1,3.77.93,7.38,7.38,0,0,1,2.73,5.2Z"/><path class="cls-4" d="M245,183.65c-2.71-1.43-3.86-5.49-2.5-8.78l6-14.38a28.56,28.56,0,0,0-4.33-3.85L236,168.45a4.35,4.35,0,0,1-7.5,0L221,157.64a30.75,30.75,0,0,0-4.26,4.68l5.22,12.55c1.36,3.29.21,7.35-2.5,8.78l-9.53,5a38.45,38.45,0,0,0,1.37,6.88l11.13-2.08c2.77-.52,5.33,1.94,5.69,5.44l1.8,17.63,1.07.35a24.31,24.31,0,0,0,3.63-.43l1.79-17.55c.36-3.5,2.92-6,5.69-5.44L255.6,196a36.88,36.88,0,0,0,1.39-6Z"/><path class="cls-12" d="M230.94,217.29a.2.2,0,0,1-.11,0c-.35-.1-.7-.21-1.08-.35a.39.39,0,0,1-.26-.32L227.69,199a6.21,6.21,0,0,0-2.27-4.37,3.74,3.74,0,0,0-3-.74L211.32,196a.4.4,0,0,1-.44-.27,38.7,38.7,0,0,1-1.38-7,.36.36,0,0,1,.2-.37l9.53-5.05c2.52-1.33,3.6-5.21,2.32-8.29l-5.21-12.55a.4.4,0,0,1,0-.38,31,31,0,0,1,4.32-4.73.38.38,0,0,1,.57.06l7.51,10.81a4,4,0,0,0,6.87,0l8.21-11.81a.42.42,0,0,1,.25-.16.43.43,0,0,1,.29.07,29.14,29.14,0,0,1,4.38,3.9.38.38,0,0,1,.07.41l-6,14.38c-1.28,3.08-.2,7,2.32,8.29l12,6.33a.41.41,0,0,1,.2.4,37.8,37.8,0,0,1-1.41,6.1.39.39,0,0,1-.43.26L242,193.86a3.76,3.76,0,0,0-3,.74,6.21,6.21,0,0,0-2.27,4.37L235,216.52a.38.38,0,0,1-.31.33,23.69,23.69,0,0,1-3.69.44Zm-.71-1,.76.24a23.14,23.14,0,0,0,3.23-.37L236,198.89a6.94,6.94,0,0,1,2.57-4.9,4.52,4.52,0,0,1,3.57-.88l13.21,2.47a35.76,35.76,0,0,0,1.24-5.39L244.84,184h0c-2.9-1.53-4.12-5.78-2.67-9.27l5.88-14.15a28,28,0,0,0-3.79-3.39l-8,11.49a4.73,4.73,0,0,1-8.13,0l-7.26-10.45a30.48,30.48,0,0,0-3.76,4.15l5.13,12.35c1.45,3.49.23,7.74-2.67,9.27l-9.31,4.92a38.26,38.26,0,0,0,1.24,6.22l10.79-2a4.52,4.52,0,0,1,3.57.88,6.94,6.94,0,0,1,2.57,4.9Z"/><ellipse class="cls-16" cx="239.37" cy="184.61" rx="10.89" ry="13.78"/><path class="cls-12" d="M239.37,198.78c-6.21,0-11.26-6.36-11.26-14.17s5-14.16,11.26-14.16,11.27,6.35,11.27,14.16S245.59,198.78,239.37,198.78Zm0-27.57c-5.79,0-10.5,6-10.5,13.4s4.71,13.4,10.5,13.4,10.5-6,10.5-13.4S245.16,171.21,239.37,171.21Z"/><path class="cls-17" d="M239.11,155.47c-13.5,0-24.44,13-24.44,29s10.94,29,24.44,29,24.45-13,24.45-29S252.61,155.47,239.11,155.47Zm0,44.39c-7.18,0-13-6.9-13-15.42s5.83-15.42,13-15.42,13,6.9,13,15.42S246.3,199.86,239.11,199.86Z"/><path class="cls-18" d="M250.08,158.55l-4,12.84a12.1,12.1,0,0,0-2.94-1.63l5.44-12C249.06,158,249.58,158.25,250.08,158.55Zm-22.77,19.39a15.22,15.22,0,0,1,4.12-5.94l-7.38-10.37a28.13,28.13,0,0,0-5.34,6.85Zm20.86,17.56a13.44,13.44,0,0,1-2.72,2.41l8.59,9.46c.52-.48,1-1,1.52-1.5Zm-19.64-2.09a17,17,0,0,1-1.59-3.51l-11,3.89c.22.78.47,1.54.75,2.29Zm8.6,6.27a12,12,0,0,1-6.09-3.16l-5.44,12.06a22.55,22.55,0,0,0,7.49,3.94Zm25.66-22.49-11,3.9a18.38,18.38,0,0,1-.07,7.08l11.79-2.67c0-.35,0-.7,0-1.06A34.41,34.41,0,0,0,262.79,177.19Z"/><path class="cls-12" d="M239.11,213.79c-13.69,0-24.83-13.17-24.83-29.35s11.14-29.35,24.83-29.35,24.83,13.17,24.83,29.35S252.8,213.79,239.11,213.79Zm0-57.94c-13.27,0-24.06,12.83-24.06,28.59S225.84,213,239.11,213s24.06-12.83,24.06-28.59S252.38,155.85,239.11,155.85Zm0,44.39c-7.38,0-13.39-7.09-13.39-15.8s6-15.8,13.39-15.8,13.39,7.09,13.39,15.8S246.5,200.24,239.11,200.24Zm0-30.84c-7,0-12.63,6.75-12.63,15s5.67,15,12.63,15,12.63-6.75,12.63-15S246.07,169.4,239.11,169.4Z"/><path class="cls-19" d="M186,158.39c6.94-12.94,21.09-22.08,35.82-22.08h9.55a2.12,2.12,0,0,1,2.11,2.12h0a2.1,2.1,0,0,1-1.68,2.06c-5.7,1.19-24.34,6.15-31,21.43C192.88,180.06,181.83,166.11,186,158.39Z"/><path class="cls-2" d="M232.75,136.86h0c-12.31,2.63-23.65,5.85-30.53,14h0c-4.9,4.94-13,2.45-13,2.45s-3.28,3.67-4,7.46c-.56,2.93,7.35,3.3,11,3.32-.48,2.31-.69,4.18-1.13,5.7,1.94-1.23,3.93-3.71,5.76-7.91,6.65-15.28,25.29-20.24,31-21.43a2.1,2.1,0,0,0,1.68-2.06h0A2.12,2.12,0,0,0,232.75,136.86Z"/><path class="cls-2" d="M191.88,171.21a6.68,6.68,0,0,1-5.47-3.37,9.72,9.72,0,0,1-.78-9.63h0c7.15-13.33,21.68-22.28,36.16-22.28h9.55a2.5,2.5,0,0,1,.51,4.94c-5.54,1.15-24.13,6.08-30.72,21.21-3.12,7.17-6.5,8.91-8.78,9.11ZM186,158.39l.34.18c-1.58,2.94-.77,6.57.73,8.85,1.37,2.08,3.28,3.17,5.24,3s5.18-1.82,8.15-8.65c6.73-15.47,25.63-20.48,31.26-21.65a1.73,1.73,0,0,0-.35-3.42h-9.55c-14.21,0-28.47,8.79-35.48,21.87Z"/><path class="cls-3" d="M64.68,113.24l-.19.57-23.61,70-8.5-2.87L56,111l.19-.58a2.76,2.76,0,0,1,2.23-.73,8.35,8.35,0,0,1,2.6.46,8.54,8.54,0,0,1,2.36,1.19A2.71,2.71,0,0,1,64.68,113.24Z"/><path class="cls-4" d="M40.88,184.16l-.12,0-8.5-2.87a.41.41,0,0,1-.22-.19.41.41,0,0,1,0-.29l23.6-69.92.19-.58a.31.31,0,0,1,0-.1,3,3,0,0,1,2.54-.89A9.54,9.54,0,0,1,63.59,111a3,3,0,0,1,1.47,2.22.25.25,0,0,1,0,.12L41.24,183.9A.38.38,0,0,1,40.88,184.16Zm-8-3.49,7.77,2.62L64.3,113.18a2.52,2.52,0,0,0-1.17-1.54,8,8,0,0,0-2.25-1.14,8.23,8.23,0,0,0-2.49-.44,2.47,2.47,0,0,0-1.87.54l-.18.51Zm31.81-67.43h0Z"/><path class="cls-4" d="M29.8,111.17H43.92a2.86,2.86,0,0,0,2.85-2.86h0a2.85,2.85,0,0,0-2.85-2.85H29.8a2.85,2.85,0,0,0-2.86,2.85h0A2.86,2.86,0,0,0,29.8,111.17Z"/><path class="cls-13" d="M26.94,108.31s0,.08,0,.12H46.76a.49.49,0,0,0,0-.12,2.86,2.86,0,0,0-1.08-2.24H28A2.86,2.86,0,0,0,26.94,108.31Z"/><path class="cls-12" d="M43.92,111.55H29.8a3.24,3.24,0,0,1,0-6.48H43.92a3.24,3.24,0,0,1,0,6.48ZM29.8,105.84a2.47,2.47,0,0,0,0,4.94H43.92a2.47,2.47,0,1,0,0-4.94Z"/><path class="cls-8" d="M44.73,101.56H36.54c-2,0-6.4,1.63-6.4,5.62s2.33,6.93,7.51,6.93h6.51a1.61,1.61,0,0,0,.37,0,1.17,1.17,0,0,0-.45-2.3H43.9c-4,0-4.32-6.85,0-6.85h1.4l.38-1.2Z"/><path class="cls-10" d="M37.65,114.11h6.51a1.61,1.61,0,0,0,.37,0,1.17,1.17,0,0,0-.45-2.3H43.9a3.15,3.15,0,0,1-3.09-3H30.27C30.84,111.88,33.19,114.11,37.65,114.11Z"/><path class="cls-9" d="M44.16,114.5H37.65c-4.94,0-7.9-2.74-7.9-7.32,0-4.19,4.5-6,6.79-6H45a.39.39,0,0,1,0,.77H36.54c-1.77,0-6,1.5-6,5.23,0,4.16,2.6,6.55,7.13,6.55h6.51l.28,0a.71.71,0,0,0,.63-.8.89.89,0,0,0-1-.75h-.2a3.61,3.61,0,0,1-3.51-3.9,4,4,0,0,1,.86-2.54,3.3,3.3,0,0,1,2.65-1.18H45a.39.39,0,0,1,0,.77H43.9a2.58,2.58,0,0,0-2.06.89,3.21,3.21,0,0,0-.68,2.06,2.87,2.87,0,0,0,2.74,3.13h.17a1.64,1.64,0,0,1,1.76,1.4,1.49,1.49,0,0,1-1.22,1.66A2.38,2.38,0,0,1,44.16,114.5Z"/><path class="cls-19" d="M269,93.4v.74a11,11,0,0,1-6.31,10.1l-24.82,11.63,1.78-12.54Z"/><path class="cls-2" d="M237.86,116.25a.39.39,0,0,1-.23-.07.4.4,0,0,1-.15-.36l1.78-12.54a.4.4,0,0,1,.25-.31L268.86,93a.37.37,0,0,1,.34,0,.41.41,0,0,1,.17.31v.73a11.38,11.38,0,0,1-6.54,10.45L238,116.22A.41.41,0,0,1,237.86,116.25ZM240,103.62l-1.64,11.6,24.17-11.33a10.6,10.6,0,0,0,6.1-9.75v-.21Z"/><path class="cls-15" d="M241.38,175.61C227,169.18,189,153.07,168.61,159c-6.23,1.81-6.61,20.29-3.12,25.76,7.7,12.08,53.4,10.81,72.7,8.55,5.51-.65,10.84-2.79,11.7-7.28S245.3,177.37,241.38,175.61Z"/><path class="cls-4" d="M210.44,195.18c-19.51,0-40.23-2.33-45.27-10.24-2.71-4.24-3.06-15.36-.69-21.64,1-2.62,2.34-4.2,4-4.68,18-5.21,49.63,6.17,73,16.64h0c3.44,1.54,9.69,5.78,8.72,10.82-.76,4-5.15,6.78-12,7.59A251.83,251.83,0,0,1,210.44,195.18Zm-31.5-37.1a36.9,36.9,0,0,0-10.22,1.27c-1.42.41-2.64,1.87-3.53,4.22-2.26,6-1.93,17,.62,21,7.48,11.74,52.81,10.67,72.34,8.38,3.08-.37,10.37-1.77,11.36-7,.88-4.57-5-8.52-8.28-10h0C214.81,164.14,193.6,158.08,178.94,158.08Z"/><path class="cls-11" d="M244.23,177.28c-11.64-5.46-59.12-19.06-74.39-14.4-4.66,1.42-5,16-2.36,20.25,5.76,9.5,60.21,10.13,74.15,9.19,3.41-.23,10.45-2.8,11.09-6.33S247.4,178.77,244.23,177.28Z"/><path class="cls-4" d="M228.85,193c-7.9,0-17.78-.26-27.39-1-13.89-1.06-31.12-3.43-34.3-8.69-2.06-3.39-2.28-12.45-.43-17.3.75-1.95,1.76-3.14,3-3.52,15.57-4.75,63.05,9,74.67,14.42h0c1,.46,9.53,4.61,8.7,9.13-.68,3.69-7.79,6.4-11.44,6.65C238.83,192.89,234.32,193,228.85,193Zm-50.73-30.71a28.8,28.8,0,0,0-8.17.94c-1,.3-1.85,1.35-2.5,3.05-1.76,4.6-1.56,13.46.36,16.64,5.61,9.25,60.33,9.91,73.79,9,3.36-.22,10.15-2.74,10.75-6s-4.93-6.72-8.28-8.3h0c-5.58-2.61-20-7.35-35.76-11C195.82,163.78,185.48,162.31,178.12,162.31Z"/><path class="cls-3" d="M216.78,173.75c-8-3.76-40.73-13.13-51.26-9.92-3.21,1-3.42,11-1.62,14,4,6.54,41.48,7,51.08,6.33,2.35-.16,6.07-1.94,6.52-4.37S219,174.78,216.78,173.75Z"/><path class="cls-4" d="M206.61,184.69c-14.3,0-39.7-1.19-43-6.71-1.43-2.36-1.59-8.65-.3-12a3.73,3.73,0,0,1,2.14-2.49c10.76-3.29,43.52,6.18,51.53,9.93,2.18,1,5.44,3.67,4.93,6.42s-4.32,4.51-6.86,4.68C213.39,184.61,210.39,184.69,206.61,184.69Zm-35.43-21.13a19.38,19.38,0,0,0-5.54.64c-.82.25-1.35,1.24-1.65,2-1.3,3.4-1,9.38.24,11.36,3.65,6,39.12,6.93,50.73,6.15,2.18-.15,5.76-1.84,6.16-4.05s-2.39-4.6-4.51-5.59h0C210,171,184.73,163.56,171.18,163.56Z"/><polygon class="cls-2" points="70.98 203.13 95.42 203.13 92.71 179.98 73.89 150.64 58.45 136.31 41.69 136.31 53.41 149.66 68.83 179.98 70.98 203.13"/><path class="cls-2" d="M95.42,203.52H71a.39.39,0,0,1-.38-.35l-2.14-23.09L53.09,149.87,41.4,136.57a.39.39,0,0,1,.29-.64H58.45a.36.36,0,0,1,.26.11l15.44,14.32.06.08L93,179.77a.25.25,0,0,1,.06.16l2.71,23.16a.4.4,0,0,1-.09.3A.39.39,0,0,1,95.42,203.52Zm-24.09-.77H95l-2.65-22.64L73.59,150.89,58.3,136.7H42.53l11.16,12.7.06.08L69.17,179.8a.37.37,0,0,1,0,.14Z"/><path class="cls-20" d="M269.15,90.19h0a6.08,6.08,0,0,0-5.36-6.27c-5.94-.43-15.93-1-25.43-1-14.78,0-23.69,2-29.23,8.27h0c-1.92,0-3.07.93-4.3,2.54l-12.67,16-23.53,5.74,1.51,15.07h31.59s19.07-19.25,19.66-20.16,4-7.23,4-7.23l43.72-12.91Z"/><path class="cls-21" d="M216.14,86.12l10.62,1.67s24.6-1.14,30.4-2.13a19.28,19.28,0,0,0,5.12-1.85c-6-.42-15.18-.93-23.92-.93C228.66,82.88,221.49,83.75,216.14,86.12Z"/><path class="cls-19" d="M230.46,94.87l-5,8.23,43.72-12.91a6.58,6.58,0,0,0-1.58-4.32C266.09,88.92,230.46,94.87,230.46,94.87Z"/><path class="cls-2" d="M201.73,130.87H170.14a.38.38,0,0,1-.38-.34l-1.51-15.07a.38.38,0,0,1,.29-.41l23.4-5.71,12.59-15.89c1.2-1.56,2.42-2.62,4.42-2.68,5.37-6,13.64-8.27,29.41-8.27,9.27,0,19,.57,25.46,1a6.47,6.47,0,0,1,5.71,6.65.37.37,0,0,1-.28.36l-43.56,12.87c-.53,1-3.42,6.27-4,7.12S204,128.79,202,130.76A.41.41,0,0,1,201.73,130.87Zm-31.24-.76h31.08c7.64-7.71,19.05-19.31,19.5-20,.58-.88,4-7.14,4-7.2a.35.35,0,0,1,.23-.18L268.76,89.9a5.69,5.69,0,0,0-5-5.6c-6.49-.47-16.16-1-25.4-1-15.63,0-23.75,2.29-29,8.15a.37.37,0,0,1-.28.13c-1.8,0-2.87.91-4,2.38l-12.67,16a.46.46,0,0,1-.21.13l-23.2,5.66Zm98.66-39.92Z"/><path class="cls-20" d="M228.65,91.15h-.2s-1.43-5.28-5.21-5.28h-6.51a20.17,20.17,0,0,0-7.6,5.28,6.62,6.62,0,0,0-4.3,2.54l-12.67,16h29.23l4-6.58,5-8.23A2.41,2.41,0,0,0,228.65,91.15Z"/><path class="cls-2" d="M221.39,110.06H192.16a.39.39,0,0,1-.35-.21.4.4,0,0,1,.05-.41l12.67-16A7.18,7.18,0,0,1,209,90.78a20.73,20.73,0,0,1,7.63-5.27.39.39,0,0,1,.15,0h6.51c3.55,0,5.13,4.14,5.49,5.28a2.5,2.5,0,0,1,2.11,1.33,3,3,0,0,1-.05,3l-9.07,14.81A.39.39,0,0,1,221.39,110.06ZM193,109.3h28.23l9-14.63a2.17,2.17,0,0,0,0-2.19,1.72,1.72,0,0,0-1.52-.94h-.2a.39.39,0,0,1-.37-.29s-1.4-5-4.84-5h-6.43a19.73,19.73,0,0,0-7.4,5.16.37.37,0,0,1-.28.13,6.21,6.21,0,0,0-4,2.38Z"/><path class="cls-4" d="M210.84,96.67a2.89,2.89,0,0,1-2.66-3.54,4.15,4.15,0,0,1,.95-2,24.24,24.24,0,0,1,3.9-3.36h12c1,0,1,1.77,1.59,3.36s-.9,3.52-2,4.62a2.87,2.87,0,0,1-2.07.9Z"/><path class="cls-13" d="M222.54,89.17a2.62,2.62,0,0,0,1.8-.73l.67-.65H213s-.79.53-1.8,1.38Z"/><path class="cls-12" d="M222.56,97.05H210.84a3,3,0,0,1-2.34-1.15,3.37,3.37,0,0,1-.69-2.84,4.5,4.5,0,0,1,1-2.16,24.16,24.16,0,0,1,4-3.42.33.33,0,0,1,.21-.07h12c1,0,1.24,1,1.52,2.15A12,12,0,0,0,227,91c.67,1.72-.75,3.68-2.06,5A3.28,3.28,0,0,1,222.56,97.05Zm-9.41-8.87a23.66,23.66,0,0,0-3.74,3.23,3.79,3.79,0,0,0-.86,1.8,2.65,2.65,0,0,0,.54,2.21,2.28,2.28,0,0,0,1.75.87h11.72a2.48,2.48,0,0,0,1.79-.79c1-1,2.44-2.79,1.9-4.21a11.64,11.64,0,0,1-.46-1.55c-.25-1-.41-1.56-.78-1.56Z"/><path class="cls-4" d="M195.69,109.68l9.4-11a5.47,5.47,0,0,1,4.16-2h12.66a1.85,1.85,0,0,1,1.51,2.69l-4.8,10.32Z"/><path class="cls-13" d="M206,97.77a6,6,0,0,0-.93.88l-9.4,11h18.36l5.35-9.86a1.38,1.38,0,0,0-1.22-2Z"/><path class="cls-12" d="M218.62,110.06H195.69a.37.37,0,0,1-.35-.22.4.4,0,0,1,0-.41l9.41-11a5.86,5.86,0,0,1,4.45-2.11h12.66a2,2,0,0,1,1.71,1,2.38,2.38,0,0,1,.15,2.27L219,109.84A.38.38,0,0,1,218.62,110.06Zm-22.11-.76h21.87l4.69-10.1a1.62,1.62,0,0,0-.1-1.54,1.23,1.23,0,0,0-1.06-.61H209.25a5.09,5.09,0,0,0-3.87,1.85Z"/><path class="cls-20" d="M160.44,99.2H127.62a6.85,6.85,0,0,0-2,.33L92.45,110.22a6.8,6.8,0,0,0-4.33,4.26l-1.81,5.29,52.33,6.84h21.8Z"/><path class="cls-21" d="M127.62,99.2a6.85,6.85,0,0,0-2,.33L92.45,110.22a6.88,6.88,0,0,0-3.16,2.15h35.1l36.05-6.28V99.2Z"/><path class="cls-2" d="M160.44,127H138.6l-52.34-6.84A.39.39,0,0,1,86,120a.37.37,0,0,1,0-.32l1.81-5.3a7.19,7.19,0,0,1,4.57-4.49l33.13-10.69a7.3,7.3,0,0,1,2.12-.35h32.86a.38.38,0,0,1,.38.38v27.41A.38.38,0,0,1,160.44,127Zm-21.77-.76h21.39V99.58H127.63a6.6,6.6,0,0,0-1.93.31l-33.13,10.7a6.4,6.4,0,0,0-4.09,4l-1.65,4.85Z"/><path class="cls-19" d="M117,115.64H89.72l-11.23,1.64s4.39,7.48,5,7.3S117,115.64,117,115.64Z"/><path class="cls-2" d="M83.42,125c-.37,0-1.27-.71-5.26-7.49a.38.38,0,0,1,0-.36.37.37,0,0,1,.29-.22l11.23-1.64H117a.38.38,0,0,1,.1.75c-11.39,3-33.06,8.77-33.56,8.93A.49.49,0,0,1,83.42,125Zm-.1-.76Zm-4.21-6.63a51.55,51.55,0,0,0,4.35,6.59c2-.55,22.86-6.09,30.63-8.15H89.75Z"/><path class="cls-11" d="M39.64,155.47c-13.5,0-24.45,13-24.45,29s11,29,24.45,29,24.44-13,24.44-29S53.14,155.47,39.64,155.47Zm0,44.39c-7.19,0-13-6.9-13-15.42S32.45,169,39.64,169s13,6.9,13,15.42S46.82,199.86,39.64,199.86Z"/><path class="cls-12" d="M39.64,213.79c-13.69,0-24.83-13.17-24.83-29.35S26,155.09,39.64,155.09s24.82,13.17,24.82,29.35S53.33,213.79,39.64,213.79Zm0-57.94c-13.27,0-24.07,12.83-24.07,28.59S26.37,213,39.64,213,63.7,200.2,63.7,184.44,52.9,155.85,39.64,155.85Zm0,44.39c-7.39,0-13.4-7.09-13.4-15.8s6-15.8,13.4-15.8S53,175.73,53,184.44,47,200.24,39.64,200.24Zm0-30.84c-7,0-12.63,6.75-12.63,15s5.66,15,12.63,15,12.62-6.75,12.62-15S46.6,169.4,39.64,169.4Z"/><path class="cls-3" d="M54.82,220.7C65.13,213.25,72,199.8,72,184.44s-6.88-28.81-17.19-36.26v-3.33l10.86.12a42.63,42.63,0,0,0-20.76-5.79c-9.27,0-18.48,4.26-20.87,5.33C10.36,150.67.38,166.05.38,184.44c0,17.81,9.48,32.57,22.36,39.36,5.07,2.67,10.23,5.9,22.18,5.9,13.84,0,21-5.9,21-5.9H54.82ZM24.23,184.44C24.23,169,33,156.06,45,152.15c11.95,3.91,20.72,16.88,20.72,32.29S56.91,212.82,45,216.73C33,212.82,24.23,199.85,24.23,184.44Z"/><path class="cls-13" d="M44.92,139.18c-20,0-38.72,18-38.72,45.26S25,229.7,44.92,229.7c25.64,0,36.13-20.26,36.13-45.26S68.56,139.18,44.92,139.18Zm0,77.55c-12-3.91-20.73-16.88-20.73-32.29S33,156.06,45,152.15c11.95,3.91,20.72,16.88,20.72,32.29S56.91,212.82,45,216.73Z"/><path class="cls-12" d="M44.92,230.08c-11.22,0-16.58-2.86-21.31-5.39l-1.05-.56A41.21,41.21,0,0,1,6.4,208.45a48.47,48.47,0,0,1,.36-48.76,38.82,38.82,0,0,1,17.13-15.52l.19-.09c7.77-3.5,14.78-5.28,20.84-5.28a43.45,43.45,0,0,1,21,5.85.38.38,0,0,1,.16.43.39.39,0,0,1-.37.27h0l-10.47-.11V148c10.76,7.87,17.18,21.48,17.18,36.45S66,213,55.21,220.89v2.52H65.92a.37.37,0,0,1,.36.26.37.37,0,0,1-.11.42C65.87,224.34,58.74,230.08,44.92,230.08Zm0-90.52c-6,0-12.85,1.76-20.53,5.22l-.19.08C10,151.27.77,166.8.77,184.44c0,16.61,8.69,31.92,22.15,39l1,.56c4.65,2.48,9.92,5.3,21,5.3,10.7,0,17.42-3.61,19.8-5.14h-9.9a.38.38,0,0,1-.38-.38v-3.1a.38.38,0,0,1,.16-.31c10.66-7.71,17-21.15,17-35.95s-6.37-28.24-17-35.95a.38.38,0,0,1-.16-.31v-3.33a.39.39,0,0,1,.11-.27.41.41,0,0,1,.28-.11l9.38.1A42.76,42.76,0,0,0,44.92,139.56Zm0,77.55h-.11c-12.36-4-21-17.48-21-32.66s8.64-28.61,21-32.66a.45.45,0,0,1,.23,0c12.36,4.05,21,17.48,21,32.66s-8.64,28.61-21,32.66Zm0-64.56c-12,4-20.34,17.08-20.34,31.89S33,212.34,45,216.33c12-4,20.35-17.08,20.35-31.89S56.94,156.54,45,152.55Z"/><path class="cls-4" d="M52.49,142c-19.78,0-35.81,19-35.81,42.44s16,42.44,35.81,42.44,35.82-19,35.82-42.44S72.27,142,52.49,142ZM45,216.73c-12-3.91-20.73-16.88-20.73-32.29S33,156.06,45,152.15c11.95,3.91,20.72,16.88,20.72,32.29S56.91,212.82,45,216.73Z"/><path class="cls-12" d="M52.49,227.27c-20,0-36.2-19.22-36.2-42.83s16.24-42.83,36.2-42.83,36.2,19.21,36.2,42.83S72.45,227.27,52.49,227.27Zm0-84.89c-19.54,0-35.43,18.87-35.43,42.06S33,226.5,52.49,226.5s35.43-18.87,35.43-42.06S72,142.38,52.49,142.38ZM45,217.11h-.11c-12.36-4-21-17.48-21-32.66s8.64-28.61,21-32.66a.45.45,0,0,1,.23,0c12.36,4.05,21,17.48,21,32.66s-8.64,28.61-21,32.66Zm0-64.56c-12,4-20.34,17.08-20.34,31.89S33,212.34,45,216.33c12-4,20.35-17.08,20.35-31.89S56.94,156.54,45,152.55Z"/><path class="cls-14" d="M52.49,148.34c-16.82,0-30.46,16.17-30.46,36.1s13.64,36.09,30.46,36.09S83,204.37,83,184.44,69.31,148.34,52.49,148.34ZM45,216.73c-12-3.91-20.73-16.88-20.73-32.29S33,156.06,45,152.15c11.95,3.91,20.72,16.88,20.72,32.29S56.91,212.82,45,216.73Z"/><path class="cls-15" d="M52.49,150.94A23.94,23.94,0,0,0,45,152.15c11.95,3.91,20.72,16.88,20.72,32.29S56.91,212.82,45,216.73a23.94,23.94,0,0,0,7.53,1.21c15.61,0,28.27-15,28.27-33.5S68.1,150.94,52.49,150.94Z"/><path class="cls-12" d="M52.49,218.32a24.63,24.63,0,0,1-7.65-1.22.4.4,0,0,1-.27-.37.38.38,0,0,1,.27-.36c12-3.94,20.46-17.07,20.46-31.93s-8.41-28-20.46-31.93a.38.38,0,0,1-.27-.36.4.4,0,0,1,.27-.37,24.63,24.63,0,0,1,7.65-1.22c15.8,0,28.65,15.2,28.65,33.88S68.29,218.32,52.49,218.32Zm-6.3-1.62a23.58,23.58,0,0,0,6.3.86c15.38,0,27.89-14.86,27.89-33.12s-12.51-33.12-27.89-33.12a23.58,23.58,0,0,0-6.3.86c11.76,4.46,19.88,17.54,19.88,32.26S58,212.24,46.19,216.7Z"/><path class="cls-12" d="M52.49,220.92c-17,0-30.84-16.37-30.84-36.48S35.49,148,52.49,148s30.84,16.37,30.84,36.48S69.5,220.92,52.49,220.92Zm0-72.19c-16.58,0-30.07,16-30.07,35.71s13.49,35.71,30.07,35.71,30.08-16,30.08-35.71S69.08,148.73,52.49,148.73ZM45,217.11h-.11c-12.36-4-21-17.48-21-32.66s8.64-28.61,21-32.66a.45.45,0,0,1,.23,0c12.36,4.05,21,17.48,21,32.66s-8.64,28.61-21,32.66Zm0-64.56c-12,4-20.34,17.08-20.34,31.89S33,212.34,45,216.33c12-4,20.35-17.08,20.35-31.89S56.94,156.54,45,152.55Z"/><ellipse class="cls-4" cx="39.64" cy="184.61" rx="10.89" ry="13.78"/><path class="cls-12" d="M39.64,198.78c-6.22,0-11.27-6.36-11.27-14.17s5.05-14.16,11.27-14.16S50.9,176.8,50.9,184.61,45.85,198.78,39.64,198.78Zm0-27.57c-5.79,0-10.51,6-10.51,13.4S33.85,198,39.64,198s10.5-6,10.5-13.4S45.43,171.21,39.64,171.21Z"/><path class="cls-13" d="M57.42,183.42c-2.88-1.53-4.11-5.84-2.66-9.34l6.43-15.46a26.48,26.48,0,0,0-4.93-3.56l-8.47,12.19a4.63,4.63,0,0,1-8,0L34.09,159a32.93,32.93,0,0,0-4.86,6.39l3.61,8.68c1.45,3.5.22,7.81-2.65,9.34l-5.91,3.12a39,39,0,0,0,1.46,8.76l7.61-1.42c2.94-.55,5.66,2.06,6,5.79L41,215a24.75,24.75,0,0,0,4.56,1.88q.46,0,.93-.06l1.76-17.18c.38-3.73,3.11-6.34,6-5.79l15.66,2.92a37,37,0,0,0,1.53-6Z"/><path class="cls-12" d="M45.52,217.29h-.11a25.72,25.72,0,0,1-4.62-1.91.39.39,0,0,1-.21-.3L39,199.7A6.58,6.58,0,0,0,36.59,195a4,4,0,0,0-3.17-.79l-7.61,1.42a.37.37,0,0,1-.43-.27,39.47,39.47,0,0,1-1.48-8.84.38.38,0,0,1,.2-.36L30,183.08c2.69-1.42,3.84-5.56,2.48-8.85l-3.61-8.68a.37.37,0,0,1,0-.34,32.6,32.6,0,0,1,4.92-6.46.39.39,0,0,1,.3-.12.35.35,0,0,1,.28.17L40.13,167a4.24,4.24,0,0,0,7.34,0L56,154.84a.39.39,0,0,1,.5-.12,27.79,27.79,0,0,1,5,3.61.38.38,0,0,1,.09.43l-6.42,15.47c-1.37,3.29-.21,7.43,2.48,8.85h0l14,7.41a.38.38,0,0,1,.2.4,36.38,36.38,0,0,1-1.54,6,.38.38,0,0,1-.43.25l-15.66-2.93A4,4,0,0,0,51,195a6.58,6.58,0,0,0-2.42,4.66l-1.76,17.19a.37.37,0,0,1-.35.34c-.31,0-.63.05-.94.06Zm-4.2-2.5a25.14,25.14,0,0,0,4.25,1.74l.53,0,1.73-16.87a7.37,7.37,0,0,1,2.72-5.2,4.82,4.82,0,0,1,3.77-.93l15.34,2.87A37.14,37.14,0,0,0,71,191l-13.77-7.29c-3.07-1.62-4.37-6.12-2.83-9.82l6.32-15.21a27.37,27.37,0,0,0-4.35-3.16L48.1,167.47a5.3,5.3,0,0,1-4.3,2.44h0a5.3,5.3,0,0,1-4.3-2.44L34,159.61a32.6,32.6,0,0,0-4.38,5.82l3.53,8.5c1.54,3.7.24,8.2-2.83,9.82l-5.68,3a38.29,38.29,0,0,0,1.34,8.1l7.26-1.36a4.82,4.82,0,0,1,3.77.93,7.34,7.34,0,0,1,2.72,5.2Z"/><path class="cls-4" d="M59.6,183.65c-2.71-1.43-3.86-5.49-2.5-8.78l6-14.38a28.56,28.56,0,0,0-4.33-3.85l-8.21,11.81a4.35,4.35,0,0,1-7.5,0l-7.51-10.81a30.75,30.75,0,0,0-4.26,4.68l5.21,12.55c1.37,3.29.21,7.35-2.49,8.78l-9.54,5a38.46,38.46,0,0,0,1.38,6.88L37,193.49c2.76-.52,5.32,1.94,5.68,5.44l1.81,17.63,1.06.35a24.16,24.16,0,0,0,3.63-.43l1.8-17.55c.36-3.5,2.92-6,5.68-5.44L70.17,196a38,38,0,0,0,1.4-6Z"/><path class="cls-12" d="M45.51,217.29a.23.23,0,0,1-.11,0c-.34-.1-.69-.21-1.08-.35a.37.37,0,0,1-.25-.32L42.26,199A6.2,6.2,0,0,0,40,194.6a3.77,3.77,0,0,0-3-.74L25.9,196a.38.38,0,0,1-.44-.27,38.72,38.72,0,0,1-1.39-7,.36.36,0,0,1,.2-.37l9.54-5.05c2.52-1.33,3.6-5.21,2.32-8.29l-5.22-12.55a.4.4,0,0,1,.05-.38,31,31,0,0,1,4.32-4.73.37.37,0,0,1,.3-.1.37.37,0,0,1,.26.16l7.52,10.81a4,4,0,0,0,6.87,0l8.2-11.81a.42.42,0,0,1,.25-.16.41.41,0,0,1,.29.07,28.73,28.73,0,0,1,4.39,3.9.38.38,0,0,1,.07.41l-6,14.38c-1.28,3.08-.19,7,2.32,8.29l12,6.33a.41.41,0,0,1,.2.4,38.89,38.89,0,0,1-1.41,6.1.4.4,0,0,1-.44.26l-13.55-2.54a3.78,3.78,0,0,0-3,.74A6.2,6.2,0,0,0,51.32,199l-1.8,17.55a.37.37,0,0,1-.3.33,23.69,23.69,0,0,1-3.69.44Zm-.71-1,.76.24a23,23,0,0,0,3.23-.37l1.77-17.26a6.9,6.9,0,0,1,2.57-4.9,4.5,4.5,0,0,1,3.56-.88l13.22,2.47a37,37,0,0,0,1.24-5.39L59.42,184h0c-2.9-1.53-4.12-5.78-2.67-9.27l5.88-14.15a28,28,0,0,0-3.79-3.39l-8,11.49a4.73,4.73,0,0,1-8.13,0l-7.27-10.45a31.15,31.15,0,0,0-3.76,4.15l5.14,12.35c1.44,3.49.22,7.74-2.67,9.27l-9.31,4.92a38.26,38.26,0,0,0,1.24,6.22l10.79-2a4.53,4.53,0,0,1,3.57.88,6.93,6.93,0,0,1,2.56,4.9Z"/><ellipse class="cls-16" cx="53.95" cy="184.61" rx="10.88" ry="13.78"/><path class="cls-12" d="M54,198.78c-6.21,0-11.27-6.36-11.27-14.17S47.74,170.45,54,170.45s11.27,6.35,11.27,14.16S60.16,198.78,54,198.78Zm0-27.57c-5.79,0-10.5,6-10.5,13.4S48.16,198,54,198s10.5-6,10.5-13.4S59.74,171.21,54,171.21Z"/><path class="cls-17" d="M53.69,155.47c-13.5,0-24.45,13-24.45,29s11,29,24.45,29,24.44-13,24.44-29S67.19,155.47,53.69,155.47Zm0,44.39c-7.19,0-13-6.9-13-15.42S46.5,169,53.69,169s13,6.9,13,15.42S60.87,199.86,53.69,199.86Z"/><path class="cls-18" d="M64.66,158.55l-4,12.84a12.29,12.29,0,0,0-2.94-1.63l5.44-12C63.64,158,64.15,158.25,64.66,158.55ZM41.89,177.94A15.11,15.11,0,0,1,46,172l-7.39-10.37a28.09,28.09,0,0,0-5.33,6.85ZM62.75,195.5A13.49,13.49,0,0,1,60,197.91l8.6,9.46c.52-.48,1-1,1.51-1.5Zm-19.64-2.09a16.44,16.44,0,0,1-1.59-3.51l-11,3.89c.23.78.47,1.54.75,2.29Zm8.6,6.27a12,12,0,0,1-6.1-3.16l-5.43,12.06a22.61,22.61,0,0,0,7.48,3.94Zm25.65-22.49-11,3.9a18.14,18.14,0,0,1-.08,7.08l11.8-2.67c0-.35,0-.7,0-1.06A34.41,34.41,0,0,0,77.36,177.19Z"/><path class="cls-12" d="M53.69,213.79c-13.69,0-24.83-13.17-24.83-29.35S40,155.09,53.69,155.09s24.83,13.17,24.83,29.35S67.38,213.79,53.69,213.79Zm0-57.94c-13.27,0-24.06,12.83-24.06,28.59S40.42,213,53.69,213s24.06-12.83,24.06-28.59S67,155.85,53.69,155.85Zm0,44.39c-7.39,0-13.39-7.09-13.39-15.8s6-15.8,13.39-15.8,13.39,7.09,13.39,15.8S61.07,200.24,53.69,200.24Zm0-30.84c-7,0-12.63,6.75-12.63,15s5.67,15,12.63,15,12.63-6.75,12.63-15S60.65,169.4,53.69,169.4Z"/><path class="cls-20" d="M55.82,172.65c2-7.85-7.55-16.49-12-20.17a9.44,9.44,0,0,0-6.06-2.14H13.62a1.29,1.29,0,0,1-1-2.2C23.11,138,39,136.86,51.15,136.86c12.95,0,30.51,10.78,30.51,18.59-2.59,4.32-13,10.51-15.26,16.17S55.82,172.65,55.82,172.65Z"/><path class="cls-19" d="M48.53,156.76c4.26,4.31,8.68,10.3,7.29,15.89,0,0,8.28,4.63,10.58-1s12.67-11.85,15.26-16.17c0-5.1-7.49-11.46-16.29-15.27l-2.1.61S55.09,154.51,48.53,156.76Z"/><path class="cls-21" d="M39.64,147.69c3.31,0,9.08-4.51,12.85-5.69s3.46-2.82-2.18-2.82-17.92-.36-22.07.33a37.33,37.33,0,0,0-15.12,8.18Z"/><path class="cls-2" d="M62,174.82A15.18,15.18,0,0,1,55.63,173a.38.38,0,0,1-.18-.42c1.33-5.37-2.76-12.21-11.84-19.78a9.07,9.07,0,0,0-5.82-2.06H13.62A1.77,1.77,0,0,1,12,149.64a1.59,1.59,0,0,1,.39-1.77c10.48-10.09,26.23-11.39,38.79-11.39,6.13,0,13.73,2.4,20.31,6.42S82,151.64,82,155.45a.46.46,0,0,1-.05.2c-1.15,1.9-3.73,4.13-6.46,6.49-3.51,3-7.49,6.48-8.77,9.63A4.58,4.58,0,0,1,64,174.5,6.24,6.24,0,0,1,62,174.82Zm-5.71-2.37c1,.51,4.79,2.27,7.48,1.33a3.86,3.86,0,0,0,2.31-2.3c1.35-3.32,5.4-6.82,9-9.91,2.64-2.29,5.13-4.44,6.24-6.22-.15-7.65-17.51-18.1-30.12-18.1-12.41,0-28,1.27-38.26,11.17a.84.84,0,0,0-.21.93,1,1,0,0,0,.94.6H37.79a9.86,9.86,0,0,1,6.31,2.24C53.26,159.83,57.46,166.83,56.26,172.45Z"/><path class="cls-4" d="M61.33,183.78l-8.49-2.87L82.72,92.34a4.48,4.48,0,0,1,5.68-2.81h0a4.47,4.47,0,0,1,2.82,5.67Z"/><path class="cls-12" d="M61.33,184.16l-.12,0-8.49-2.87a.35.35,0,0,1-.22-.19.33.33,0,0,1,0-.29L82.36,92.22a4.87,4.87,0,1,1,9.22,3.11L61.69,183.9A.38.38,0,0,1,61.33,184.16Zm-8-3.49,7.77,2.62L90.85,95.08a4.09,4.09,0,0,0-2.57-5.19,4.1,4.1,0,0,0-5.19,2.57Z"/><path class="cls-4" d="M88,108.94l-1.41,4.18c-.48,1.41-3.33,1.73-6.37.71s-5.11-3-4.63-4.42L77,105.23c.48-1.42,3.33-1.73,6.36-.71S88.46,107.53,88,108.94Z"/><path class="cls-12" d="M83.57,114.81a11.1,11.1,0,0,1-3.49-.62A10.57,10.57,0,0,1,76.3,112c-1-.94-1.38-1.92-1.09-2.75l1.41-4.19c.55-1.63,3.56-2,6.84-.94a10.25,10.25,0,0,1,3.78,2.15c1,.94,1.38,1.92,1.1,2.75h0l-1.41,4.18C86.59,114.26,85.29,114.81,83.57,114.81ZM80,104.31c-1.43,0-2.44.41-2.65,1l-1.41,4.18c-.18.53.15,1.24.9,2a9.79,9.79,0,0,0,3.49,2c3,1,5.54.58,5.89-.46l1.41-4.18h0c.18-.53-.15-1.24-.9-2a9.62,9.62,0,0,0-3.5-2A10.29,10.29,0,0,0,80,104.31Z"/><path class="cls-4" d="M86.57,113.12c-.48,1.41-3.33,1.73-6.37.71s-5.11-3-4.63-4.42c.29-.86,1.46-1.32,3-1.31A11.49,11.49,0,0,1,85,110.25C86.2,111.19,86.86,112.26,86.57,113.12Z"/><path class="cls-12" d="M83.57,114.81a11.1,11.1,0,0,1-3.49-.62A10.57,10.57,0,0,1,76.3,112c-1-.94-1.38-1.92-1.09-2.75.34-1,1.57-1.58,3.39-1.57a11.34,11.34,0,0,1,3.45.62,11.23,11.23,0,0,1,3.13,1.6c1.45,1.09,2.09,2.3,1.75,3.3h0C86.59,114.26,85.29,114.81,83.57,114.81Zm-5-6.32c-1.39,0-2.39.39-2.61,1s.15,1.24.9,2a9.79,9.79,0,0,0,3.49,2c3,1,5.54.58,5.89-.46.22-.66-.35-1.59-1.49-2.45a10.46,10.46,0,0,0-2.91-1.48,10.12,10.12,0,0,0-3.22-.58Zm8,4.63Z"/><path class="cls-19" d="M85.14,113.24l-.2.57-23.61,70-8.49-2.87L76.43,111l.2-.58a2.72,2.72,0,0,1,2.22-.73,8.41,8.41,0,0,1,2.61.46,8.83,8.83,0,0,1,2.36,1.19A2.74,2.74,0,0,1,85.14,113.24Z"/><polygon class="cls-20" points="67.49 142 54.93 179.11 58.45 179.11 70.3 143.53 67.49 142"/><path class="cls-2" d="M61.33,184.16l-.12,0-8.49-2.87a.35.35,0,0,1-.22-.19.33.33,0,0,1,0-.29l23.59-69.92.2-.58a.31.31,0,0,1,0-.1,3,3,0,0,1,2.53-.89A9.47,9.47,0,0,1,84,111a3,3,0,0,1,1.48,2.22.5.5,0,0,1,0,.12l-.19.57-23.62,70A.38.38,0,0,1,61.33,184.16Zm-8-3.49,7.77,2.62,23.66-70.11a2.53,2.53,0,0,0-1.16-1.54,8.69,8.69,0,0,0-4.74-1.58,2.48,2.48,0,0,0-1.88.54l-.18.51Zm31.82-67.43Z"/><path class="cls-19" d="M54,179.11c-2.06,0-3.73,2.41-3.73,5.38S52,189.86,54,189.86h5.5V179.11Z"/><path class="cls-2" d="M59.54,190.24H54c-2.27,0-4.11-2.58-4.11-5.75s1.84-5.76,4.11-5.76h5.5a.38.38,0,0,1,.39.38v10.75A.38.38,0,0,1,59.54,190.24ZM54,179.5c-1.84,0-3.34,2.23-3.34,5s1.5,5,3.34,5h5.12v-10Z"/><path class="cls-19" d="M63.27,184.49c0-3-1.67-5.38-3.73-5.38s-3.72,2.41-3.72,5.38,1.67,5.37,3.72,5.37S63.27,187.45,63.27,184.49Z"/><path class="cls-2" d="M59.54,190.24c-2.26,0-4.1-2.58-4.1-5.75s1.84-5.76,4.1-5.76,4.11,2.58,4.11,5.76S61.81,190.24,59.54,190.24Zm0-10.74c-1.84,0-3.34,2.23-3.34,5s1.5,5,3.34,5,3.35-2.23,3.35-5S61.39,179.5,59.54,179.5Z"/><path class="cls-19" d="M62.14,184.49c0-2.08-1.16-3.75-2.6-3.75S57,182.41,57,184.49s1.16,3.74,2.59,3.74S62.14,186.56,62.14,184.49Z"/><path class="cls-2" d="M59.54,188.62c-1.64,0-3-1.86-3-4.13s1.34-4.14,3-4.14,3,1.86,3,4.14S61.19,188.62,59.54,188.62Zm0-7.5c-1.22,0-2.21,1.51-2.21,3.37s1,3.36,2.21,3.36,2.22-1.51,2.22-3.36S60.77,181.12,59.54,181.12Z"/><path class="cls-4" d="M61,184.49c0-1.15-.64-2.07-1.44-2.07s-1.43.92-1.43,2.07.64,2.06,1.43,2.06S61,185.63,61,184.49Z"/><path class="cls-12" d="M59.54,186.94c-1,0-1.81-1.08-1.81-2.45s.8-2.46,1.81-2.46,1.82,1.08,1.82,2.46S60.56,186.94,59.54,186.94Zm0-4.14c-.57,0-1,.77-1,1.69s.48,1.68,1,1.68,1.06-.77,1.06-1.68S60.11,182.8,59.54,182.8Z"/><path class="cls-20" d="M176.4,127.18h9a3.7,3.7,0,0,0,2.88-1.43l1.61-2a8.7,8.7,0,0,1,3.52-2.66l28-11.38,4-6.58,45.3-13.38a1.35,1.35,0,0,1,1.67,1.4h0a1.46,1.46,0,0,1-.79,1.33l-21.44,10.26a15.67,15.67,0,0,0-7.72,8.15l-1,2.29a13.81,13.81,0,0,1-7.86,7.63c-6.66,2.52-17.64,6.7-23.59,9a10.51,10.51,0,0,0-5.95,5.94h0L178.55,150.9l-9.92-14.71Z"/><path class="cls-21" d="M193.39,121.06a8.7,8.7,0,0,0-3.52,2.66l-1.61,2a3.7,3.7,0,0,1-2.88,1.43H183l1.55,3.31h.93a9.85,9.85,0,0,0,8.45-4.78h0a9.87,9.87,0,0,1,4.88-4.11l24.05-9.34a2.5,2.5,0,0,0,1.21-1l2.8-4.42a2.5,2.5,0,0,0-1.42-3.75h0l-4,6.58Z"/><path class="cls-19" d="M272.4,91.12a1.52,1.52,0,0,0-.17-.71l-23.68,10.52a12.83,12.83,0,0,0-5.41,4.51l-4.71,6.93a14.56,14.56,0,0,1-7,5.48l-23.11,8.68a6.08,6.08,0,0,0-2.81,2.17l-1.77,2.52a9.56,9.56,0,0,1-3.94,3.24l-12.33,5.48-3.51-4,.74-7.72s.06-.38.17-1H176.4l-7.77,9,9.92,14.71,25.54-15.15h0a10.51,10.51,0,0,1,5.95-5.94c6-2.33,16.93-6.51,23.59-9a13.83,13.83,0,0,0,7.86-7.62l1-2.3a15.67,15.67,0,0,1,7.72-8.15l21.44-10.26A1.46,1.46,0,0,0,272.4,91.12Z"/><path class="cls-2" d="M178.55,151.28a.37.37,0,0,1-.32-.17l-9.91-14.71a.38.38,0,0,1,0-.46l7.77-9a.39.39,0,0,1,.29-.13h9a3.33,3.33,0,0,0,2.58-1.29l1.61-2a9.1,9.1,0,0,1,3.68-2.79l27.88-11.33,4-6.47a.36.36,0,0,1,.22-.16l45.3-13.39a1.63,1.63,0,0,1,1.43.26,1.9,1.9,0,0,1,.74,1.51,1.85,1.85,0,0,1-1,1.68l-21.44,10.26A15.28,15.28,0,0,0,242.8,111l-1,2.3a14.26,14.26,0,0,1-8.08,7.83c-6.22,2.36-17.54,6.67-23.59,9a10.16,10.16,0,0,0-5.74,5.72.42.42,0,0,1-.16.19l-25.54,15.15A.45.45,0,0,1,178.55,151.28Zm-9.44-15.06,9.55,14.16,25.12-14.89a10.89,10.89,0,0,1,6.12-6c6-2.38,17.38-6.68,23.6-9a13.51,13.51,0,0,0,7.64-7.41l1-2.3a16.06,16.06,0,0,1,7.91-8.34l21.44-10.26a1.09,1.09,0,0,0,.58-1,1.12,1.12,0,0,0-.42-.89.84.84,0,0,0-.76-.14l-45.16,13.34-4,6.45a.38.38,0,0,1-.18.15l-28,11.38a8.45,8.45,0,0,0-3.37,2.55l-1.6,2a4.09,4.09,0,0,1-3.18,1.58h-8.8Z"/><path class="cls-4" d="M192.16,109.68h27.06a.43.43,0,0,1,.16.82l-26,10.56a8.7,8.7,0,0,0-3.52,2.66l-1.61,2a3.7,3.7,0,0,1-2.88,1.43h-9l-4.75-12.5Z"/><path class="cls-12" d="M185.38,127.57h-9a.39.39,0,0,1-.36-.25l-4.75-12.5a.4.4,0,0,1,0-.32.41.41,0,0,1,.25-.19l20.51-5h27.15a.81.81,0,0,1,.31,1.55l-26,10.56a8.45,8.45,0,0,0-3.37,2.55l-1.6,2A4.09,4.09,0,0,1,185.38,127.57Zm-8.72-.77h8.72a3.33,3.33,0,0,0,2.58-1.29l1.61-2a9.1,9.1,0,0,1,3.68-2.79l26-10.56s0,0,0,0,0,0,0,0h-27l-20,4.89Z"/><path class="cls-22" d="M166.55,98.09c6.79,8.09,13.14,17,19.76,17,8.12,0,10.27,0,15.78,0s16.54,1.74,10.81-16.37a54.22,54.22,0,0,0-5.32-11.63c-.76,7-11,11-23.92,11Z"/><path class="cls-23" d="M186.31,115.51c-5.93,0-11.5-6.78-17.39-14-.87-1-1.77-2.15-2.66-3.21a.38.38,0,0,1-.06-.41.39.39,0,0,1,.35-.22h17.11C197,97.71,206.5,93.42,207.2,87a.38.38,0,0,1,.71-.15,54.66,54.66,0,0,1,5.22,11.29.38.38,0,0,1-.72.24,53.77,53.77,0,0,0-4.63-10.25c-1.56,6.3-10.83,10.31-24.12,10.31H167.37c.72.86,1.44,1.74,2.14,2.59,5.77,7,11.23,13.67,16.8,13.67l9.51,0,6.27,0,1.36,0c3.08.07,6.9.15,9-2.21,1.41-1.56,1.91-4.08,1.49-7.49a.38.38,0,1,1,.75-.09c.46,3.69-.09,6.34-1.68,8.1-2.37,2.62-6.56,2.52-9.62,2.45l-1.34,0-6.27,0C193.45,115.49,190.76,115.51,186.31,115.51Z"/><polygon class="cls-22" points="171.05 102.61 157 108.06 160.69 120.08 185.68 118.31 186.01 103.09 171.05 102.61"/><path class="cls-23" d="M178.25,109.13h-.07c-1.7-.31-6.64-4.79-7.79-5.85l-5.87,2.53a.4.4,0,0,1-.51-.2.39.39,0,0,1,.21-.51l6.09-2.62a.38.38,0,0,1,.41.07c2.39,2.22,6.39,5.6,7.6,5.82a.38.38,0,0,1-.07.76Z"/><path class="cls-5" d="M183.47,98c12.72,0,22.87-3.8,24.43-10.39-10.62-18.08-30-30-35.27-32.76-6.31-3.28-14-4.87-30.18-4.87-8.73,0-16.77,2.72-22.55,4.39,0,26.43,9.86,31,28.56,31,6.57,0,12.44,6,18,12.64Z"/><path class="cls-6" d="M171.64,54.38C174.4,55.86,174,70.69,174,70.69c-6.46-3.14-12-.76-13.78,4,.13-1.78,0-5.78,0-5.78s-1.69,8.31-21,8.31c-16.14,0-18.41-11-18.41-11L118.9,54.42S133.55,50,142.45,50C160.18,50,168.36,52.62,171.64,54.38Z"/><path class="cls-7" d="M129.37,51.88l.44,3.12a9.43,9.43,0,0,0,10.64,8.18h0c5.13-.77,8.57-4.81,7.38-10.21l-1-3c-1.69-.05-2.27,0-4.2,0A53.62,53.62,0,0,0,129.37,51.88Z"/><path class="cls-7" d="M183.47,98.39h-17a.39.39,0,0,1-.3-.14c-5.09-6-11.07-12.5-17.72-12.5-16,0-25.77-3.42-28.29-20.87a.39.39,0,0,1,.33-.44.38.38,0,0,1,.43.33c1.18,8.18,4,13.42,8.75,16.47,4.12,2.62,9.73,3.75,18.78,3.75,6.92,0,13,6.49,18.19,12.64h16.82c13.05,0,22.45-3.9,24-9.95-9.61-16.27-27.11-28.35-35-32.48-6.76-3.52-14.89-4.83-30-4.83-7.67,0-14.72,2.09-20.38,3.77l-2.07.61a.38.38,0,0,1-.21-.74l2.06-.61c5.71-1.69,12.81-3.79,20.6-3.79,15.24,0,23.47,1.33,30.36,4.91,8,4.18,25.73,16.42,35.42,32.91a.34.34,0,0,1,0,.28C206.73,94.2,197,98.39,183.47,98.39Z"/><path class="cls-17" d="M280.84,145.82l-10.6,10.47a4.15,4.15,0,0,1-1.44,1.05l-2.45,1-9.87-23.13,2.44-1a4,4,0,0,1,1.76-.32l14.85-.51s4.12-.07,6.16,4.73S280.84,145.82,280.84,145.82Z"/><path class="cls-11" d="M262.67,149.76l3.68,8.62,2.45-1a4.15,4.15,0,0,0,1.44-1.05l10.6-10.47s2.9-2.92.85-7.71l-9.84,7.77Z"/><path class="cls-4" d="M266.35,158.76a.38.38,0,0,1-.35-.23l-9.87-23.13a.37.37,0,0,1,0-.29.35.35,0,0,1,.2-.21l2.44-1.05a4.55,4.55,0,0,1,1.92-.35l14.83-.5c.18,0,4.4,0,6.52,5s-.8,8-.93,8.13h0l-10.6,10.47a4.45,4.45,0,0,1-1.56,1.13l-2.45,1A.4.4,0,0,1,266.35,158.76ZM257,135.45l9.57,22.43,2.1-.9A3.68,3.68,0,0,0,270,156l10.62-10.49c.13-.13,2.68-2.83.77-7.29s-5.77-4.5-5.8-4.49l-14.85.5a3.83,3.83,0,0,0-1.62.29Zm23.86,10.37h0Zm0,0h0Z"/><path class="cls-17" d="M270.87,142.78c2.72,6.38,1.05,13.22-3.75,15.27L222,177.27c-4.78,2-21,2.87-23.69-3.51s9-17.58,13.82-19.62l45.12-19.22C262.05,132.87,268.14,136.4,270.87,142.78Z"/><path class="cls-11" d="M222,177.27l45.12-19.22c4-1.72,5.85-6.81,4.73-12.17h0l-45.11,19.06a74.73,74.73,0,0,1-18.13,4.2l-10.56,3.8a6,6,0,0,0,.26.82C201,180.14,217.22,179.31,222,177.27Z"/><path class="cls-4" d="M211.85,179.11c-5.9,0-12.21-1.27-13.89-5.2C195,167,207.5,155.7,212,153.79l45.12-19.22a8.76,8.76,0,0,1,7.93.79,16.06,16.06,0,0,1,7.16,16.77,8.75,8.75,0,0,1-4.92,6.27l-45.12,19.22C220.26,178.43,216.17,179.11,211.85,179.11Zm48.29-44.39a7,7,0,0,0-2.74.55l-45.12,19.22c-4.51,1.93-16.26,12.93-13.62,19.12s18.68,5.23,23.19,3.31L267,157.7a8,8,0,0,0,4.48-5.75,15.31,15.31,0,0,0-6.8-15.93A9.11,9.11,0,0,0,260.14,134.72Z"/><path class="cls-4" d="M221.87,177.7a.38.38,0,0,1-.15-.73l.59-.25a8,8,0,0,0,4.47-5.75,14.42,14.42,0,0,0-.93-9c-2.6-6.09-8.42-9.55-13-7.71a.38.38,0,0,1-.5-.21.39.39,0,0,1,.2-.5l44.53-19a8.76,8.76,0,0,1,7.93.79,16.06,16.06,0,0,1,7.16,16.77,8.75,8.75,0,0,1-4.92,6.27l-45.12,19.22-.09,0-.05,0A.36.36,0,0,1,221.87,177.7ZM215.79,153c4.19.19,8.58,3.54,10.77,8.66a15.2,15.2,0,0,1,1,9.5,9.86,9.86,0,0,1-2.15,4.27L267,157.7a8,8,0,0,0,4.48-5.75,15.31,15.31,0,0,0-6.8-15.93,8,8,0,0,0-7.25-.75Z"/><path class="cls-4" d="M221.87,177.7a.38.38,0,0,1-.15-.73l.59-.25a8,8,0,0,0,4.47-5.75,14.42,14.42,0,0,0-.93-9c-2.6-6.09-8.42-9.55-13-7.71a.38.38,0,0,1-.5-.21.39.39,0,0,1,.2-.5l44.53-19a8.76,8.76,0,0,1,7.93.79,16.06,16.06,0,0,1,7.16,16.77,8.75,8.75,0,0,1-4.92,6.27l-45.12,19.22-.09,0-.05,0A.36.36,0,0,1,221.87,177.7ZM215.79,153c4.19.19,8.58,3.54,10.77,8.66a15.2,15.2,0,0,1,1,9.5,9.86,9.86,0,0,1-2.15,4.27L267,157.7a8,8,0,0,0,4.48-5.75,15.31,15.31,0,0,0-6.8-15.93,8,8,0,0,0-7.25-.75Z"/><path class="cls-17" d="M208.61,169.14c-1.2-2.72-3.83-4.19-5.87-3.3l-34.09,14.73,1.49,11.65,36.94-16.53C209.12,174.79,209.8,171.86,208.61,169.14Z"/><path class="cls-11" d="M187.38,172.48h0l-18.73,8.09,1.49,11.65,36.94-16.53c2-.9,2.72-3.83,1.53-6.55l-17.88,7.66S188.21,172.12,187.38,172.48Z"/><path class="cls-4" d="M170.14,192.61a.41.41,0,0,1-.18-.05.37.37,0,0,1-.19-.29l-1.5-11.65a.4.4,0,0,1,.23-.4l34.09-14.73c2.23-1,5.08.59,6.37,3.5h0c1.27,2.9.5,6.07-1.73,7L170.3,192.57A.29.29,0,0,1,170.14,192.61Zm-1.07-11.8,1.39,10.86,36.46-16.33c1.85-.81,2.44-3.53,1.34-6.05h0c-1.11-2.52-3.52-3.91-5.36-3.1Z"/><path class="cls-19" d="M175.68,136.32h0A4.83,4.83,0,0,1,180,139l6,11.82a5.67,5.67,0,0,1,.33,4.33l-9.13,27.7L143,180l-1.11-44.93,20.7-1.15Z"/><path class="cls-2" d="M177.17,183.19h0l-34.2-2.77a.38.38,0,0,1-.35-.37l-1.11-44.93a.38.38,0,0,1,.36-.39l20.7-1.15h.09l13.09,2.34a5.2,5.2,0,0,1,4.61,2.86l6,11.82a6,6,0,0,1,.35,4.62l-9.13,27.7A.38.38,0,0,1,177.17,183.19Zm-33.83-3.51,33.56,2.73,9-27.42a5.25,5.25,0,0,0-.3-4l-6-11.82a4.42,4.42,0,0,0-4-2.43h-.06l-13.08-2.34-20.29,1.12Z"/><path class="cls-20" d="M149.6,138.58h21.66a5.45,5.45,0,0,0,5.22-3.89l3.14-10.48a9.2,9.2,0,0,0-1.84-8.62c-3.44-4-8.8-10.25-12.07-14a6.83,6.83,0,0,0-7.27-2l-33.13,10.69a6.78,6.78,0,0,0-4.33,4.26l-1.81,5.29Z"/><path class="cls-21" d="M166.94,103l-1.23-1.42a6.83,6.83,0,0,0-7.27-2l-33.13,10.69a6.8,6.8,0,0,0-3.66,2.85s4.8-.14,6.16-1.32,30.69-6.19,38-8.65Z"/><path class="cls-19" d="M177.79,115.59c-3.45-4-8.81-10.25-12.08-14a6.75,6.75,0,0,0-1.49-1.29l9.11,16a9.29,9.29,0,0,1,.61,7.92v0a9.31,9.31,0,0,1-8.7,6H150.79l-4.31-4.9-25.9-9.69-1.41,4.13L144,135.12h0l5.61,3.46h21.66a5.45,5.45,0,0,0,5.22-3.89l3.14-10.48A9.23,9.23,0,0,0,177.79,115.59Z"/><path class="cls-2" d="M171.26,139H149.6a.36.36,0,0,1-.2-.06L119,120.09a.37.37,0,0,1-.16-.44l1.81-5.3a7.17,7.17,0,0,1,4.57-4.49l33.13-10.69a7.2,7.2,0,0,1,7.68,2.14c3.37,3.89,9,10.46,12.07,14a9.51,9.51,0,0,1,1.91,9l-3.13,10.48A5.87,5.87,0,0,1,171.26,139Zm-21.55-.77h21.55a5.11,5.11,0,0,0,4.86-3.62l3.13-10.48a8.76,8.76,0,0,0-1.76-8.26c-3.06-3.57-8.7-10.14-12.07-14a6.46,6.46,0,0,0-6.86-1.92l-33.14,10.7a6.41,6.41,0,0,0-4.08,4l-1.71,5Z"/><path class="cls-20" d="M37.86,136.31h23.7l14.79,13.35L95.83,180l2.71,23.15h97.12l9-9.49a2.13,2.13,0,0,0-.3-3.2l-4.69-3.37c-6.85-4.93-29.51-7.59-38-7.59h0a2.77,2.77,0,0,1-2.13-1l.83-28.91-21.91-25L117,115.64Z"/><path class="cls-19" d="M61.56,136.31l39.5-8.38c4.38-.93,3.09-8.05-.89-7.82h-.31l-62,16.19Z"/><path class="cls-19" d="M130,163.89S104.69,178.36,96.3,184l2.24,19.13h97.12l9-9.49a2.13,2.13,0,0,0-.3-3.2l-4.69-3.37c-6.85-4.93-29.51-7.59-38-7.59h0a2.77,2.77,0,0,1-2.13-1l.83-28.91Z"/><path class="cls-2" d="M195.66,203.51H98.54a.37.37,0,0,1-.38-.33l-2.7-23.07-19.4-30.2L61.41,136.7H37.86a.39.39,0,0,1-.1-.76l79.17-20.67a.33.33,0,0,1,.24,0l21.51,8.94a.33.33,0,0,1,.14.1l21.91,25a.39.39,0,0,1,.09.26L160,178.34a2.39,2.39,0,0,0,1.74.76c8.24,0,31.16,2.61,38.19,7.66l4.68,3.37a2.48,2.48,0,0,1,1,1.81,2.52,2.52,0,0,1-.68,2l-9,9.48A.36.36,0,0,1,195.66,203.51Zm-96.78-.76h96.61l8.92-9.37a1.75,1.75,0,0,0,.48-1.37,1.78,1.78,0,0,0-.72-1.26l-4.69-3.37c-6.89-5-29.58-7.51-37.74-7.51a3.09,3.09,0,0,1-2.42-1.16.38.38,0,0,1-.09-.25l.82-28.76L138.3,124.9,117,116,40.84,135.93H61.56a.4.4,0,0,1,.26.1l14.79,13.34s0,0,.06.08l19.48,30.32a.44.44,0,0,1,.06.16Z"/><polygon class="cls-19" points="130.01 163.89 95.83 179.98 98.53 203.13 124.85 186.51 130.01 163.89"/><path class="cls-20" d="M94.77,122.15c-7.88,1.94-46.24,11.36-56.9,14.16a23.13,23.13,0,0,1-6,.78H28.2c-2.23,0-3.61-1.38-3.61-3.09v-2.09a14.49,14.49,0,0,1,1.55-6.53l11.1-22a9.41,9.41,0,0,1,1.68-2.33L53.18,86.67a33.44,33.44,0,0,1,17.26-9.24H96.33a7.82,7.82,0,0,1,7.51,5.67h0l5.45.4a5.91,5.91,0,0,1,5,3.93h0a1.52,1.52,0,0,1-.85,1.89L81,108.4a4.69,4.69,0,0,0-2.3,3.79h0a4.68,4.68,0,0,0,4.14,4.89l11.61,1.32a2,2,0,0,1,1.72,1.94h0A1.85,1.85,0,0,1,94.77,122.15Z"/><path class="cls-21" d="M66,118.19a1.4,1.4,0,0,0-2.07-1c-7.91,4.38-23.25,13.14-26,14.76-3.17,1.85-2,2.35,2.82.87,4.12-1.26,23.14-6.57,31.19-9a.65.65,0,0,0-.08-1.27C68.27,121.87,66.22,120.1,66,118.19Z"/><path class="cls-21" d="M109.29,83.5l-3.92-.29S79.19,100.88,73.89,104s-7.59,11.75-1.15,6c5-4.4,29.37-18.36,40.43-24.6A5.92,5.92,0,0,0,109.29,83.5Z"/><path class="cls-21" d="M40.86,109.17h7.67A16.83,16.83,0,0,0,57,107.26c9-4.93,45-27.2,45.13-27.29a7.82,7.82,0,0,0-5.75-2.54H70.44a34.13,34.13,0,0,0-6.56,2c-8.78,8.21-17.37,16.2-19.7,18.23-5.17,4.51-6,8.5-6.32,9.59S39,109.17,40.86,109.17Z"/><path class="cls-2" d="M31.9,137.47H28.2c-2.32,0-4-1.46-4-3.47v-2.09a15,15,0,0,1,1.6-6.7l11.1-22a9.51,9.51,0,0,1,1.75-2.43L52.91,86.4a33.54,33.54,0,0,1,17.45-9.34h26a8.23,8.23,0,0,1,7.8,5.69l5.19.38a6.31,6.31,0,0,1,5.38,4.18,1.9,1.9,0,0,1-1,2.36L81.21,108.73a4.3,4.3,0,0,0,1.7,8L94.51,118a2.33,2.33,0,0,1,2.07,2.31,2.24,2.24,0,0,1-1.72,2.19h0c-7.62,1.87-46.22,11.35-56.89,14.16A23.9,23.9,0,0,1,31.9,137.47ZM70.47,77.82a32.88,32.88,0,0,0-17,9.12L39.19,101.32a8.76,8.76,0,0,0-1.6,2.23l-11.11,22A14.17,14.17,0,0,0,25,131.91V134c0,1.59,1.33,2.7,3.23,2.7h3.7a22.78,22.78,0,0,0,5.87-.76c10.68-2.81,49.28-12.29,56.91-14.16a1.48,1.48,0,0,0,1.13-1.44,1.57,1.57,0,0,0-1.39-1.56l-11.6-1.32a5.06,5.06,0,0,1-2-9.39L113.3,89l0,0a1.12,1.12,0,0,0,.63-1.4,5.54,5.54,0,0,0-4.72-3.68l-5.45-.4a.38.38,0,0,1-.34-.27,7.44,7.44,0,0,0-7.14-5.39Zm24.3,44.33h0Z"/><path class="cls-24" d="M46.54,101.28h7.23a27,27,0,0,0,7.84-1.87c13.51-5.89,32.71-17.65,36.41-22,2.74-3.2-6.08-7.39-12-7.39s-13.87,0-22,7.65C59.17,82.29,49.21,92,45.47,98.79,44.84,99.93,45.25,101.28,46.54,101.28Z"/><path class="cls-25" d="M92.59,71.32A20.07,20.07,0,0,0,86,70c-3.91,0-8.7,0-13.84,2.18-10.64,9.7-23.3,22.25-25.65,29.06h7.23C56.92,94.69,74.38,77.58,92.59,71.32Z"/><path class="cls-26" d="M53.77,101.66H46.54a1.66,1.66,0,0,1-1.49-.8,2.29,2.29,0,0,1,.08-2.25c2.72-4.94,9-12.07,18.64-21.2C72,69.65,80,69.65,85.94,69.66H86c4.56,0,11.29,2.52,12.64,5.46a2.27,2.27,0,0,1-.36,2.56C94.4,82.26,74.93,94,61.76,99.76A27.36,27.36,0,0,1,53.77,101.66ZM85.85,70.42c-5.76,0-13.62,0-21.55,7.55-9.46,9-15.85,16.21-18.5,21a1.57,1.57,0,0,0-.09,1.49.91.91,0,0,0,.83.43h7.23a26.52,26.52,0,0,0,7.69-1.84C75.35,93,94.27,81.22,97.72,77.18A1.49,1.49,0,0,0,98,75.44c-1.13-2.44-7.27-5-12-5h-.18Z"/><path class="cls-24" d="M39.32,112.37H54.64a3.79,3.79,0,0,1,1.92,7.06l-21.28,12.5a7.59,7.59,0,0,1-4.3,1.34H29.19a2.9,2.9,0,0,1-2.61-4.16l6-12.51A7.46,7.46,0,0,1,39.32,112.37Z"/><polygon class="cls-27" points="34.08 121.83 29.52 123.55 30.38 122.01 33.83 121.33 34.08 121.83"/><polygon class="cls-27" points="41.35 123.55 42.03 127.74 43.94 126.63 42.09 123.31 41.35 123.55"/><polygon class="cls-27" points="34.2 132.24 37.71 123.61 38.82 123.86 36.48 131.07 34.2 132.24"/><polygon class="cls-27" points="26.63 130.89 35.1 122.82 36.11 123.21 27.33 132.37 26.63 130.89"/><path class="cls-27" d="M58.12,114.67a3.69,3.69,0,0,0-3.48-2.3H39.32a7.43,7.43,0,0,0-4.22,1.32L37,120.14a2.56,2.56,0,0,0,3.4,1.64Z"/><path class="cls-25" d="M36,113c-5.83,7.73-7.83,16.39-7.83,20.11a2.9,2.9,0,0,0,1,.2H31a8,8,0,0,0,1.47-.15c2.4-5.34,12.08-14.24,19.74-20.75H39.32A11.07,11.07,0,0,0,36,113Z"/><path class="cls-2" d="M31,133.65H29.19a3.28,3.28,0,0,1-3-4.7l6-12.51A7.9,7.9,0,0,1,39.32,112H54.64a4.17,4.17,0,0,1,2.11,7.77l-21.28,12.5A7.92,7.92,0,0,1,31,133.65Zm8.34-20.89a7.12,7.12,0,0,0-6.38,4l-6,12.51a2.5,2.5,0,0,0,2.26,3.6H31a7.13,7.13,0,0,0,4.08-1.26l21.3-12.52a3.4,3.4,0,0,0-1.72-6.34Z"/><path class="cls-2" d="M98.54,203.52a.47.47,0,0,1-.17,0,.37.37,0,0,1-.21-.3l-2.7-23.07L76,149.86a.36.36,0,0,1,0-.32.37.37,0,0,1,.22-.24l36.09-14.54a.38.38,0,0,1,.45.13l20.46,27.47a.37.37,0,0,1,.06.35l-8.06,23.92a.32.32,0,0,1-.16.2L98.74,203.46A.36.36,0,0,1,98.54,203.52ZM76.92,149.84l19.23,29.93a.44.44,0,0,1,.06.16l2.63,22.56,25.69-16.23,7.95-23.6-20.17-27.08Z"/><polygon class="cls-19" points="98.53 203.13 95.42 203.13 92.71 179.98 73.89 150.64 58.45 136.31 61.56 136.31 76.35 149.66 95.83 179.98 98.53 203.13"/><path class="cls-2" d="M98.54,203.52H95.42a.39.39,0,0,1-.38-.34l-2.7-23.07L73.59,150.89,58.19,136.6a.41.41,0,0,1-.1-.42.39.39,0,0,1,.36-.25h3.11a.42.42,0,0,1,.26.1l14.79,13.34s0,0,.06.08l19.48,30.32a.44.44,0,0,1,.06.16l2.71,23.16a.41.41,0,0,1-.1.3A.39.39,0,0,1,98.54,203.52Zm-2.78-.77h2.35l-2.65-22.64-19.4-30.2L61.41,136.7h-2l14.72,13.66.06.08L93,179.77a.25.25,0,0,1,.06.16Z"/><polygon class="cls-2" points="112.44 135.11 130.01 163.89 124.85 186.51 132.91 162.59 112.44 135.11"/><path class="cls-2" d="M124.85,186.89h-.1a.38.38,0,0,1-.27-.46L129.6,164l-17.48-28.65a.38.38,0,0,1,.63-.42l20.46,27.47a.37.37,0,0,1,.06.35l-8.06,23.92A.38.38,0,0,1,124.85,186.89ZM117.1,142l13.24,21.69a.42.42,0,0,1,0,.29l-3.47,15.21,5.57-16.53Z"/><rect class="cls-4" x="235.82" y="181.09" width="12.09" height="6.53" rx="1.29"/><path class="cls-4" d="M246.62,188h-9.5a1.68,1.68,0,0,1-1.68-1.68v-3.94a1.68,1.68,0,0,1,1.68-1.68h9.5a1.68,1.68,0,0,1,1.68,1.68v3.94A1.68,1.68,0,0,1,246.62,188Zm-9.5-6.53a.91.91,0,0,0-.91.91v3.94a.92.92,0,0,0,.91.92h9.5a.92.92,0,0,0,.91-.92v-3.94a.91.91,0,0,0-.91-.91Z"/><rect class="cls-13" x="237.7" y="181.09" width="8.34" height="6.53" rx="1.07"/><path class="cls-4" d="M245,188h-6.2a1.45,1.45,0,0,1-1.45-1.46v-4.38a1.46,1.46,0,0,1,1.45-1.46H245a1.46,1.46,0,0,1,1.45,1.46v4.38A1.45,1.45,0,0,1,245,188Zm-6.2-6.53a.69.69,0,0,0-.69.69v4.38a.69.69,0,0,0,.69.7H245a.69.69,0,0,0,.69-.7v-4.38a.69.69,0,0,0-.69-.69Z"/><path class="cls-4" d="M243.7,184.35a1.56,1.56,0,1,1-1.52-1.91A1.75,1.75,0,0,1,243.7,184.35Z"/><path class="cls-4" d="M242.18,186.64a2.33,2.33,0,1,1,1.91-2.29A2.13,2.13,0,0,1,242.18,186.64Zm0-3.82c-.62,0-1.13.69-1.13,1.53s.51,1.53,1.13,1.53,1.14-.69,1.14-1.53S242.81,182.82,242.18,182.82Z"/><path class="cls-5" d="M167.51,86.23a8,8,0,0,0,8.68-7.6c.26-5.69.36-12.21.26-17a8.05,8.05,0,0,0-8.3-7.88h0a8.06,8.06,0,0,0-7.8,8.16c.06,4.44,0,10.71-.16,16.13a8,8,0,0,0,7.32,8.24Z"/><path class="cls-6" d="M171.07,69.77S174,53.7,168.15,53.7h0a8.06,8.06,0,0,0-7.8,8.16c0,2.94,0,6.69,0,10.46h0v0c0,.71,0,1.41,0,2.11C161.3,70.69,166.55,68.66,171.07,69.77Z"/><path class="cls-7" d="M168.21,86.65l-.73,0A8.39,8.39,0,0,1,159.81,78c.1-3.16.16-6.73.18-10.31a.38.38,0,0,1,.38-.38h0a.37.37,0,0,1,.38.38c0,3.59-.07,7.17-.18,10.34a7.62,7.62,0,0,0,7,7.84,7.62,7.62,0,0,0,8.26-7.24c.26-5.66.36-12.18.26-17a7.69,7.69,0,0,0-4.59-6.86L169,53.64a.4.4,0,0,1-.2-.51.38.38,0,0,1,.51-.19l2.5,1.09a8.43,8.43,0,0,1,5,7.54c.1,4.86,0,11.4-.26,17.07a8.41,8.41,0,0,1-8.36,8Z"/><path class="cls-8" d="M168.27,72.41h-.1A6.61,6.61,0,0,0,161.71,79c-.18,14.54-13.8,27.7-45.93,24.19a5.18,5.18,0,0,0-3.66,1.23,6.09,6.09,0,0,0-1.54,2.43l-2.4-.34-1.58,6.21,7.78,1.14a5,5,0,0,0,.54.07c38.75,3.18,59.45-9.26,60.15-34.66A6.68,6.68,0,0,0,168.27,72.41Z"/><path class="cls-10" d="M175.07,79.26a6.68,6.68,0,0,0-6.8-6.85h-.1A6.61,6.61,0,0,0,161.71,79c0,.62,0,1.24-.1,1.86l0,.05c1.87-5.61,8.16-4.25,8.16-4.25-1,36.18-47.93,31.27-58.56,30.86-1.14,0-2.24-.07-3.3-.08l-1.34,5.28,7.78,1.14a5,5,0,0,0,.54.07C153.67,117.1,174.37,104.66,175.07,79.26Z"/><path class="cls-9" d="M126.37,114.8c-3.64,0-7.46-.16-11.48-.49l-7.8-1a.37.37,0,0,1-.33-.42.38.38,0,0,1,.43-.33l7.77,1c23,1.89,39.69-1.65,49.6-10.53,6.44-5.78,9.85-13.77,10.12-23.76a6.27,6.27,0,0,0-6.4-6.45h-.11A6.21,6.21,0,0,0,162.09,79a21.94,21.94,0,0,1-7.61,16.54c-5.62,5-16.9,10.41-38.74,8a.38.38,0,0,1-.34-.42.39.39,0,0,1,.42-.34c21.56,2.35,32.65-3,38.16-7.84a21.23,21.23,0,0,0,7.35-16,7,7,0,0,1,6.83-7h.1a7.06,7.06,0,0,1,7.19,7.24c-.28,10.21-3.77,18.39-10.38,24.31C156.75,111,143.76,114.8,126.37,114.8Z"/><path class="cls-4" d="M91.12,105.68h-4.5a2.63,2.63,0,0,0,0,5.26h4.5Z"/><path class="cls-12" d="M91.12,111.32h-4.5a3,3,0,0,1,0-6h4.5a.38.38,0,0,1,.38.38v5.26A.38.38,0,0,1,91.12,111.32Zm-4.5-5.25a2.24,2.24,0,1,0,0,4.48h4.12v-4.48Z"/><path class="cls-4" d="M94.47,112.43H92.68a4.2,4.2,0,0,1-4.2-4.2h0a4.2,4.2,0,0,1,4.2-4.21h1.79a4.2,4.2,0,0,1,4.21,4.21h0A4.2,4.2,0,0,1,94.47,112.43Z"/><path class="cls-12" d="M94.47,112.81H92.68a4.59,4.59,0,1,1,0-9.17h1.79a4.59,4.59,0,1,1,0,9.17Zm-1.79-8.41a3.83,3.83,0,0,0,0,7.65h1.79a3.83,3.83,0,1,0,0-7.65Z"/><path class="cls-4" d="M111.57,111.17H97.45a2.86,2.86,0,0,1-2.86-2.86h0a2.85,2.85,0,0,1,2.86-2.85h14.12a2.85,2.85,0,0,1,2.85,2.85h0A2.86,2.86,0,0,1,111.57,111.17Z"/><path class="cls-13" d="M111.28,106.07H99.37a2.89,2.89,0,0,0-1.08,2.24s0,.08,0,.12H110A3.21,3.21,0,0,1,111.28,106.07Z"/><path class="cls-12" d="M111.57,111.55H97.45a3.24,3.24,0,0,1,0-6.48h14.12a3.24,3.24,0,0,1,0,6.48Zm-14.12-5.71a2.47,2.47,0,1,0,0,4.94h14.12a2.47,2.47,0,1,0,0-4.94Z"/><path class="cls-8" d="M115,103a25.38,25.38,0,0,0-7.19-1.39h-6.2c-2,0-5.27,1.66-5.27,6,0,2.85,1.93,6.52,6.19,6.52H109l.31,0c1.22-.3.84-2.31-.41-2.25h.27c-4.24,0-5.28-7,0-7l2.58,0s5.39,1.32,5.75,1.08Z"/><path class="cls-10" d="M102.51,114.11H109l.31,0c1.22-.3.84-2.31-.41-2.25h.27a3.6,3.6,0,0,1-3.51-3.09H96.43A6.09,6.09,0,0,0,102.51,114.11Z"/><path class="cls-9" d="M109,114.5h-6.48a6.31,6.31,0,0,1-4.63-1.89,7.08,7.08,0,0,1-1.94-5c.11-3.38,3.25-6.39,5.65-6.39h6.2c2.48,0,4.79.67,8,1.6l.12,0a.38.38,0,1,1-.21.73l-.12,0c-3.13-.91-5.4-1.57-7.77-1.57h-6.2c-1.81,0-4.79,2.58-4.88,5.65a6.34,6.34,0,0,0,1.72,4.48,5.54,5.54,0,0,0,4.08,1.65H109l.22,0a.65.65,0,0,0,.44-.78.8.8,0,0,0-.65-.72h-.09a3.75,3.75,0,0,1-3.43-4,4,4,0,0,1,.9-2.6,3.54,3.54,0,0,1,2.78-1.2l3.69,0a.39.39,0,0,1,.38.39.38.38,0,0,1-.38.38h-1.67l-2,0a2.78,2.78,0,0,0-2.2.93,3.24,3.24,0,0,0-.72,2.1,3,3,0,0,0,2.74,3.22h.18a.58.58,0,0,1,.21.06,1.59,1.59,0,0,1,1,1.31,1.39,1.39,0,0,1-1,1.63A1.9,1.9,0,0,1,109,114.5Z"/><path class="cls-4" d="M89.38,113.41c0,1.65.52,2.56,2.63,2.56H99c2.62,0,6,1.61,6.69,3h2.22s-2.39-4.82-9.08-4.82H92c-.67,0-.67-.79-.67-.79Z"/><path class="cls-12" d="M107.86,119.4h-2.22a.37.37,0,0,1-.35-.22c-.58-1.23-3.76-2.82-6.34-2.82H92c-2.13,0-3-.86-3-3a.38.38,0,0,1,.38-.38h2a.38.38,0,0,1,.38.38c0,.12,0,.4.29.4h6.77c6.85,0,9.32,4.83,9.42,5a.38.38,0,0,1,0,.37A.4.4,0,0,1,107.86,119.4Zm-2-.76h1.32a9.76,9.76,0,0,0-8.4-4.06H92a1,1,0,0,1-1-.79H89.77c.08,1.2.53,1.8,2.24,1.8H99C101.55,115.59,104.9,117.09,105.86,118.64Z"/><path class="cls-4" d="M91.76,113.69h-2A1.82,1.82,0,0,1,88,111.87h0a1.81,1.81,0,0,1,1.82-1.82h2a1.82,1.82,0,0,1,1.82,1.82h0A1.83,1.83,0,0,1,91.76,113.69Z"/><path class="cls-12" d="M91.76,114.07h-2a2.2,2.2,0,0,1,0-4.4h2a2.2,2.2,0,0,1,0,4.4Zm-2-3.64a1.44,1.44,0,1,0,0,2.88h2a1.44,1.44,0,0,0,0-2.88Z"/><circle class="cls-4" cx="106.91" cy="118.85" r="1.53"/><path class="cls-12" d="M106.91,120.77a1.92,1.92,0,1,1,1.91-1.92A1.92,1.92,0,0,1,106.91,120.77Zm0-3.07a1.15,1.15,0,1,0,1.15,1.15A1.15,1.15,0,0,0,106.91,117.7Z"/><path class="cls-28" d="M207,163.22l8.7-7.22a2.1,2.1,0,0,1,2.71,0h0a2.11,2.11,0,0,1-.34,3.46L208.23,165a1.05,1.05,0,0,1-1.53-.62h0A1.08,1.08,0,0,1,207,163.22Z"/><path class="cls-28" d="M223.81,155.05h0a2.5,2.5,0,0,1,1.34-3.33l35-14.91a2.65,2.65,0,0,1,3.46,1.29h0a2.49,2.49,0,0,1-1.34,3.34l-35,14.91A2.67,2.67,0,0,1,223.81,155.05Z"/><path class="cls-9" d="M142.43,61.09h0a7.16,7.16,0,0,1-9.73-2.81l-4.82-8.71a7.17,7.17,0,0,1,2.81-9.73h0a7.17,7.17,0,0,1,9.73,2.81l4.81,8.71A7.16,7.16,0,0,1,142.43,61.09Z"/><path class="cls-29" d="M139,62.37a7.59,7.59,0,0,1-6.62-3.9l-4.81-8.71A7.56,7.56,0,0,1,126.9,44a7.54,7.54,0,0,1,13.85-1.56l4.82,8.71a7.55,7.55,0,0,1-3,10.25h0A7.45,7.45,0,0,1,139,62.37Zm-4.84-23a6.78,6.78,0,0,0-5.92,10.06L133,58.1a6.76,6.76,0,0,0,4.06,3.23,6.66,6.66,0,0,0,5.15-.58,6.78,6.78,0,0,0,2.66-9.21l-4.81-8.71a6.83,6.83,0,0,0-6-3.5Zm8.29,21.76Z"/><path class="cls-8" d="M124,6.54h0A16.75,16.75,0,0,0,109.65,26l2.81,16a16,16,0,0,0,17.86,13.13h0a16,16,0,0,0,13.91-17.27L142.84,21.7A16.75,16.75,0,0,0,124,6.54Z"/><path class="cls-30" d="M124.27,48.73l-.81.11a3.46,3.46,0,0,1-3.87-3h0l7.66-1h0A3.44,3.44,0,0,1,124.27,48.73Z"/><path class="cls-8" d="M143.89,37.52l-2.66.35-1-7.72,2.66-.34a3.89,3.89,0,0,1,4.36,3.35h0A3.89,3.89,0,0,1,143.89,37.52Z"/><path class="cls-9" d="M121.39,29.81l1.57,12-3.3.43A1.5,1.5,0,0,1,118,40.32Z"/><path class="cls-31" d="M117.71,30.26l-6.14-.61a.5.5,0,0,1-.44-.53h0a.48.48,0,0,1,.5-.44l6.18.18a.48.48,0,0,1,.47.53l0,.43A.5.5,0,0,1,117.71,30.26Z"/><path class="cls-31" d="M125,29.07,131,27.4a.49.49,0,0,0,.33-.6h0a.49.49,0,0,0-.57-.35l-6,1.26a.49.49,0,0,0-.37.61l.12.42A.47.47,0,0,0,125,29.07Z"/><path class="cls-31" d="M129.14,33c.15,1.1-.15,2-.65,2.12s-1-.78-1.17-1.88.15-2.06.65-2.12S129,31.92,129.14,33Z"/><path class="cls-31" d="M116.94,34.62c.15,1.1-.14,2.05-.65,2.12s-1-.78-1.17-1.88.15-2.06.65-2.12S116.8,33.51,116.94,34.62Z"/><polygon class="cls-31" points="106.4 40.52 106.4 40.52 106.4 40.52 106.4 40.52"/><path class="cls-3" d="M214.24,190.93h-8.73a2.39,2.39,0,0,1-2.38-2.38h0a2.39,2.39,0,0,1,2.38-2.38h8.73a2.39,2.39,0,0,1,2.38,2.38h0A2.39,2.39,0,0,1,214.24,190.93Z"/><path class="cls-4" d="M214.24,191.31h-8.73a2.76,2.76,0,0,1,0-5.52h8.73a2.76,2.76,0,0,1,0,5.52Zm-8.73-4.76a2,2,0,1,0,0,4h8.73a2,2,0,1,0,0-4Z"/><path class="cls-4" d="M214.24,191.31a2.76,2.76,0,1,1,2.76-2.76A2.77,2.77,0,0,1,214.24,191.31Zm0-4.76a2,2,0,1,0,2,2A2,2,0,0,0,214.24,186.55Z"/><path class="cls-8" d="M195.57,175.93h0a5.74,5.74,0,0,0,.53,8.1l.66.57,7.57-8.63-.66-.57A5.73,5.73,0,0,0,195.57,175.93Z"/><polygon class="cls-22" points="204.94 176.49 197.33 185.17 187.23 207.97 211.92 179.82 204.94 176.49"/><path class="cls-23" d="M187.23,208.36a.36.36,0,0,1-.2-.06.39.39,0,0,1-.15-.48L197,185a.21.21,0,0,1,.06-.1l7.61-8.68a.38.38,0,0,1,.45-.09l7,3.33a.42.42,0,0,1,.21.27.4.4,0,0,1-.09.33l-24.69,28.15A.41.41,0,0,1,187.23,208.36Zm10.42-23-9.06,20.46L211.3,180,205,177Z"/><rect class="cls-23" x="182.33" y="193.12" width="37.91" height="4.55" rx="0.23" transform="translate(-78.34 217.88) rotate(-48.75)"/><path class="cls-22" d="M214.1,103.6a10,10,0,0,1-4.58,11.73c-43.67,24.93-62.34,25.82-5,60.63L197,184.62c-75.46-43.7-47.06-54.25,2.1-86.36a10,10,0,0,1,13.82,2.81h0a9.51,9.51,0,0,1,1.22,2.53Z"/><path class="cls-23" d="M197,185a.45.45,0,0,1-.19-.05c-32.4-18.76-46.33-31.68-46.59-43.18C149.9,129.32,165.86,119.11,188,105l3.42-2.19a.39.39,0,0,1,.53.12.38.38,0,0,1-.12.52l-3.42,2.2c-21.88,14-37.68,24.13-37.41,36.14.12,5.52,3.65,11.45,10.79,18.12,7.39,6.89,18.88,14.83,35.14,24.26l7-8.08c-26.17-15.92-35.85-24.5-35.67-31.61s10-12.44,26.22-21.23c4.45-2.42,9.5-5.15,14.86-8.21,3.84-2.19,7.24-5.27,3.08-16.57a.38.38,0,1,1,.72-.26c3.92,10.66,1.47,14.7-3.42,17.5-5.37,3.06-10.42,5.8-14.88,8.21-15.44,8.36-25.65,13.89-25.82,20.58s9.51,15.27,35.7,31.17a.42.42,0,0,1,.18.27.39.39,0,0,1-.09.31l-7.55,8.66A.39.39,0,0,1,197,185Z"/><rect class="cls-23" x="192.11" y="177.07" width="13.87" height="4.09" rx="1.16" transform="translate(-66.76 211.5) rotate(-48.93)"/><path class="cls-32" d="M186.63,108.88s-15.42,8.75-21.56,15.2-1.34,9.24.48,8.26c6-3.22,12.4-11.2,23.72-16.21S193.08,104.59,186.63,108.88Z"/><polygon class="cls-33" points="104.38 26.09 105.62 41.69 108.64 47.33 138.46 41.64 142.46 23.5 130.87 15.83 112.54 18.88 104.38 26.09"/><path class="cls-34" d="M113.87,18.66l-1.73.57-7.76,6.86,1.18,14.82c1.32,2.58,2.53,4.88,3.4,6.36l15.28-2.91c3.49-1.47,6.3-3,6.43-4.09a66.92,66.92,0,0,1,5.15-16.54l-6.41-7.66Z"/><path class="cls-20" d="M125.61.53a24.87,24.87,0,0,0-21.78,24.22h0L105,42.85A15.45,15.45,0,0,0,109.66,53l1.46,1.41a16.37,16.37,0,0,0,13.21,4.48l1.43-.17a35.61,35.61,0,0,0,17-6.73L147,48.89a17,17,0,0,0,6.72-15.52L152.61,23C151.09,9.22,139.06-1,125.61.53ZM140.5,28h0a10.25,10.25,0,0,1-4.57,7.7l-6.75,4.4a13.47,13.47,0,0,1-5.86,2.12l-5.07.59a9.39,9.39,0,0,1-7-2.06l-1.1-.9a13.23,13.23,0,0,1-4.55-7.6l-.19-1a3.63,3.63,0,0,1,3.08-4.36l27.72-3.22A3.94,3.94,0,0,1,140.5,28Z"/><path class="cls-35" d="M125.61.53a24.87,24.87,0,0,0-21.78,24.22h0L105,42.85A15.39,15.39,0,0,0,109.66,53l1.46,1.41a16.37,16.37,0,0,0,13.21,4.48l1.43-.17a35.4,35.4,0,0,0,6-1.25c-2-5.88-2-12.45-.93-18.5l-1.69,1.1a13.47,13.47,0,0,1-5.86,2.12l-5.07.59a9.39,9.39,0,0,1-7-2.06l-1.1-.9a13.23,13.23,0,0,1-4.55-7.6l-.19-1a3.63,3.63,0,0,1,3.08-4.36l27.34-3.17a22.28,22.28,0,0,1,2.77-4.44c3.8-4.4,4.53-12.93-4.66-18.21A23.55,23.55,0,0,0,125.61.53Z"/><path class="cls-19" d="M122.45,59.41a16.71,16.71,0,0,1-11.59-4.7l-1.46-1.4a15.78,15.78,0,0,1-4.82-10.44l-1.14-18.09a.28.28,0,0,1,0-.09c.37-12.61,9.87-23.16,22.11-24.54h0a24.09,24.09,0,0,1,17.82,5.22A26,26,0,0,1,153,23l1.14,10.35a17.38,17.38,0,0,1-6.87,15.87L143,52.33a36.14,36.14,0,0,1-17.22,6.8l-1.43.17A17.65,17.65,0,0,1,122.45,59.41ZM104.21,24.78l1.14,18a15,15,0,0,0,4.57,9.93l1.47,1.4a15.92,15.92,0,0,0,12.89,4.38l1.43-.17a35.31,35.31,0,0,0,16.85-6.66l4.24-3.12a16.61,16.61,0,0,0,6.57-15.18l-1.14-10.35A25.25,25.25,0,0,0,142.91,6,23.31,23.31,0,0,0,125.65.91c-11.89,1.34-21.1,11.6-21.44,23.85ZM125.61.53Zm-8.45,42.73A9.67,9.67,0,0,1,111,41l-1.1-.89a13.56,13.56,0,0,1-4.68-7.83l-.2-1a4.13,4.13,0,0,1,.7-3.22,3.91,3.91,0,0,1,2.71-1.6l27.72-3.21a4.19,4.19,0,0,1,3.42,1.17A4.39,4.39,0,0,1,140.88,28a10.7,10.7,0,0,1-4.74,8l-6.75,4.4a14,14,0,0,1-6,2.18l-5.08.59A8.57,8.57,0,0,1,117.16,43.26ZM136.64,24l-.4,0-27.72,3.22a3.14,3.14,0,0,0-2.18,1.29,3.34,3.34,0,0,0-.57,2.62l.2,1a12.75,12.75,0,0,0,4.41,7.38l1.1.9a8.94,8.94,0,0,0,6.73,2l5.07-.59A13.18,13.18,0,0,0,129,39.78l6.75-4.4a10,10,0,0,0,4.4-7.41A3.63,3.63,0,0,0,139,25,3.43,3.43,0,0,0,136.64,24Z"/></g></g></g></svg>