<svg xmlns="http://www.w3.org/2000/svg" viewBox="0 0 234.5 300.66"><defs><style>.cls-1{isolation:isolate;}.cls-2,.cls-3,.cls-34{fill:#3e4731;}.cls-25,.cls-3{opacity:0.8;}.cls-10,.cls-11,.cls-13,.cls-14,.cls-19,.cls-21,.cls-23,.cls-25,.cls-3,.cls-31,.cls-33,.cls-34,.cls-36,.cls-6{mix-blend-mode:multiply;}.cls-26,.cls-32,.cls-4{mix-blend-mode:screen;}.cls-14,.cls-5{fill:#5e3d27;}.cls-13,.cls-6,.cls-7{fill:#7c5535;}.cls-21,.cls-26,.cls-32,.cls-33,.cls-36,.cls-6{opacity:0.7;}.cls-10,.cls-11,.cls-36,.cls-8{fill:#333;}.cls-12,.cls-9{fill:none;}.cls-9{stroke:#1d1d1b;stroke-linecap:round;stroke-linejoin:round;stroke-width:0.57px;}.cls-11,.cls-34{opacity:0.6;}.cls-13,.cls-19{opacity:0.5;}.cls-15{fill:#3f3f3c;}.cls-16,.cls-19,.cls-21{fill:#493222;}.cls-17{fill:#1d1d1b;}.cls-18{fill:#21130a;}.cls-20{fill:#ffd3b3;}.cls-22{fill:#967760;}.cls-23,.cls-25,.cls-33{fill:#ddb499;}.cls-24{fill:#700;}.cls-27{fill:#ffdbbd;}.cls-28{fill:#282828;}.cls-29{fill:#5e5e5e;}.cls-30,.cls-31,.cls-32{fill:#191919;}.cls-35{fill:#ffdec0;}</style></defs><title>guitaristAsset 1</title><g class="cls-1"><g id="Layer_2" data-name="Layer 2"><g id="Layer_2-2" data-name="Layer 2"><path class="cls-2" d="M51.36,161c2.65-2,9.18-3.11,9.18-3.11l-7.17-8.47Z"/><path class="cls-3" d="M51.36,161c2.65-2,9.18-3.11,9.18-3.11l-7.17-8.47Z"/><path class="cls-2" d="M100.13,115.83c0-5.33-.84-8.26-1.55-9.83h0a65.43,65.43,0,0,1-1.89,12.89c-1.82,7.66-8.51,9.28-13.87,7.46s-5.26-5.83-2.68-13.67,1.25-10.81,1.25-10.81c-1.82-1.82-3.25-.38-3.25-.38s1.54,1.21-.31,5.94-7.16,10.36-8.64,12.48-5.45,4.13-7.42,2.94l-4.09,2.58a38,38,0,0,1-1.11,7.28s2.82,6.89,5.79,13.94a106.27,106.27,0,0,0,4.71,9.87,45.7,45.7,0,0,1,6.52-.52c3.59.05,10.76-.63,15.66-4,7.12-4.93,8.08-11.3,10.7-14.34C100.05,131.78,100.2,122.21,100.13,115.83Z"/><g class="cls-4"><path class="cls-2" d="M77.85,115.6s-.19.43-.44,1.22a13.81,13.81,0,0,0-.61,3.36,7.49,7.49,0,0,0,1.09,4.49,6,6,0,0,0,1.88,1.76,8.93,8.93,0,0,0,2.5,1l1.39.34L85,128l1.35.16,1.31.08a14.77,14.77,0,0,0,2.44-.14,7.58,7.58,0,0,0,2.07-.59,7.41,7.41,0,0,0,1.58-.94,11,11,0,0,0,1.08-1c.27-.3.48-.55.62-.73l.22-.26.09,0-.14.32c-.09.21-.26.49-.47.87l-.4.59c-.16.2-.34.42-.54.64a5.76,5.76,0,0,1-.72.66c-.14.1-.27.22-.43.32l-.47.29a8.14,8.14,0,0,1-1.07.51,7.83,7.83,0,0,1-1.22.35,10.66,10.66,0,0,1-2.68.24c-.46,0-.93-.08-1.41-.13l-1.4-.24-1.42-.34L82,128.33a10.3,10.3,0,0,1-2.7-1.23,6.72,6.72,0,0,1-2-2.07,7,7,0,0,1-.9-2.52,10,10,0,0,1,0-2.37,14.54,14.54,0,0,1,.83-3.38,12.26,12.26,0,0,1,.52-1.21Z"/></g><path class="cls-3" d="M100.13,115.83c0-5.33-.84-8.26-1.55-9.83a65.43,65.43,0,0,1-1.89,12.89c-1.82,7.66-8.51,9.28-13.87,7.46s-5.26-5.83-2.68-13.67,1.25-10.81,1.25-10.81c-1.82-1.82-3.25-.38-3.25-.38s1.54,1.21-.31,5.94-7.16,10.36-8.64,12.48-5.45,4.13-7.42,2.94l-4.09,2.58a38,38,0,0,1-1.11,7.28s2.82,6.89,5.79,13.94a106.27,106.27,0,0,0,4.71,9.87,45.7,45.7,0,0,1,6.52-.52c3.59.05,10.76-.63,15.66-4,7.12-4.93,8.08-11.3,10.7-14.34C100.05,131.78,100.2,122.21,100.13,115.83Zm-1,15.55c-.33,4-1.53.9-5.07,9.22a21.52,21.52,0,0,1-20.73,13c-5.45-.28-5.79-1.62-9.2-13.2s-3.54-12.79,3-14.73c5.87-1.74,2.31-2.77,6.21-8.41s4-5.64,5.15-8.51,1.29-5.07,1-5.93,2.2-.66,1.48,4-2.68,7.61-3.54,12.58,2,7.32,5.26,8.2,11.1,1.79,13.66-5.23,3-12.11,3.08-9A171.58,171.58,0,0,1,99.08,131.38Z"/><path class="cls-5" d="M234.5,71l-.45-2.1a112.11,112.11,0,0,1-14.2,1.35l-2.44,2-19.68,16,33.38-11.62Z"/><path class="cls-6" d="M234.5,71l-.45-2.1a112.11,112.11,0,0,1-14.2,1.35l-2.44,2-19.68,16,33.38-11.62Z"/><path class="cls-7" d="M200.7,72.25c-4.54.5-7.71.88-7.75,1-.14.33-.62,5.59-.62,5.59l8.37-6.57Z"/><path class="cls-6" d="M193,73.23c-.14.33-.62,5.59-.62,5.59l8.37-6.57C196.16,72.75,193,73.13,193,73.23Zm.49.42c0-.07,2.29-.34,5.53-.7l-6,4.7S193.34,73.89,193.44,73.65Z"/><path class="cls-8" d="M219.85,70.25c-6.39.65-13.75,1.41-19.15,2h0l-8.37,6.57L119.6,137.5l-11.46,9.15L88,163.11a3.4,3.4,0,0,1-1.77,1.44l-4.93,4a3.93,3.93,0,0,0,1.18.57c1.58.51,4.52,2.59,4.81,4.38s-.21,2.8-1.58,2.08c0,0,.77.62.43,1.1s-2.34-.19-3.82-.58a4.36,4.36,0,0,1-1.82,1.06,9.25,9.25,0,0,1-3.73,0,35.94,35.94,0,0,0,2.49,3.68c1.19,1.48,1.72,2.06.86,2.44s-5.55-3.11-7.7-4.78c-.43-.33-1.09-.7-1.87-1.17l-5.84,4.76,8.54,9.68,47.07-40.23,1.72-1.5,21.13-16.85s1.07-2.77,1.68-4.13-1.11-.86-3.3-1.47-3.08-1-2.83-2.11,3.09-.83,3.09-.83a1.16,1.16,0,0,1-.26-1.4c.34-.72,2.07-.36,3.16-.5a.85.85,0,0,1-.45-1c.2-.68,2.26-1.4,3.57-1.77a1.81,1.81,0,0,1-.39-1.94c.46-1.11,4.23-1.33,6.88-2.37s2.91-.82,3.84,1.8l1,2.22L200.55,85.9l19.3-15.65Z"/><path class="cls-7" d="M234.05,68.9s-7.13.63-14.2,1.35h0L200.55,85.9l29.53-10.6Z"/><line class="cls-9" x1="67.39" y1="185.15" x2="208.2" y2="71.57"/><line class="cls-9" x1="68.87" y1="186.87" x2="212.47" y2="71"/><line class="cls-9" x1="70.6" y1="188.59" x2="216.82" y2="70.56"/><path class="cls-10" d="M200.7,72.25l-8.37,6.57L119.6,137.5l-11.46,9.15L88,163.11a3.4,3.4,0,0,1-1.77,1.44l-4.93,4a3.93,3.93,0,0,0,1.18.57c1.58.51,4.52,2.59,4.81,4.38s-.21,2.8-1.58,2.08c0,0,.77.62.43,1.1s-2.34-.19-3.82-.58a4.36,4.36,0,0,1-1.82,1.06,9.25,9.25,0,0,1-3.73,0,35.94,35.94,0,0,0,2.49,3.68c1.19,1.48,1.72,2.06.86,2.44s-5.55-3.11-7.7-4.78c-.43-.33-1.09-.7-1.87-1.17l-5.84,4.76,8.54,9.68,47.07-40.23,1.72-1.5,21.13-16.85s1.07-2.77,1.68-4.13-1.11-.86-3.3-1.47-3.08-1-2.83-2.11,3.09-.83,3.09-.83a1.16,1.16,0,0,1-.26-1.4c.34-.72,2.07-.36,3.16-.5a.85.85,0,0,1-.45-1c.2-.68,2.26-1.4,3.57-1.77a1.81,1.81,0,0,1-.39-1.94c.46-1.11,4.23-1.33,6.88-2.37s2.91-.82,3.84,1.8l1,2.22L200.55,85.9l19.3-15.65C213.46,70.9,206.1,71.66,200.7,72.25Z"/><path class="cls-10" d="M202.18,81.32c-4.66,3.69-43.11,34.39-43.11,34.39-1.18-1-1-1.82-4.23-.86s-7.39,2.08-7.77,2.59a4.09,4.09,0,0,0-.37,1.79s-.93.68-2.08,1.36a1.57,1.57,0,0,0-.91,1.65,5.44,5.44,0,0,0-2.21.58c-.93.53-.87,1.11-.76,1.18s-2.5.64-2.79,1.72,1.86,2.2,3.57,2.53.72,2-.26,4.18c-.22.47-24.31,19.19-29.46,23.76C98.58,168,92.34,173.86,90.24,175.76s-6.2,5.63-11,9.65-5.82,4.71-8,2.49c-6-6.15-6-5.07-4-6.71,1.68-1.41,3.12-2.67,3.89-2.21a59.55,59.55,0,0,0,6.29,4.08c2.36,1.16,5.12,1.3,3.4-1.21s-2.87-3.12-1.22-3.34,3.07-1.33,3.49-1.18,3.38,1.21,3.65,0c.14-.66.32-.54,1-1.55s1.76-5-3.09-6.57c-1.57-.5-2.3-.7-.46-2.19,4.8-3.87,24.64-20.16,30.77-25.1,4.59-3.7,83.5-67.36,84.93-68.54s1-.79,2.83-.9,10.41-.89,11.51-1S207.45,77.14,202.18,81.32Z"/><path class="cls-6" d="M219.85,70.25,200.55,85.9l29.53-10.6,4-6.4S226.92,69.53,219.85,70.25Zm7.24,5.08c-3.49,1.2-19,6.74-20.8,7.32s3.59-3.16,7.46-6.46,5.41-4.44,6.41-5.19c.51-.37.05-.24,2.15-.44s6.6-.54,8.56-.78,1.1.45,0,2.47S230.59,74.14,227.09,75.33Z"/><path class="cls-8" d="M199.17,71.13c-.65.8-.76,1.79-.24,2.21s1.47.13,2.12-.66.76-1.79.24-2.21S199.82,70.34,199.17,71.13Z"/><path class="cls-11" d="M201.29,70.47l-.07,0A1.47,1.47,0,0,1,201,72.3c-.56.69-1.39,1-1.85.58s-.36-1.16.14-1.83l-.08.08c-.65.8-.76,1.79-.24,2.21s1.47.13,2.12-.66S201.81,70.89,201.29,70.47Z"/><path class="cls-8" d="M203.12,70.58c-.65.8-.75,1.79-.23,2.21s1.47.13,2.12-.66.75-1.79.23-2.21S203.78,69.79,203.12,70.58Z"/><path class="cls-11" d="M205.24,69.92l-.06,0a1.5,1.5,0,0,1-.26,1.87c-.57.69-1.4,1-1.85.58s-.37-1.16.13-1.83a.6.6,0,0,1-.08.08c-.65.8-.75,1.79-.23,2.21s1.47.13,2.12-.66S205.76,70.34,205.24,69.92Z"/><path class="cls-8" d="M207.5,70.23c-.65.8-.76,1.79-.24,2.21s1.47.13,2.12-.66.76-1.79.24-2.21S208.15,69.44,207.5,70.23Z"/><path class="cls-11" d="M209.62,69.57l-.07,0c.39.39.28,1.21-.26,1.87s-1.4.95-1.85.58-.36-1.16.14-1.83l-.08.08c-.65.8-.76,1.79-.24,2.21s1.47.13,2.12-.66S210.14,70,209.62,69.57Z"/><path class="cls-8" d="M211.71,69.79c-.65.79-.75,1.78-.23,2.21s1.47.12,2.12-.67.75-1.78.23-2.21S212.36,69,211.71,69.79Z"/><path class="cls-11" d="M213.83,69.12l-.06,0a1.5,1.5,0,0,1-.26,1.87c-.57.7-1.4,1-1.85.58s-.37-1.16.14-1.83a.76.76,0,0,0-.09.09c-.65.79-.75,1.78-.23,2.21s1.47.12,2.12-.67S214.35,69.55,213.83,69.12Z"/><path class="cls-8" d="M216.36,69.5c-.65.8-.76,1.78-.23,2.21s1.46.13,2.12-.66.75-1.79.23-2.21S217,68.71,216.36,69.5Z"/><path class="cls-11" d="M218.48,68.84l-.07,0a1.47,1.47,0,0,1-.26,1.87c-.56.69-1.39,1-1.85.58s-.36-1.16.14-1.84l-.08.09c-.65.8-.76,1.78-.23,2.21s1.46.13,2.12-.66S219,69.26,218.48,68.84Z"/><path class="cls-12" d="M80.1,183.31c.86-.38.33-1-.86-2.44a35.94,35.94,0,0,1-2.49-3.68,9.25,9.25,0,0,0,3.73,0,4.36,4.36,0,0,0,1.82-1.06c1.48.39,3.49,1.06,3.82.58s-.43-1.1-.43-1.1c1.37.72,1.87-.29,1.58-2.08s-3.23-3.87-4.81-4.38a3.93,3.93,0,0,1-1.18-.57l-10.75,8.78c.78.47,1.44.84,1.87,1.17C74.55,180.2,79.24,183.69,80.1,183.31Z"/><path class="cls-7" d="M84.76,164.85c-3.37.07-4.73-1-4.73.93a3.09,3.09,0,0,0,1.25,2.8l4.93-4A4.16,4.16,0,0,1,84.76,164.85Z"/><path class="cls-13" d="M84.76,164.85c-3.37.07-4.73-1-4.73.93a3.09,3.09,0,0,0,1.25,2.8l4.93-4A4.16,4.16,0,0,1,84.76,164.85Z"/><path class="cls-7" d="M107.07,140.68c.29-5-3.88-6.24-6.74-3.45S96.71,146.82,89.25,152c-4.9,3.39-12.07,4.07-15.66,4a45.7,45.7,0,0,0-6.52.52c.47.85.74,1.3.74,1.3a11.1,11.1,0,0,1,8.77-.57c4.52,1.79,5.81,4.08,9.54,3.87,2-.12,2.43,1,1.86,2l20.16-16.46C106.92,146,106.85,144.41,107.07,140.68Z"/><path class="cls-7" d="M64.69,182.12l5.84-4.76c-3.19-1.91-8.35-5.54-7.41-15.48.1-1-2.58-4-2.58-4S54,159,51.36,161c0,0-10.9,5.93-9.37,21.8,1.37,14.25,13.59,25.73,13.59,25.73A27.78,27.78,0,0,0,80,220.08c13.2-2.77,19.9-14.06,19.9-14.06a44,44,0,0,0,6-14.06c2.11-8.61,4.94-10.71,6.29-11.57,4.23-3.08,7.48-1.91,14.13-4.21,10.06-3.47,10-8.14,9-11.69s-5.95-2.83-10.15-4.16-5.16-2.44-4.8-5.2,0-3.56,0-3.56L73.23,191.8Z"/><rect class="cls-5" x="65.57" y="179.48" width="4.3" height="18.66" transform="translate(-107.98 92.03) rotate(-41.42)"/><path class="cls-14" d="M63.16,180.39l-3.23,2.85,12.35,14,3.23-2.84Zm9,16.22-11.5-13,2.75-2.43,11.5,13Z"/><path class="cls-13" d="M135.29,164.49c-1-3.55-5.95-2.83-10.15-4.16s-5.16-2.44-4.8-5.2,0-3.56,0-3.56L73.23,191.8l-8.54-9.68,5.84-4.76c-3.19-1.91-8.35-5.54-7.41-15.48.1-1-2.58-4-2.58-4S54,159,51.36,161c0,0-10.9,5.93-9.37,21.8,1.37,14.25,13.59,25.73,13.59,25.73A27.78,27.78,0,0,0,80,220.08c13.2-2.77,19.9-14.06,19.9-14.06a44,44,0,0,0,6-14.06c2.11-8.61,4.94-10.71,6.29-11.57,4.23-3.08,7.48-1.91,14.13-4.21C136.35,172.71,136.33,168,135.29,164.49Zm-15.69,8.15c-13.35,2.78-13.9-.07-19.75,18s-29.17,28.5-42,16.74-17.29-25.19-13.75-36.23A16.58,16.58,0,0,1,56,159.83c5.1-1.36,5.71,1.5,5.43,5.59s1.52,8.46,3.65,10.34c1.22,1.07,1.51,1.07,0,2.57s-1,1.26-1.9.54-.49-.78-2.33,1c-2.55,2.44-3,2.37-2.47,2.94s11.72,13.74,13,15.17.86,1.08,3.91-1.36c2.18-1.76,2.32-1.24,1.2-2.83-1.53-2.19-1.89-2-.95-2.69s28.93-24.26,33.8-28.61,10.14-10.38,9.28-5.31,3.64,4.49,9.09,5.31S132.94,169.87,119.6,172.64Z"/><path class="cls-13" d="M108.14,146.65c-1.22-.62-1.29-2.24-1.07-6,.29-5-3.88-6.24-6.74-3.45S96.71,146.82,89.25,152c-4.9,3.39-12.07,4.07-15.66,4a45.7,45.7,0,0,0-6.52.52c.47.85.74,1.3.74,1.3a11.1,11.1,0,0,1,8.77-.57c4.52,1.79,5.81,4.08,9.54,3.87,2-.12,2.43,1,1.86,2ZM86.37,159.79c-2.79.5-6.7-1.29-8.17-2.69-.68-.64,2.26-.64,6.38-1.58a17.92,17.92,0,0,0,11.26-8.24c2.28-3.62,3.34-8.65,5.53-9.83s4.66.11,4.66,3.37,1.25,5.38.39,6.17-11.83,9.72-14.54,11.76S89.17,159.29,86.37,159.79Z"/><path class="cls-5" d="M234.5,71l-.45-2.1a112.11,112.11,0,0,1-14.2,1.35l-2.44,2-19.68,16,33.38-11.62Z"/><path class="cls-6" d="M234.5,71l-.45-2.1a112.11,112.11,0,0,1-14.2,1.35l-2.44,2-19.68,16,33.38-11.62Z"/><path class="cls-7" d="M200.7,72.25c-4.54.5-7.71.88-7.75,1-.14.33-.62,5.59-.62,5.59l8.37-6.57Z"/><path class="cls-6" d="M193,73.23c-.14.33-.62,5.59-.62,5.59l8.37-6.57C196.16,72.75,193,73.13,193,73.23Zm.49.42c0-.07,2.29-.34,5.53-.7l-6,4.7S193.34,73.89,193.44,73.65Z"/><path class="cls-8" d="M219.85,70.25c-6.39.65-13.75,1.41-19.15,2h0l-8.37,6.57L119.6,137.5l-11.46,9.15L88,163.11a3.4,3.4,0,0,1-1.77,1.44l-4.93,4a3.93,3.93,0,0,0,1.18.57c1.58.51,4.52,2.59,4.81,4.38s-.21,2.8-1.58,2.08c0,0,.77.62.43,1.1s-2.34-.19-3.82-.58a4.36,4.36,0,0,1-1.82,1.06,9.25,9.25,0,0,1-3.73,0,35.94,35.94,0,0,0,2.49,3.68c1.19,1.48,1.72,2.06.86,2.44s-5.55-3.11-7.7-4.78c-.43-.33-1.09-.7-1.87-1.17l-5.84,4.76,8.54,9.68,47.07-40.23,1.72-1.5,21.13-16.85s1.07-2.77,1.68-4.13-1.11-.86-3.3-1.47-3.08-1-2.83-2.11,3.09-.83,3.09-.83a1.16,1.16,0,0,1-.26-1.4c.34-.72,2.07-.36,3.16-.5a.85.85,0,0,1-.45-1c.2-.68,2.26-1.4,3.57-1.77a1.81,1.81,0,0,1-.39-1.94c.46-1.11,4.23-1.33,6.88-2.37s2.91-.82,3.84,1.8l1,2.22L200.55,85.9l19.3-15.65Z"/><path class="cls-7" d="M234.05,68.9s-7.13.63-14.2,1.35h0L200.55,85.9l29.53-10.6Z"/><line class="cls-9" x1="65.76" y1="183.34" x2="203.9" y2="71.91"/><line class="cls-9" x1="67.39" y1="185.15" x2="208.2" y2="71.57"/><line class="cls-9" x1="68.87" y1="186.87" x2="212.47" y2="71"/><line class="cls-9" x1="70.6" y1="188.59" x2="216.82" y2="70.56"/><path class="cls-10" d="M200.7,72.25l-8.37,6.57L119.6,137.5l-11.46,9.15L88,163.11a3.4,3.4,0,0,1-1.77,1.44l-4.93,4a3.93,3.93,0,0,0,1.18.57c1.58.51,4.52,2.59,4.81,4.38s-.21,2.8-1.58,2.08c0,0,.77.62.43,1.1s-2.34-.19-3.82-.58a4.36,4.36,0,0,1-1.82,1.06,9.25,9.25,0,0,1-3.73,0,35.94,35.94,0,0,0,2.49,3.68c1.19,1.48,1.72,2.06.86,2.44s-5.55-3.11-7.7-4.78c-.43-.33-1.09-.7-1.87-1.17l-5.84,4.76,8.54,9.68,47.07-40.23,1.72-1.5,21.13-16.85s1.07-2.77,1.68-4.13-1.11-.86-3.3-1.47-3.08-1-2.83-2.11,3.09-.83,3.09-.83a1.16,1.16,0,0,1-.26-1.4c.34-.72,2.07-.36,3.16-.5a.85.85,0,0,1-.45-1c.2-.68,2.26-1.4,3.57-1.77a1.81,1.81,0,0,1-.39-1.94c.46-1.11,4.23-1.33,6.88-2.37s2.91-.82,3.84,1.8l1,2.22L200.55,85.9l19.3-15.65C213.46,70.9,206.1,71.66,200.7,72.25Zm1.48,9.07c-4.66,3.69-43.11,34.39-43.11,34.39-1.18-1-1-1.82-4.23-.86s-7.39,2.08-7.77,2.59a4.09,4.09,0,0,0-.37,1.79s-.93.68-2.08,1.36a1.57,1.57,0,0,0-.91,1.65,5.44,5.44,0,0,0-2.21.58c-.93.53-.87,1.11-.76,1.18s-2.5.64-2.79,1.72,1.86,2.2,3.57,2.53.72,2-.26,4.18c-.22.47-24.31,19.19-29.46,23.76C98.58,168,92.34,173.86,90.24,175.76s-6.2,5.63-11,9.65-5.82,4.71-8,2.49c-6-6.15-6-5.07-4-6.71,1.68-1.41,3.12-2.67,3.89-2.21a59.55,59.55,0,0,0,6.29,4.08c2.36,1.16,5.12,1.3,3.4-1.21s-2.87-3.12-1.22-3.34,3.07-1.33,3.49-1.18,3.38,1.21,3.65,0c.14-.66.32-.54,1-1.55s1.76-5-3.09-6.57c-1.57-.5-2.3-.7-.46-2.19,4.8-3.87,24.64-20.16,30.77-25.1,4.59-3.7,83.5-67.36,84.93-68.54s1-.79,2.83-.9,10.41-.89,11.51-1S207.45,77.14,202.18,81.32Z"/><path class="cls-6" d="M219.85,70.25,200.55,85.9l29.53-10.6,4-6.4S226.92,69.53,219.85,70.25Zm7.24,5.08c-3.49,1.2-19,6.74-20.8,7.32s3.59-3.16,7.46-6.46,5.41-4.44,6.41-5.19c.51-.37.05-.24,2.15-.44s6.6-.54,8.56-.78,1.1.45,0,2.47S230.59,74.14,227.09,75.33Z"/><path class="cls-8" d="M199.17,71.13c-.65.8-.76,1.79-.24,2.21s1.47.13,2.12-.66.76-1.79.24-2.21S199.82,70.34,199.17,71.13Z"/><path class="cls-11" d="M201.29,70.47l-.07,0A1.47,1.47,0,0,1,201,72.3c-.56.69-1.39,1-1.85.58s-.36-1.16.14-1.83l-.08.08c-.65.8-.76,1.79-.24,2.21s1.47.13,2.12-.66S201.81,70.89,201.29,70.47Z"/><path class="cls-8" d="M203.12,70.58c-.65.8-.75,1.79-.23,2.21s1.47.13,2.12-.66.75-1.79.23-2.21S203.78,69.79,203.12,70.58Z"/><path class="cls-11" d="M205.24,69.92l-.06,0a1.5,1.5,0,0,1-.26,1.87c-.57.69-1.4,1-1.85.58s-.37-1.16.13-1.83a.6.6,0,0,1-.08.08c-.65.8-.75,1.79-.23,2.21s1.47.13,2.12-.66S205.76,70.34,205.24,69.92Z"/><path class="cls-8" d="M207.5,70.23c-.65.8-.76,1.79-.24,2.21s1.47.13,2.12-.66.76-1.79.24-2.21S208.15,69.44,207.5,70.23Z"/><path class="cls-11" d="M209.62,69.57l-.07,0c.39.39.28,1.21-.26,1.87s-1.4.95-1.85.58-.36-1.16.14-1.83l-.08.08c-.65.8-.76,1.79-.24,2.21s1.47.13,2.12-.66S210.14,70,209.62,69.57Z"/><path class="cls-8" d="M211.71,69.79c-.65.79-.75,1.78-.23,2.21s1.47.12,2.12-.67.75-1.78.23-2.21S212.36,69,211.71,69.79Z"/><path class="cls-11" d="M213.83,69.12l-.06,0a1.5,1.5,0,0,1-.26,1.87c-.57.7-1.4,1-1.85.58s-.37-1.16.14-1.83a.76.76,0,0,0-.09.09c-.65.79-.75,1.78-.23,2.21s1.47.12,2.12-.67S214.35,69.55,213.83,69.12Z"/><path class="cls-8" d="M216.36,69.5c-.65.8-.76,1.78-.23,2.21s1.46.13,2.12-.66.75-1.79.23-2.21S217,68.71,216.36,69.5Z"/><path class="cls-11" d="M218.48,68.84l-.07,0a1.47,1.47,0,0,1-.26,1.87c-.56.69-1.39,1-1.85.58s-.36-1.16.14-1.84l-.08.09c-.65.8-.76,1.78-.23,2.21s1.46.13,2.12-.66S219,69.26,218.48,68.84Z"/><path class="cls-7" d="M84.76,164.85c-3.37.07-4.73-1-4.73.93a3.09,3.09,0,0,0,1.25,2.8l4.93-4A4.16,4.16,0,0,1,84.76,164.85Z"/><path class="cls-13" d="M84.76,164.85c-3.37.07-4.73-1-4.73.93a3.09,3.09,0,0,0,1.25,2.8l4.93-4A4.16,4.16,0,0,1,84.76,164.85Z"/><path class="cls-7" d="M107.07,140.68c.29-5-3.88-6.24-6.74-3.45S96.71,146.82,89.25,152c-4.9,3.39-12.07,4.07-15.66,4a45.7,45.7,0,0,0-6.52.52c.47.85.74,1.3.74,1.3a11.1,11.1,0,0,1,8.77-.57c4.52,1.79,5.81,4.08,9.54,3.87,2-.12,2.43,1,1.86,2l20.16-16.46C106.92,146,106.85,144.41,107.07,140.68Z"/><path class="cls-7" d="M64.69,182.12l5.84-4.76c-3.19-1.91-8.35-5.54-7.41-15.48.1-1-2.58-4-2.58-4S54,159,51.36,161c0,0-10.9,5.93-9.37,21.8,1.37,14.25,13.59,25.73,13.59,25.73A27.78,27.78,0,0,0,80,220.08c13.2-2.77,19.9-14.06,19.9-14.06a44,44,0,0,0,6-14.06c2.11-8.61,4.94-10.71,6.29-11.57,4.23-3.08,7.48-1.91,14.13-4.21,10.06-3.47,10-8.14,9-11.69s-5.95-2.83-10.15-4.16-5.16-2.44-4.8-5.2,0-3.56,0-3.56L73.23,191.8Z"/><path class="cls-5" d="M135.29,164.49a3.41,3.41,0,0,0-1.56-2c.89,3.48.48,7.89-9.13,11.21-6.65,2.3-9.9,1.13-14.13,4.21-1.35.86-4.18,3-6.29,11.57a44,44,0,0,1-6,14.06s-6.7,11.29-19.9,14.06A27.78,27.78,0,0,1,53.89,206,51.06,51.06,0,0,1,48,199.07a53.32,53.32,0,0,0,7.55,9.44A27.78,27.78,0,0,0,80,220.08c13.2-2.77,19.9-14.06,19.9-14.06a44,44,0,0,0,6-14.06c2.11-8.61,4.94-10.71,6.29-11.57,4.23-3.08,7.48-1.91,14.13-4.21C136.35,172.71,136.33,168,135.29,164.49Z"/><rect class="cls-5" x="65.57" y="179.48" width="4.3" height="18.66" transform="translate(-107.98 92.03) rotate(-41.42)"/><path class="cls-14" d="M63.16,180.39l-3.23,2.85,12.35,14,3.23-2.84Zm9,16.22-11.5-13,2.75-2.43,11.5,13Z"/><path class="cls-13" d="M135.29,164.49c-1-3.55-5.95-2.83-10.15-4.16s-5.16-2.44-4.8-5.2,0-3.56,0-3.56L73.23,191.8l-8.54-9.68,5.84-4.76c-3.19-1.91-8.35-5.54-7.41-15.48.1-1-2.58-4-2.58-4S54,159,51.36,161c0,0-10.9,5.93-9.37,21.8,1.37,14.25,13.59,25.73,13.59,25.73A27.78,27.78,0,0,0,80,220.08c13.2-2.77,19.9-14.06,19.9-14.06a44,44,0,0,0,6-14.06c2.11-8.61,4.94-10.71,6.29-11.57,4.23-3.08,7.48-1.91,14.13-4.21C136.35,172.71,136.33,168,135.29,164.49Zm-15.69,8.15c-13.35,2.78-13.9-.07-19.75,18s-29.17,28.5-42,16.74-17.29-25.19-13.75-36.23A16.58,16.58,0,0,1,56,159.83c5.1-1.36,5.71,1.5,5.43,5.59s1.52,8.46,3.65,10.34c1.22,1.07,1.51,1.07,0,2.57s-1,1.26-1.9.54-.49-.78-2.33,1c-2.55,2.44-3,2.37-2.47,2.94s11.72,13.74,13,15.17.86,1.08,3.91-1.36c2.18-1.76,2.32-1.24,1.2-2.83-1.53-2.19-1.89-2-.95-2.69s28.93-24.26,33.8-28.61,10.14-10.38,9.28-5.31,3.64,4.49,9.09,5.31S132.94,169.87,119.6,172.64Z"/><path class="cls-13" d="M108.14,146.65c-1.22-.62-1.29-2.24-1.07-6,.29-5-3.88-6.24-6.74-3.45S96.71,146.82,89.25,152c-4.9,3.39-12.07,4.07-15.66,4a45.7,45.7,0,0,0-6.52.52c.47.85.74,1.3.74,1.3a11.1,11.1,0,0,1,8.77-.57c4.52,1.79,5.81,4.08,9.54,3.87,2-.12,2.43,1,1.86,2ZM86.37,159.79c-2.79.5-6.7-1.29-8.17-2.69-.68-.64,2.26-.64,6.38-1.58a17.92,17.92,0,0,0,11.26-8.24c2.28-3.62,3.34-8.65,5.53-9.83s4.66.11,4.66,3.37,1.25,5.38.39,6.17-11.83,9.72-14.54,11.76S89.17,159.29,86.37,159.79Z"/><g class="cls-4"><path class="cls-7" d="M49.5,163.15s-.19.2-.5.58a18.56,18.56,0,0,0-1.24,1.77l-.38.62-.38.71a16.38,16.38,0,0,0-.78,1.62,19.07,19.07,0,0,0-.73,1.91c-.23.68-.39,1.42-.62,2.17s-.31,1.58-.41,2.42c0,.42-.07.85-.1,1.29l-.06.65c0,.23,0,.45,0,.67,0,.45,0,.91,0,1.37a11.11,11.11,0,0,0,.1,1.4,20.44,20.44,0,0,0,.39,2.86,23.23,23.23,0,0,0,.67,2.92c.14.49.29,1,.43,1.47.08.25.14.5.22.74l.29.73c.39.95.74,2,1.17,2.9s.93,1.92,1.39,2.89l1.56,2.75c.56.9,1.16,1.76,1.73,2.63s1.27,1.64,1.9,2.45,1.35,1.52,2,2.22a27.93,27.93,0,0,0,4.48,3.54,22,22,0,0,0,4.6,2.22c.38.13.76.22,1.12.33s.72.22,1.08.27l1,.18.5.09.49,0a20.05,20.05,0,0,0,3.35,0l1.23-.14c.36-.06.66-.13.91-.18l.75-.15,0,.11-.75.18-.91.2-1.24.17a19.61,19.61,0,0,1-3.4.05l-.49,0-.52-.08-1.06-.16a9.27,9.27,0,0,1-1.11-.25c-.37-.09-.76-.17-1.15-.29a22.35,22.35,0,0,1-4.76-2.15,27.43,27.43,0,0,1-4.66-3.52c-.73-.71-1.42-1.47-2.15-2.22s-1.33-1.62-2-2.46-1.23-1.75-1.81-2.65-1.11-1.86-1.66-2.8-1-1.9-1.46-2.85-.86-2-1.29-3l-.31-.74c-.1-.24-.17-.5-.25-.75l-.48-1.51a23.27,23.27,0,0,1-.73-3,22.27,22.27,0,0,1-.39-3,21.56,21.56,0,0,1,0-2.89c0-.23,0-.47,0-.7s.05-.46.08-.68c0-.45.11-.9.16-1.34.13-.87.36-1.7.52-2.5s.47-1.53.76-2.22a20.36,20.36,0,0,1,.87-1.92,16.79,16.79,0,0,1,.92-1.61l.44-.69.45-.6a15.81,15.81,0,0,1,1.42-1.67c.36-.36.57-.53.57-.53Z"/></g><g class="cls-4"><path class="cls-15" d="M90.68,162.41l53.25-43.77,19.57-16.06c3.14-2.54,6.16-5,9.06-7.31l8.16-6.51,6.93-5.46c2.06-1.62,3.86-3,5.36-4.18l4.69-3.63a.06.06,0,0,1,.08,0,.06.06,0,0,1,0,.08l-4.51,3.85c-1.43,1.22-3.18,2.7-5.2,4.38l-6.76,5.66-8,6.65c-2.85,2.37-5.89,4.82-9,7.38l-19.74,15.85L90.75,162.5a.05.05,0,0,1-.08,0A.05.05,0,0,1,90.68,162.41Z"/></g><path class="cls-16" d="M170.05,37.22c-1-7.75-7-8.61-10.33-12.53a10.53,10.53,0,0,0-7.37-3.92c6.79-.1,6.32-6.89,6.32-6.89C154,18.66,149.29,15.8,143,9.2,135.44,1.31,113.14-.18,108.65,0,85.4,1,79.09,8.14,76.32,10.73S65.9,18,58.72,28a27.77,27.77,0,0,0-4.66,20.82c-2.3,7.53,1.15,17.22,1.51,14.28s1-3.73,1-3.73c-1,3.73.65,11.62.79,7.46s3.37-8.47,3.37-8.47C55,70.67,68.48,84.58,66.47,81.14s-.65-11.26-.65-11.26a36.49,36.49,0,0,0,1.58,7.17C70.54,86.29,77.16,88,77.16,88c-3.09-3.58-3.09-10-3.09-10A18.77,18.77,0,0,0,81,88.39s-2.46-6.75-2.65-17.51a4.2,4.2,0,0,1-6.58,1.58c-4.45-3-4.69-11.19-2.92-14.34s9.2-3.2,9.57,4c.23,4.59,1.19,10,2.58,10.62S77.37,57.83,92.58,46.64c0,0,10.23-.72,16.64-6.17,0,0-3.92,5.55-10.14,6.79,0,0,24,3.25,29.08-21.28a17,17,0,0,1,2.29,16.36C126.86,51.66,121.27,53,121.27,53s3.59,1.95,8.75-.78c0,0,3.44,2.57,8.82.78a14.4,14.4,0,0,1-6.67,4.81s7.68,3.94,17.72-2.23c0,0,.5,2.73-2.65,7.75,5.35-.43,9.27-6.74,9.27-6.74-2.2,5.07-5.74,7.51-5.26,7.75s11.34-2,15.54-8.33S171,45,170.05,37.22Z"/><path class="cls-17" d="M150.37,17.39s-.41-.47-1.05-1.16L148.23,15c-.38-.44-.83-.89-1.26-1.34s-.88-.9-1.27-1.33-.78-.82-1.08-1.18-.55-.67-.71-.9-.25-.35-.25-.35h0a.06.06,0,0,1,0,0h0l.36.25c.23.17.53.42.89.72s.78.68,1.2,1.1.78.94,1.17,1.43.82,1,1.18,1.43l1,1.28c.58.75.95,1.26.95,1.26a.06.06,0,0,1,0,0Z"/><path class="cls-18" d="M94.57,11.47A33.17,33.17,0,0,1,99.88,9a37.36,37.36,0,0,1,5.78-1.63c1.08-.22,2.21-.37,3.36-.49a31.5,31.5,0,0,1,3.51-.13,29.14,29.14,0,0,1,3.51.28l1.7.31c.55.14,1.1.26,1.63.42a23.82,23.82,0,0,1,3,1.13l1.33.65,1.19.69c.39.21.73.48,1.06.7s.65.44.93.67c.55.45,1.06.82,1.42,1.18l1.18,1.11a0,0,0,0,1,0,0,0,0,0,0,1,0,0l-1.26-1c-.4-.32-.92-.65-1.49-1.07-.29-.22-.62-.39-1-.61s-.68-.44-1.07-.63L123.46,10l-1.32-.6c-.46-.2-.94-.36-1.42-.56s-1-.33-1.52-.5-1-.28-1.59-.43-1.1-.23-1.66-.33a27.67,27.67,0,0,0-3.43-.36,30.65,30.65,0,0,0-3.46.06c-1.14.1-2.26.23-3.33.43s-2.11.43-3.08.67-1.87.53-2.7.82A38.47,38.47,0,0,0,96,10.79c-.92.44-1.43.73-1.43.73h0S94.56,11.47,94.57,11.47Z"/><path class="cls-18" d="M126.16,5.87a5.63,5.63,0,0,1,1.08.92,6.22,6.22,0,0,1,.45.53,6.37,6.37,0,0,1,.45.63,10.46,10.46,0,0,1,.78,1.49c.1.27.22.53.3.8s.17.54.23.8.09.53.12.77,0,.48,0,.7a6.93,6.93,0,0,1-.06,1l-.06.39s0,0,0,0l0,0s0-.14-.09-.38-.05-.27-.08-.44a4.78,4.78,0,0,0-.1-.56c0-.2-.08-.42-.13-.66s-.1-.47-.15-.72-.12-.51-.17-.78-.14-.52-.21-.79a9.43,9.43,0,0,0-.64-1.48c-.12-.23-.25-.44-.38-.64s-.26-.39-.38-.56a5.76,5.76,0,0,0-1-1,0,0,0,0,1,0,0Z"/><path class="cls-18" d="M143.2,17.39a17.89,17.89,0,0,0-1.9-1.32c-.3-.17-.62-.37-1-.55s-.73-.38-1.12-.56-.81-.34-1.23-.51-.86-.3-1.3-.43-.89-.23-1.33-.28a10.12,10.12,0,0,0-1.31-.15,10.27,10.27,0,0,0-1.22-.06,6.38,6.38,0,0,0-1.09.05l-.94.1c-.27.06-.5.12-.7.15l-.63.13h0s0,0,0,0l0,0,.59-.26.69-.28c.28-.07.59-.16.94-.23a7.82,7.82,0,0,1,1.15-.15,6.87,6.87,0,0,1,1.28,0,9.38,9.38,0,0,1,1.36.22c.46.08.91.25,1.36.37s.89.32,1.32.5.84.37,1.23.58.76.41,1.1.63.66.42.95.61a18.27,18.27,0,0,1,1.83,1.45,0,0,0,0,1,0,0Z"/><path class="cls-18" d="M63.91,33.22s-.27.26-.72.74-1.06,1.18-1.78,2c-.34.45-.73.91-1.12,1.42s-.8,1.05-1.19,1.62-.8,1.17-1.2,1.79-.75,1.27-1.13,1.91-.67,1.32-1,2-.58,1.32-.82,2-.48,1.28-.66,1.88-.36,1.19-.48,1.73-.2,1-.28,1.48a3.57,3.57,0,0,0-.07.63c0,.19,0,.37-.05.53-.06.66-.1,1-.1,1h0a0,0,0,0,1,0,0s0,0,0,0,0-.37,0-1a9.19,9.19,0,0,1,0-1.19c0-.46.09-1,.16-1.54s.26-1.15.4-1.79.41-1.27.63-1.94.59-1.32.89-2,.71-1.33,1.09-2,.77-1.29,1.2-1.89.83-1.21,1.26-1.77.84-1.1,1.25-1.6.82-1,1.18-1.37c.76-.84,1.4-1.52,1.87-2s.74-.71.74-.71h0A0,0,0,0,1,63.91,33.22Z"/><path class="cls-18" d="M63,47.86a10,10,0,0,0-1.83,1.51c-.26.25-.51.55-.78.85s-.53.65-.78,1c-.12.18-.26.36-.38.55l-.36.6c-.25.39-.43.83-.65,1.25s-.35.87-.53,1.3-.27.88-.4,1.3-.21.84-.33,1.23-.16.77-.24,1.12-.16.66-.18.95-.08.54-.12.75c-.07.41-.12.65-.12.65s0,0,0,0,0,0,0,0,0-.24,0-.66c0-.21,0-.47,0-.76a7.08,7.08,0,0,1,.06-1c0-.36.07-.76.15-1.17s.19-.83.29-1.28.32-.87.48-1.32.39-.89.62-1.32.45-.86.73-1.25l.39-.59c.13-.19.28-.37.42-.55a12.3,12.3,0,0,1,.84-1c.3-.29.57-.57.84-.81A10.64,10.64,0,0,1,63,47.81s0,0,0,0S63.05,47.85,63,47.86Z"/><path class="cls-18" d="M64.7,53.31a3,3,0,0,0-.46.28c-.14.09-.3.22-.49.37s-.37.34-.56.56a7.81,7.81,0,0,0-.6.73c-.19.27-.39.56-.58.87a10.36,10.36,0,0,0-.53,1l-.24.52-.22.55c-.14.36-.26.73-.37,1.1,0,.18-.11.36-.16.54s-.09.36-.14.54c-.09.35-.2.68-.27,1s-.16.63-.24.92c-.16.56-.24,1.05-.34,1.38s-.15.52-.15.52,0,0,0,0a0,0,0,0,1,0,0s0-.2,0-.55c0-.17,0-.39,0-.63s0-.51.07-.81.09-.61.14-1,.17-.69.25-1c0-.18.1-.37.16-.55s.13-.36.2-.55A11.63,11.63,0,0,1,60.6,58l.25-.55.28-.52c.18-.35.4-.67.6-1a10.16,10.16,0,0,1,.65-.86,9.1,9.1,0,0,1,.66-.7,6.83,6.83,0,0,1,.63-.53c.19-.14.37-.26.52-.35a3.73,3.73,0,0,1,.49-.24s0,0,0,0A0,0,0,0,1,64.7,53.31Z"/><path class="cls-18" d="M66.5,65.63a9.31,9.31,0,0,0-.29,1.48,15.77,15.77,0,0,0-.1,3.29,8.65,8.65,0,0,0,.1.89c0,.29.09.57.13.84s.1.54.13.8.08.49.12.71.06.43.1.61.08.33.1.46l.06.42s0,0,0,0l0,0s-.08-.13-.2-.37a6.06,6.06,0,0,1-.45-1,4.68,4.68,0,0,1-.22-.72,6.42,6.42,0,0,1-.18-.81,8.65,8.65,0,0,1-.08-.89c0-.31,0-.61,0-.92a15,15,0,0,1,.09-1.8A13.14,13.14,0,0,1,66,67.08a10.28,10.28,0,0,1,.43-1.47s0,0,0,0S66.5,65.62,66.5,65.63Z"/><path class="cls-18" d="M92.79,19.83a9.83,9.83,0,0,1-2.11,1.63,10.33,10.33,0,0,1-2.47,1l-.66.15c-.22,0-.44.06-.66.09a10.17,10.17,0,0,1-1.35.06,12,12,0,0,1-1.34-.16,8.4,8.4,0,0,1-1.31-.34l-.64-.22c-.22-.09-.41-.18-.61-.28s-.41-.18-.6-.28l-.59-.35a10.68,10.68,0,0,1-1.12-.78,8.7,8.7,0,0,1-1-1,3.71,3.71,0,0,1-.42-.54,5.72,5.72,0,0,1-.37-.58A7.3,7.3,0,0,1,77,17.06a6.91,6.91,0,0,1-.29-1.35,5.88,5.88,0,0,1,0-1.39l.46.13a16,16,0,0,0-.63,2.28,15.57,15.57,0,0,0-.3,2.35c0,.39,0,.79,0,1.18s.06.78.11,1.17a8.88,8.88,0,0,0,.24,1.14,11,11,0,0,0,.38,1.1c.07.18.16.35.25.53a3.6,3.6,0,0,0,.29.5,7.1,7.1,0,0,0,.69.94l.4.43.44.38a8.27,8.27,0,0,0,.94.71,9.34,9.34,0,0,0,1,.57,10.69,10.69,0,0,0,1.1.47c.37.15.76.25,1.14.38l1.17.29s0,0,0,0,0,0,0,0l-1.19-.2c-.39-.1-.79-.17-1.18-.29a12.38,12.38,0,0,1-2.25-1,4.59,4.59,0,0,1-.52-.33,3.61,3.61,0,0,1-.51-.36c-.15-.13-.32-.26-.47-.4L77.88,26a6.65,6.65,0,0,1-.77-1,3.55,3.55,0,0,1-.32-.53,4.92,4.92,0,0,1-.29-.56,7.66,7.66,0,0,1-.43-1.16c-.11-.4-.2-.81-.27-1.22s-.1-.82-.11-1.23,0-.82,0-1.23a15.3,15.3,0,0,1,.35-2.43,15.12,15.12,0,0,1,.71-2.35.24.24,0,0,1,.31-.13.25.25,0,0,1,.15.26h0a4.8,4.8,0,0,0,0,1.26,5.5,5.5,0,0,0,.24,1.26,6.52,6.52,0,0,0,.5,1.19,5.46,5.46,0,0,0,.34.55,3.14,3.14,0,0,0,.39.51,8.86,8.86,0,0,0,.9.94,9.65,9.65,0,0,0,1.05.76l.56.34c.19.11.4.2.59.3l.6.28L83,22a9.07,9.07,0,0,0,1.26.36,11.6,11.6,0,0,0,1.3.18,9.52,9.52,0,0,0,1.31,0c.22,0,.44,0,.66-.07l.65-.13a9.13,9.13,0,0,0,1.25-.41,8.73,8.73,0,0,0,1.2-.56,9.93,9.93,0,0,0,2.13-1.57h0A0,0,0,0,1,92.79,19.83Z"/><path class="cls-18" d="M77.07,24.37s0,.21.06.57a7.2,7.2,0,0,0,.41,1.45,7.35,7.35,0,0,0,.45.88l.31.45.36.43.42.39c.15.13.32.24.48.36a5.37,5.37,0,0,0,1.07.54,6.93,6.93,0,0,0,1.16.33l1.18.15c.39.06.73,0,1.08,0a2,2,0,0,0,.49,0l.46-.06a5.77,5.77,0,0,0,.77-.26,2.65,2.65,0,0,0,.54-.32,1.85,1.85,0,0,0,.31-.27c.07-.07.1-.12.1-.11a0,0,0,0,1,0,0s0,0,0,0a1.19,1.19,0,0,1-.06.14,1.81,1.81,0,0,1-.26.36,2.22,2.22,0,0,1-.52.47,5,5,0,0,1-.8.41,6.27,6.27,0,0,1-1,.22l-.59,0a3,3,0,0,1-.6,0c-.4-.07-.77-.12-1.21-.21a6.58,6.58,0,0,1-1.22-.44,5.69,5.69,0,0,1-1.13-.64l-.49-.4c-.14-.15-.29-.3-.42-.45l-.37-.47-.29-.49a6.81,6.81,0,0,1-.41-.95A6.61,6.61,0,0,1,77,25a4.12,4.12,0,0,1,0-.58,0,0,0,0,1,0,0A0,0,0,0,1,77.07,24.37Z"/><path class="cls-18" d="M90.69,26.81a17.58,17.58,0,0,1-.92,1.76,22,22,0,0,1-3.17,4.16,15.84,15.84,0,0,1-6.22,4,14.22,14.22,0,0,1-4.15.71,16.27,16.27,0,0,1-4.32-.52l-.53-.12s-.06,0,0,0,0,0,.1,0a.24.24,0,0,0,.11-.18c0-.08,0,0,0-.06s0,0,0,0l0,0a1.33,1.33,0,0,0,.17.16,6.48,6.48,0,0,0,.85.6,13.69,13.69,0,0,0,1.87,1,16.22,16.22,0,0,0,3.94,1.1,15.14,15.14,0,0,0,7.16-.64,17.47,17.47,0,0,0,2.66-1.19,21.94,21.94,0,0,0,1.91-1.2c.51-.37.9-.67,1.16-.89l.4-.33a0,0,0,0,1,0,0s0,0,0,0l-.38.35c-.24.24-.61.57-1.1,1a17.54,17.54,0,0,1-1.87,1.33A14.87,14.87,0,0,1,82.28,40a14.64,14.64,0,0,1-4,0,15.94,15.94,0,0,1-4.06-1.19,13.79,13.79,0,0,1-1.93-1,6.91,6.91,0,0,1-.9-.66,1.39,1.39,0,0,1-.21-.21l-.06-.08,0-.07v0s0,0,0-.09a.25.25,0,0,1,.14-.23.36.36,0,0,1,.16,0l.11,0,.52.14a16.16,16.16,0,0,0,4.2.56,13.3,13.3,0,0,0,4-.63,15.66,15.66,0,0,0,6.17-3.81,21.08,21.08,0,0,0,3.24-4.06,16.38,16.38,0,0,0,1-1.74s0,0,0,0S90.7,26.79,90.69,26.81Z"/><path class="cls-18" d="M76.52,39.22a11.45,11.45,0,0,0,2.58,1.21c.4.16.85.26,1.32.4s1,.23,1.51.28l.81.11.82,0a15.89,15.89,0,0,0,1.69,0c.57,0,1.13-.14,1.68-.21l1.59-.37c.5-.15,1-.31,1.46-.43s.89-.33,1.29-.48a8.67,8.67,0,0,0,1.08-.43l.82-.37.73-.31s0,0,0,0,0,0,0,0l-.66.44a13.67,13.67,0,0,1-1.82,1c-.4.18-.81.4-1.28.57s-1,.33-1.5.5L87,41.55c-.57.05-1.15.12-1.73.14a14.35,14.35,0,0,1-1.74,0l-.84-.07-.82-.14a15.68,15.68,0,0,1-1.53-.35c-.47-.17-.92-.29-1.32-.47a11.35,11.35,0,0,1-2.54-1.36s0,0,0,0Z"/><path class="cls-18" d="M105.9,29.38a15.23,15.23,0,0,1-.57,1.46,25.26,25.26,0,0,1-2,3.64A23.6,23.6,0,0,1,99.66,39,20.55,20.55,0,0,1,97.07,41a19.83,19.83,0,0,1-6.22,2.8,16.17,16.17,0,0,1-1.65.35,15.29,15.29,0,0,1-1.62.21c-.54.06-1.08.05-1.59.08h-.2c.06,0-.05,0,0,0a.14.14,0,0,0,.11-.07c0-.05,0-.05,0-.08h0a.37.37,0,0,0,.06.1,2,2,0,0,0,.44.48,6.87,6.87,0,0,0,2.33,1.22,10.58,10.58,0,0,0,2.24.43,13.33,13.33,0,0,0,1.77,0c.49,0,.88-.09,1.14-.13l.4-.06a0,0,0,0,1,0,0s0,0,0,0l-.39.1c-.26.07-.65.15-1.14.23a10.7,10.7,0,0,1-1.81.11,9.4,9.4,0,0,1-2.34-.33A7.49,7.49,0,0,1,86,45.36a3.25,3.25,0,0,1-.58-.59,2.42,2.42,0,0,1-.12-.23s0-.12,0-.18a.45.45,0,0,1,.07-.26.48.48,0,0,1,.26-.18l.15,0H86c.5,0,1,0,1.54-.08s1.06-.09,1.59-.19,1.07-.18,1.61-.3a19.33,19.33,0,0,0,3.18-1,18.27,18.27,0,0,0,3-1.58,21.22,21.22,0,0,0,2.58-2,24.8,24.8,0,0,0,3.78-4.36,27.69,27.69,0,0,0,2-3.56c.41-.91.6-1.44.6-1.44s0,0,0,0S105.9,29.37,105.9,29.38Z"/><path class="cls-18" d="M113.65,30.72a13.29,13.29,0,0,1-.31,2.15c-.06.32-.16.66-.25,1s-.22.74-.36,1.12a18.48,18.48,0,0,1-1,2.36c-.18.4-.41.77-.62,1.16s-.46.72-.68,1.07-.5.64-.74.93a9.09,9.09,0,0,1-.73.77,6,6,0,0,1-.66.61c-.2.17-.38.32-.54.43s-.48.36-.48.36h0a.06.06,0,0,1,0,0l.37-.46c.12-.15.27-.33.45-.52s.34-.44.55-.69.43-.51.64-.81.46-.6.68-.93.48-.66.71-1,.48-.71.68-1.09a18.87,18.87,0,0,0,1.11-2.26c.16-.37.27-.74.41-1.08s.23-.69.31-1a13.3,13.3,0,0,0,.45-2.11s0,0,0,0A0,0,0,0,1,113.65,30.72Z"/><path class="cls-18" d="M139.28,34.06a18,18,0,0,1,0,3.64c0,.54-.12,1.13-.23,1.75s-.25,1.27-.42,1.93a20.22,20.22,0,0,1-1.57,4,19.48,19.48,0,0,1-1.15,1.87c-.21.3-.42.6-.65.87s-.45.54-.69.79a9.88,9.88,0,0,1-.73.72,8.57,8.57,0,0,1-.73.64c-.49.4-1,.74-1.44,1s-.9.55-1.31.75-.74.38-1,.49l-.93.37s0,0,0,0a0,0,0,0,1,0,0l.87-.5c.28-.15.59-.37,1-.6s.76-.54,1.21-.83.89-.68,1.34-1.1c.24-.2.46-.42.69-.64a9.28,9.28,0,0,0,.69-.71c.24-.23.46-.49.69-.75s.44-.54.65-.81a16.63,16.63,0,0,0,1.18-1.78,19.13,19.13,0,0,0,1.66-3.87,23.07,23.07,0,0,0,.77-3.61,18.11,18.11,0,0,0,.13-3.61s0,0,0,0A0,0,0,0,1,139.28,34.06Z"/><path class="cls-18" d="M146,25l.37.25a12,12,0,0,1,1,.81,13.42,13.42,0,0,1,1.33,1.46,13.44,13.44,0,0,1,2,3.49c.08.24.17.48.26.73s.13.51.2.77.13.52.2.79.07.55.11.83.07.57.11.85,0,.58,0,.88a10.65,10.65,0,0,1-.05,1.78c0,.3-.05.61-.08.91l0,.46-.09.45-.36,1.83L150.33,43l-.14.45a1.53,1.53,0,0,1-.07.24l-.09.21-.37.86a9.76,9.76,0,0,1-.87,1.66,13.33,13.33,0,0,1-2.32,2.82c-.43.41-.91.74-1.36,1.1s-.94.61-1.41.89-.95.49-1.41.7-.92.39-1.37.54a20.31,20.31,0,0,1-4.41,1,16.33,16.33,0,0,1-1.71.1,0,0,0,0,1,0,0,0,0,0,0,1,0,0,15.45,15.45,0,0,0,1.68-.24c.53-.11,1.17-.24,1.9-.44a23.56,23.56,0,0,0,2.38-.79c.44-.16.86-.38,1.32-.57s.88-.48,1.35-.72.89-.58,1.34-.89.89-.67,1.3-1.07a13.53,13.53,0,0,0,2.26-2.66,10.51,10.51,0,0,0,.88-1.58l.38-.85.09-.21a.93.93,0,0,0,.07-.2l.14-.44c.19-.59.38-1.18.56-1.76l.39-1.79c0-.15.07-.29.09-.44l0-.45c0-.3.07-.59.1-.89a11.44,11.44,0,0,0,.07-1.75,8.23,8.23,0,0,0,0-.86l-.09-.83c0-.27-.05-.55-.1-.82s-.11-.52-.17-.78-.1-.52-.18-.76l-.24-.72a10,10,0,0,0-.55-1.33,12.46,12.46,0,0,0-1.3-2.16,12.72,12.72,0,0,0-1.27-1.47c-.39-.37-.72-.64-1-.82l-.36-.26s0,0,0,0S146,24.94,146,25Z"/><path class="cls-18" d="M160.7,38.06a9.42,9.42,0,0,1,.14,1.17c0,.38,0,.84,0,1.36s-.11,1.1-.2,1.74c-.06.32-.15.64-.23,1a5.82,5.82,0,0,1-.3,1c-.12.34-.22.72-.38,1.07l-.5,1.08a10.38,10.38,0,0,1-.59,1.08c-.23.35-.41.73-.67,1.07l-.77,1c-.13.17-.25.35-.39.51l-.44.48-.88,1a10.88,10.88,0,0,1-.94.86A17.55,17.55,0,0,1,152.6,54l-1,.67a7.81,7.81,0,0,1-1,.61l-1.83,1a12,12,0,0,1-1.6.72l-1.26.51-1.1.42,0,0s0,0,0,0l1-.55,1.2-.61.73-.37c.27-.13.51-.31.79-.46l1.77-1c.62-.38,1.23-.85,1.88-1.29a19.15,19.15,0,0,0,1.93-1.49A16.59,16.59,0,0,0,156,50.35l.44-.46c.14-.15.27-.32.4-.49l.78-1c.26-.33.45-.69.68-1s.45-.68.61-1,.34-.71.51-1.05.27-.7.41-1a7.93,7.93,0,0,0,.33-1c.08-.33.18-.65.25-1a13.59,13.59,0,0,0,.25-1.71,11.19,11.19,0,0,0,.06-1.34,9.42,9.42,0,0,0-.09-1.17s0,0,0,0S160.7,38.05,160.7,38.06Z"/><path class="cls-18" d="M158.79,49s-.1.84-.36,2.1a34.38,34.38,0,0,1-1.25,4.52l-.44,1.2c-.17.39-.33.78-.51,1.14s-.36.71-.57,1-.4.6-.59.86-.39.48-.56.68A3.75,3.75,0,0,1,154,61l-.43.4h0a.06.06,0,0,1,0,0l.33-.49c.09-.16.24-.33.37-.55s.27-.48.44-.74c.31-.55.66-1.19,1-1.9.18-.34.35-.72.54-1.08l.51-1.15c.16-.39.32-.78.46-1.18s.28-.77.4-1.15c.25-.75.45-1.47.63-2.08.33-1.23.49-2.06.49-2.06s0,0,0,0A.05.05,0,0,1,158.79,49Z"/><path class="cls-19" d="M170.05,37.22c-1-7.75-7-8.61-10.33-12.53a10.53,10.53,0,0,0-7.37-3.92c5.93-.08,6.32-5.26,6.32-6.58-.85,2.49-3.06,5.86-8.75,6.06-2,.07,1.34.25,4.27,1.38,4,1.52,4,4.17,8.61,6.79s7.41,5.58,7.1,15.77c-.35,11.92-15.45,21.38-13.05,15.07,2.77-7.29,6.39-14.27,4-22.16-1.91-6.16,2.95,4.41-5.66,12.71-4.75,4.57-8.58,3.78-6.54-.37,1.88-3.84,4.33-11.25,1.59-19.18,0,0,1.53,14.13-6,18-2.77,1.44-5.86-.43-4.91-6.45a26.57,26.57,0,0,0-.18-10.14s.93,9.13-4,14c-3.67,3.64-4.56.54-3.56-1.94s3.27-13.79-4-20c-2.67-2.3-1.79,11.33-8.33,16.38-8,6.17-7.81,1-6.08-3.37a21.53,21.53,0,0,0,1-7.8s-2.11,11-10.68,14.39c-6,2.36-4.55-1.28-1.88-5,4.26-5.91,5.1-10.31,5.1-10.31s-5.88,6.31-11.21,9.08c-6.79,3.54-7.56,2.37-4.36-.37s3.35-4.31,3.35-4.31-5.5,5-9.51,5.35S84.7,35,86.75,33.3a16.13,16.13,0,0,0,4.58-7.94s-8.21,3.45-12.43-1.44c-1.82-2.1-.06-3.2,2.62-2s9.09,2.7,12.4-2.78c1.67-2.77-2.78,4-8.71,2.49a9.58,9.58,0,0,1-7.41-7.7c-.14-1.29-3,1.72-2.94,5.17A14,14,0,0,0,76,24.62s.11,4.4,3.91,5.64,7.68-.88,7.68-.88a15.85,15.85,0,0,1-14.71,6.43c-3.85-.41-2.3,2.1,3.66,4,0,0,1.22,1.82,6.89,2.39s11.9-2.91,11.9-2.91S92.07,43.81,84,43.58c-3.23-.1,5.26,2.25,1.63,5-2.85,2.17-5.74,7.36-9.09,6.58s-8-.84-10.17,5.76-4.17,10.52-5,4.22C59.91,55,68.67,50.8,65.32,52s-7,4.19-5.26,0,7.65-6.72,3.83-5.21-9.38,8.34-7.18,0,12.15-17.19,7.55-14.71-9.08,10.24-8,3.26,8.69-14.65,15.9-20c3.3-2.45,7.31-8.69,18.14-12S119.88-.82,125.21,5.9c3.88,4.88.15,2.65-2.22,1.79s-19.88-3.82-29.07,4.52c-2.06,1.86,9.23-5.36,21.47-3.73,10.76,1.43,14.06,7.1,14.06,7.1a16.82,16.82,0,0,1,14.56,3c1.79,1.37-2.74-7.69-11.92-7.07-1.78.12.24-4.2-5.23-7.78-3.74-2.44,13.34,1,22.1,13.63,1.15,1.65,3,.8,1-1.43a11,11,0,0,1-1.19-1.59A39.61,39.61,0,0,1,143,9.2C135.44,1.31,113.14-.18,108.65,0,85.4,1,79.09,8.14,76.32,10.73S65.9,18,58.72,28a27.77,27.77,0,0,0-4.66,20.82c-2.3,7.53,1.15,17.22,1.51,14.28s1-3.73,1-3.73c-1,3.73.65,11.62.79,7.46s3.37-8.47,3.37-8.47C55,70.67,68.48,84.58,66.47,81.14s-.65-11.26-.65-11.26a36.49,36.49,0,0,0,1.58,7.17C70.54,86.29,77.16,88,77.16,88c-3.09-3.58-3.09-10-3.09-10A18.77,18.77,0,0,0,81,88.39s-2.46-6.75-2.65-17.51a4.2,4.2,0,0,1-6.58,1.58c-4.45-3-4.69-11.19-2.92-14.34s9.2-3.2,9.57,4c.23,4.59,1.19,10,2.58,10.62S77.37,57.83,92.58,46.64c0,0,10.23-.72,16.64-6.17,0,0-3.92,5.55-10.14,6.79,0,0,24,3.25,29.08-21.28a17,17,0,0,1,2.29,16.36C126.86,51.66,121.27,53,121.27,53s3.59,1.95,8.75-.78c0,0,3.44,2.57,8.82.78a14.4,14.4,0,0,1-6.67,4.81s7.68,3.94,17.72-2.23c0,0,.5,2.73-2.65,7.75,5.35-.43,9.27-6.74,9.27-6.74-2.2,5.07-5.74,7.51-5.26,7.75s11.34-2,15.54-8.33S171,45,170.05,37.22Z"/><g class="cls-4"><path class="cls-16" d="M163.77,30.21a8.78,8.78,0,0,1,1.18.91,11.87,11.87,0,0,1,1.19,1.23,8.3,8.3,0,0,1,.66.83,10.41,10.41,0,0,1,.65,1,14.14,14.14,0,0,1,1.17,2.37,16.29,16.29,0,0,1,.8,2.85,18,18,0,0,1,.3,3.15c0,.27,0,.55,0,.82l-.05.81,0,.82v.26h0v.17l-.07.39a10.38,10.38,0,0,1-.31,1.61,13,13,0,0,1-.5,1.6l-.29.77c-.1.25-.23.48-.35.73s-.24.47-.35.71l-.4.68-.42.65-.45.61c-.15.2-.29.4-.44.59l-.47.55a12.94,12.94,0,0,1-.93,1c-.31.32-.62.62-.92.89s-.6.54-.89.77-.56.47-.84.66c-.52.4-1,.72-1.41,1a12.67,12.67,0,0,1-1.3.75l-.06-.1s.42-.34,1.11-1c.35-.32.77-.7,1.23-1.16s1-1,1.51-1.57q.41-.44.81-.93c.28-.32.56-.66.83-1s.56-.72.83-1.11c.13-.2.27-.39.41-.59s.25-.41.38-.62l.39-.63.36-.66c.11-.22.25-.44.35-.67s.21-.46.31-.7a9.09,9.09,0,0,0,.53-1.43,10.2,10.2,0,0,0,.38-1.54l.08-.39,0-.1v0s0,0,0,0v-.07l0-.19.07-.79.08-.78c0-.26,0-.53,0-.79a19,19,0,0,0-.18-3,16.86,16.86,0,0,0-.65-2.78,13.73,13.73,0,0,0-1-2.35c-.19-.35-.38-.69-.58-1a8.26,8.26,0,0,0-.6-.84,11.84,11.84,0,0,0-1.1-1.27,7.94,7.94,0,0,0-1.12-1Z"/></g><g class="cls-4"><path class="cls-16" d="M158.76,31.65a7,7,0,0,1,.41,1,12.63,12.63,0,0,1,.62,2.79,14.82,14.82,0,0,1-.09,4.07A18,18,0,0,1,158.35,44c-.17.36-.34.74-.52,1.08s-.39.71-.6,1A14.68,14.68,0,0,1,155.85,48a14.35,14.35,0,0,1-3.16,2.65A8.17,8.17,0,0,1,150,51.76a3.22,3.22,0,0,1-.83.05l-.29,0v-.12a1.41,1.41,0,0,0,.27,0,4,4,0,0,0,.72-.23,12,12,0,0,0,2.31-1.48A22.28,22.28,0,0,0,155,47.21a21.1,21.1,0,0,0,1.38-1.69c.22-.3.43-.62.62-.93s.38-.66.56-1a16.77,16.77,0,0,0,1.53-4.2,15.84,15.84,0,0,0,.35-3.92,13.42,13.42,0,0,0-.4-2.76,8.53,8.53,0,0,0-.33-1Z"/></g><g class="cls-4"><path class="cls-16" d="M145.25,24.93a4.8,4.8,0,0,1,.95.65,7.23,7.23,0,0,1,.94.92,9.12,9.12,0,0,1,1,1.41c.17.27.3.57.45.87s.26.64.39,1,.21.71.31,1.07.15.76.22,1.15a15.94,15.94,0,0,1,.17,2.42,10.48,10.48,0,0,1,0,1.25c0,.42,0,.83-.09,1.26s-.11.82-.16,1.23l-.21,1.24a19.85,19.85,0,0,1-.59,2.36c-.13.38-.28.75-.42,1.1s-.33.69-.51,1a9.3,9.3,0,0,1-1.21,1.71,6.19,6.19,0,0,1-1.35,1.16,3.92,3.92,0,0,1-1.27.54,2.46,2.46,0,0,1-.5.08,1.58,1.58,0,0,1-.37,0l-.31,0v-.12l.28-.06a1.17,1.17,0,0,0,.33-.09,2.39,2.39,0,0,0,.43-.17l.24-.12c.07-.06.16-.11.24-.17a4.53,4.53,0,0,0,.52-.4,6.66,6.66,0,0,0,1-1.21,6.36,6.36,0,0,0,.49-.77c.17-.27.29-.57.45-.87s.27-.64.41-1,.25-.68.38-1c.25-.71.47-1.45.68-2.22L148.4,38c.08-.4.15-.81.23-1.21s.1-.8.15-1.19a9.69,9.69,0,0,0,.09-1.2,14.89,14.89,0,0,0,0-2.32c-.05-.37-.08-.75-.15-1.1s-.15-.71-.23-1-.19-.65-.31-1-.23-.6-.37-.87a9.54,9.54,0,0,0-.85-1.41,6.53,6.53,0,0,0-.85-1,4.25,4.25,0,0,0-.87-.69Z"/></g><g class="cls-4"><path class="cls-16" d="M137.73,29.12a15,15,0,0,1,.72,3c.07.46.12.95.17,1.48s.07,1.09,0,1.67,0,1.18-.09,1.79-.14,1.23-.28,1.84-.28,1.22-.44,1.81a17.19,17.19,0,0,1-.6,1.71c-.14.26-.26.53-.4.78a7.54,7.54,0,0,1-.44.74l-.44.62a4.71,4.71,0,0,1-.53.57,2.93,2.93,0,0,1-.54.47,5.26,5.26,0,0,1-.52.35l-.5.25c-.16.06-.32.1-.45.14a2.85,2.85,0,0,1-.65.1h-.23v-.12a.82.82,0,0,0,.2-.07,3.53,3.53,0,0,0,.53-.28,3.08,3.08,0,0,0,.34-.24l.38-.31a6.53,6.53,0,0,0,.75-.87,10.63,10.63,0,0,0,.75-1.2c.19-.4.42-.93.67-1.41s.47-1,.67-1.56a14.39,14.39,0,0,0,.56-1.68c.18-.57.27-1.16.4-1.73s.17-1.16.2-1.72.06-1.1.08-1.62,0-1,0-1.46a17,17,0,0,0-.42-3Z"/></g><g class="cls-4"><path class="cls-16" d="M124.72,20.76a9.52,9.52,0,0,1,.19,1.06,11.86,11.86,0,0,1,.12,1.24c0,.48,0,1,0,1.61,0,.29,0,.6-.05.92s-.07.65-.1,1a19.27,19.27,0,0,1-.4,2.1c-.15.73-.4,1.45-.63,2.2s-.54,1.48-.89,2.19-.71,1.43-1.07,2.13-.8,1.31-1.23,2a8.87,8.87,0,0,1-1.51,1.61c-.26.24-.56.43-.82.63s-.55.35-.83.48a8.21,8.21,0,0,1-1.54.63,7.36,7.36,0,0,1-1.25.26,4.86,4.86,0,0,1-1.1,0V40.7a7.52,7.52,0,0,0,1-.32A11.66,11.66,0,0,0,117,39.09,10,10,0,0,0,118.41,38a12.72,12.72,0,0,0,1.31-1.52c.4-.55.84-1.18,1.26-1.79a22.62,22.62,0,0,0,1.16-2c.38-.67.67-1.38,1-2.07s.54-1.4.73-2.09.36-1.38.51-2c.06-.33.11-.64.17-.95s.08-.61.11-.9a15.57,15.57,0,0,0,.1-1.58,11.71,11.71,0,0,0,0-1.22,9.6,9.6,0,0,0-.11-1.06Z"/></g><g class="cls-4"><path class="cls-16" d="M113.31,26.8a26.8,26.8,0,0,1-.58,3.33,25,25,0,0,1-1,3.33c-.22.6-.47,1.21-.75,1.82a19.45,19.45,0,0,1-.94,1.81c-.34.6-.73,1.18-1.12,1.74a12.87,12.87,0,0,1-1.31,1.53,10,10,0,0,1-3,2,9.37,9.37,0,0,1-1.36.45c-.41.1-.78.14-1.07.19-.61,0-1,0-1,0l0-.12s.32-.13.87-.32c.26-.12.59-.25,1-.42l.56-.29c.2-.1.39-.24.6-.35a6.27,6.27,0,0,0,.63-.42,6.62,6.62,0,0,0,.65-.47,16.57,16.57,0,0,0,1.3-1.14,18.24,18.24,0,0,0,1.3-1.33,16.23,16.23,0,0,0,1.18-1.55A26.66,26.66,0,0,0,112.34,30a26.15,26.15,0,0,0,.85-3.23Z"/></g><g class="cls-4"><path class="cls-16" d="M105.18,27.35a23.32,23.32,0,0,1-1.64,2.32c-.27.33-.55.7-.87,1.06s-.67.76-1,1.15-.77.77-1.16,1.17-.84.76-1.28,1.14-.88.74-1.35,1.07a13.46,13.46,0,0,1-1.38.94,10.17,10.17,0,0,1-1.41.69,10.69,10.69,0,0,1-1.32.48l-1.16.28c-.35.06-.66.08-.91.11-.51,0-.79,0-.79,0l0-.11s.26-.14.71-.33c.23-.11.5-.21.81-.35s.65-.33,1-.5a5.1,5.1,0,0,0,.57-.29l.61-.33c.42-.21.84-.48,1.29-.73s.91-.53,1.38-.79.92-.61,1.38-.91.89-.67,1.33-1,.84-.69,1.22-1.05c.78-.7,1.48-1.39,2.06-2,1.16-1.22,1.85-2.12,1.85-2.12Z"/></g><g class="cls-4"><path class="cls-16" d="M73.39,15.35s-.35.25-1,.71l-1.07.84L70,18,68.45,19.4,66.76,21,65,22.77l-1.67,1.91-.79,1-.69,1-.64,1.05c-.19.36-.39.71-.58,1.06l-.55,1q-.25.51-.51,1c-.32.66-.61,1.29-.87,1.87-1,2.33-1.61,4-1.61,4l-.11,0a9.78,9.78,0,0,1,.13-1.19c.06-.38.14-.84.26-1.36s.27-1.1.47-1.73l.32-1,.4-1c.15-.35.3-.7.47-1.07s.37-.71.55-1.08.43-.71.65-1.08.49-.7.73-1.06l.81-1.05.85-1,1.81-1.88,1.84-1.71L68.1,19l1.66-1.28,1.44-1,1.12-.77c.64-.42,1-.64,1-.64Z"/></g><g class="cls-4"><path class="cls-16" d="M67.87,31.4a30.09,30.09,0,0,0-2.15,2.34c-.63.72-1.3,1.6-2,2.55-.36.47-.71,1-1.06,1.48s-.7,1-1,1.59S61,40.44,60.7,41s-.57,1.08-.81,1.61c-.14.26-.27.52-.41.77l-.36.74c-.24.48-.48.93-.67,1.36s-.38.82-.55,1.17-.28.67-.4.92c-.22.51-.37.8-.37.8l-.11,0s0-.32.09-.89c0-.28.08-.62.15-1s.2-.82.33-1.29a17.89,17.89,0,0,1,1.23-3.09c.28-.54.6-1.08,1-1.62s.72-1.07,1.09-1.59.76-1,1.14-1.55.79-1,1.18-1.44.77-.9,1.16-1.29.74-.78,1.08-1.11a31.32,31.32,0,0,1,2.37-2.15Z"/></g><g class="cls-4"><path class="cls-16" d="M73.35,45.84s-.24,0-.67,0-1,.11-1.76.24a18.55,18.55,0,0,0-2.4.62c-.44.14-.87.31-1.31.49s-.87.38-1.27.64l-.61.37a6,6,0,0,0-.58.41l-.55.41c-.16.16-.33.3-.5.44s-.35.27-.5.41l-.46.43-.44.39-.38.4c-.23.27-.49.49-.68.71s-.35.43-.49.59c-.29.33-.47.51-.47.51l-.1,0s.06-.24.21-.66c.08-.21.17-.47.29-.76a10.09,10.09,0,0,1,.52-.9c.1-.17.21-.34.33-.52l.41-.49a7.07,7.07,0,0,1,1-1l.59-.45c.2-.14.43-.25.65-.38s.43-.26.66-.37l.7-.33c.45-.23.94-.37,1.4-.56s.95-.28,1.41-.39a11.43,11.43,0,0,1,1.33-.25c.42-.07.83-.1,1.2-.13a14.7,14.7,0,0,1,1.81,0c.43,0,.68,0,.68,0Z"/></g><g class="cls-4"><path class="cls-16" d="M68.89,51.77a6.54,6.54,0,0,0-.7.31,10.82,10.82,0,0,0-1.72,1,10.5,10.5,0,0,0-1,.84,10.32,10.32,0,0,0-1,1.08,7.07,7.07,0,0,0-.44.63,5.7,5.7,0,0,0-.39.68,5.88,5.88,0,0,0-.33.72l-.14.37-.11.39-.1.38,0,.1s0,.05,0,.08l0,.2c-.05.28-.09.55-.13.83s-.09.54-.12.8,0,.51-.05.76l-.09.73c0,.24,0,.48,0,.71-.05.47-.05.91-.06,1.32s0,.78,0,1.12,0,.62,0,.87c0,.49.07.77.07.77l-.11,0-.11-.18a5.67,5.67,0,0,1-.25-.53,8.17,8.17,0,0,1-.31-.86,8.07,8.07,0,0,1-.25-1.16c0-.22-.07-.44-.11-.67s0-.48,0-.73,0-.5,0-.77a7.82,7.82,0,0,1,.07-.81c0-.27.07-.55.11-.83a7.19,7.19,0,0,1,.2-.8c.06-.27.13-.54.2-.81l.06-.2,0-.13,0-.1.15-.42.15-.41.19-.4a6.31,6.31,0,0,1,.42-.77,5.77,5.77,0,0,1,.48-.7,5.63,5.63,0,0,1,.53-.64,6.13,6.13,0,0,1,.57-.57,6.69,6.69,0,0,1,.58-.5,10.17,10.17,0,0,1,1.15-.78,10.64,10.64,0,0,1,1.86-.87,6.72,6.72,0,0,1,.74-.23Z"/></g><g class="cls-4"><path class="cls-16" d="M94.63,19.56a10.67,10.67,0,0,1-1.89,2,12.62,12.62,0,0,1-1.08.78,10.13,10.13,0,0,1-1.31.72l-.73.31-.78.25a11.21,11.21,0,0,1-1.65.33,7.91,7.91,0,0,1-.84.06l-.42,0-.43,0c-.53,0-1,0-1.55-.08s-1-.19-1.5-.3-.89-.29-1.28-.44a9.82,9.82,0,0,1-1-.52,4.65,4.65,0,0,1-.72-.52,3.38,3.38,0,0,1-.42-.4,1.48,1.48,0,0,1-.12-.17l.08-.08a.77.77,0,0,0,.17.09,4,4,0,0,0,.5.21c.2.09.48.16.78.26s.67.15,1,.26l1.24.22c.44.05.9.12,1.37.2s1,.12,1.54.2L86,23l.38,0a4.82,4.82,0,0,0,.76,0,9.68,9.68,0,0,0,1.53-.17l.74-.18.71-.23a13,13,0,0,0,2.39-1.22A12.13,12.13,0,0,0,94,20a5.73,5.73,0,0,0,.52-.51Z"/></g><g class="cls-4"><path class="cls-16" d="M129.76,15.91a13.33,13.33,0,0,0-1.22-1.1A24.93,24.93,0,0,0,125,12.39c-.39-.21-.8-.44-1.24-.64s-.88-.42-1.36-.6l-.71-.3-.75-.26-.77-.26-.8-.22-.81-.21-.83-.17-.85-.16-.86-.1-.87-.11-.88,0-.88,0c-.27,0-.59,0-.88,0-.6,0-1.21,0-1.79.09s-1.16.08-1.74.17c-1.16.14-2.29.32-3.38.54s-2.14.43-3.14.65-1.93.47-2.79.71-1.65.46-2.34.68l-1.79.59c-1,.34-1.56.56-1.56.56l0-.11s.51-.33,1.44-.82c.47-.25,1-.53,1.73-.83s1.44-.64,2.29-.95l1.34-.47,1.45-.44c1-.29,2.08-.53,3.2-.75s2.3-.35,3.49-.43,2.44-.14,3.63-.11c.31,0,.59,0,.91,0l.92.07.91.07.89.14.88.14.87.2.85.2.83.25.81.26.78.29.75.3.72.33c.48.21.93.45,1.36.69s.84.47,1.22.71a24.26,24.26,0,0,1,3.51,2.61,15.84,15.84,0,0,1,1.18,1.17Z"/></g><g class="cls-4"><path class="cls-16" d="M144.81,20.14s-.17-.16-.49-.41-.78-.6-1.37-1q-.44-.29-1-.57c-.34-.21-.71-.38-1.1-.58s-.79-.37-1.21-.52-.85-.32-1.29-.43l-.65-.17c-.22-.05-.45-.08-.66-.11-.44-.09-.87-.12-1.29-.17s-.81-.09-1.2-.13L134,16l-.52,0c-.34,0-.66,0-.94,0s-.53,0-.73,0a6.13,6.13,0,0,1-.66,0l0-.11a6.31,6.31,0,0,1,.6-.26l.72-.27c.28-.08.61-.14,1-.21L134,15l.61,0a6.56,6.56,0,0,1,1.32,0,7.61,7.61,0,0,1,1.38.31l.69.2.67.26c.46.16.89.38,1.32.57s.82.44,1.21.66.75.46,1.08.71.63.48.9.7.52.45.74.64.39.37.53.52c.29.3.43.48.43.48Z"/></g><path class="cls-20" d="M149.89,55.53c-10,6.17-17.72,2.23-17.72,2.23A14.4,14.4,0,0,0,138.84,53c-5.38,1.79-8.82-.78-8.82-.78-5.16,2.73-8.75.78-8.75.78s5.59-1.29,9.18-10.61A17,17,0,0,0,128.16,26c-5,24.53-29.08,21.28-29.08,21.28,6.22-1.24,10.14-6.79,10.14-6.79-6.41,5.45-16.64,6.17-16.64,6.17C77.37,57.83,82.39,73.32,81,72.75s-2.35-6-2.58-10.62c-.37-7.21-7.8-7.17-9.57-4s-1.53,11.33,2.92,14.34a4.2,4.2,0,0,0,6.58-1.58C78.55,81.64,81,88.39,81,88.39a20.25,20.25,0,0,0,5.93,9.94s3.49,3.83,10.52,5.07c6.69,2.3,13.48-.19,25.25-1.34s13-7.65,15.2-14.53,3.45-12,7.65-21c.53-1.13,1.68-3.2,1.68-3.2C150.39,58.26,149.89,55.53,149.89,55.53Z"/><path class="cls-21" d="M129.49,98.33c-4.23,1.19-4.68.38-5.16-1.91-1.1-5.26-4.5-4.4-10.14-6.31s-10.9-4.59-14.82-5.84-4-.34-8.32,2.43-5.84.63-7.27-4.63-2.47-15.2-2.47-15.21c-.23,3.7.26,6.12-.3,5.89-1.19-.49-2.07-4.58-2.44-8.63h0l-.21,6.76C78.55,81.64,81,88.39,81,88.39a20.25,20.25,0,0,0,5.93,9.94s3.49,3.83,10.52,5.07c6.69,2.3,13.48-.19,25.25-1.34,7.18-.7,10.43-3.4,12.39-7C135.1,95.1,133.73,97.14,129.49,98.33Zm-8.29,1.5c-2,.53-12.12,3.44-19.29,2.08s-9.19-5.06-10.12-7.71c-1.21-3.45.07-5.53,3.23-6.89s3.73-.93,7.17,1.08,5.52,3.73,11.33,4.59,7.54.79,8.5,2.87S123.21,99.3,121.2,99.83Z"/><path class="cls-22" d="M96.31,86.8s.24.37.7,1a27.83,27.83,0,0,0,2,2.49c.23.23.45.5.72.73l.41.36c.12.11.29.21.44.32a9.84,9.84,0,0,0,2.1,1.06l1.2.39,1.24.35,2.57.62,5.07,1.2,2.32.58c.74.18,1.44.35,2.09.47s1.24.24,1.77.32,1,.09,1.38.14.69,0,.89,0h.33a0,0,0,0,1,0,.06l-.31,0a8.7,8.7,0,0,1-.91.11,13.47,13.47,0,0,1-1.41,0c-.55,0-1.16-.08-1.82-.2s-1.38-.23-2.13-.38-1.53-.34-2.34-.54l-5-1.33c-.86-.22-1.72-.46-2.56-.69l-1.25-.38-1.2-.43a9.47,9.47,0,0,1-2.14-1.15,5.07,5.07,0,0,1-.46-.35l-.4-.38a10.11,10.11,0,0,1-.71-.77,25.69,25.69,0,0,1-1.95-2.57c-.43-.64-.67-1-.67-1s0,0,0,0S96.3,86.79,96.31,86.8Z"/><path class="cls-23" d="M121.56,96.85a67.37,67.37,0,0,1-11.25-2.4c-5.71-1.43-8.62-2.1-10.76-3.86-.61-.51-2.86-3.31-3.46-4a26.81,26.81,0,0,1,1.52,2.55c.31,1.26,1.08,4.08,1.92,5.17,1.09,1.43,4.87,2,8.73,2.1,2.72.06,4.55,0,6.3.09C115.3,96.55,119.23,97.69,121.56,96.85Z"/><path class="cls-24" d="M115.36,96.25c-1.76-.39-3.68-.9-5.71-1.41-4.88-1.22-7.67-1.79-9.5-3.3a12,12,0,0,1-1.57-1.61,22.36,22.36,0,0,0,2,4.19c.93,1.22,4.16,1.73,7.46,1.8S113.15,95.81,115.36,96.25Z"/><path class="cls-22" d="M98.13,95a4,4,0,0,0,.54.76,7,7,0,0,0,.67.66,5,5,0,0,0,.88.58,5.27,5.27,0,0,0,.49.22l.49.16c.16,0,.32.09.46.15a3.86,3.86,0,0,0,.42.12,3.55,3.55,0,0,0,.36.11l.28.08L103,98s0,0,0,0l0,0-.26.06-.31,0a2.57,2.57,0,0,1-.4,0,2.74,2.74,0,0,1-.48,0A2.82,2.82,0,0,1,101,98a3.93,3.93,0,0,1-.52-.23c-.16-.11-.35-.19-.5-.31a5.38,5.38,0,0,1-.88-.74,5,5,0,0,1-.61-.78,4.35,4.35,0,0,1-.43-.85.05.05,0,0,1,0,0Z"/><path class="cls-16" d="M119.17,59.22s-2.39-4.26-5.55-6.31-8.9-.15-10.19.33-4,1.7,1.39,1.48,5.21.71,8.42,3.2S119.83,61,119.17,59.22Z"/><path class="cls-19" d="M118.93,58.83A10.66,10.66,0,0,1,114,56.69c-3.29-2.37-3.18-3.31-8.53-2.9-1.9.14-2.79.07-3.09-.11-1.08.54-1.65,1.21,2.42,1,5.36-.22,5.21.71,8.42,3.2s6.59,3.07,5.93,1.3Z"/><path class="cls-16" d="M133.72,63.86a15.78,15.78,0,0,1,5.69-2.75c2.8-.5,6.21,2.5,7,3.21s2.25,2.35-1.39.62-3.83-1-6.78-.24S132.74,64.9,133.72,63.86Z"/><path class="cls-16" d="M133.72,63.86a15.78,15.78,0,0,1,5.69-2.75c2.8-.5,6.21,2.5,7,3.21s2.25,2.35-1.39.62-3.83-1-6.78-.24S132.74,64.9,133.72,63.86Z"/><path class="cls-19" d="M145.09,63.9c-3.65-1.72-3.82-1-6.77-.25a6.88,6.88,0,0,1-4.37,0l-.23.17c-1,1,1.54,1.62,4.49.84s3.12-1.48,6.78.24c3.34,1.58,2.36.35,1.6-.42A14,14,0,0,1,145.09,63.9Z"/><path class="cls-22" d="M74.23,69.92l.18,0,.21-.07.24-.14a2.28,2.28,0,0,0,.56-.53,3.9,3.9,0,0,0,.48-.89,5.35,5.35,0,0,0,.34-1.15,7.86,7.86,0,0,0,.14-1.33c0-.23,0-.46,0-.7s0-.48-.08-.72a7,7,0,0,0-.36-1.42,3.89,3.89,0,0,0-.29-.66c0-.11-.11-.24-.15-.31l-.21-.31a3.41,3.41,0,0,0-.43-.53,2.52,2.52,0,0,0-.25-.21,2,2,0,0,0-.26-.18,2.29,2.29,0,0,0-1.14-.34,2.54,2.54,0,0,0-1.08.22,3.23,3.23,0,0,0-.81.52c-.11.1-.19.21-.28.3l-.19.28a1.66,1.66,0,0,0-.17.46c0,.12,0,.18,0,.18h0a0,0,0,0,1,0,0l0,0v-.19a1.77,1.77,0,0,1,.08-.53l.16-.35a4.17,4.17,0,0,1,.26-.37,2.73,2.73,0,0,1,.85-.7,2.86,2.86,0,0,1,1.27-.37,2.52,2.52,0,0,1,1.46.38,2.35,2.35,0,0,1,.32.23c.09.09.2.17.29.27a4.45,4.45,0,0,1,.48.64l.19.32c.07.15.11.25.16.37a5.1,5.1,0,0,1,.28.74,7.94,7.94,0,0,1,.31,1.51,6.44,6.44,0,0,1,0,.75c0,.25,0,.5,0,.74a8.34,8.34,0,0,1-.22,1.37,6.28,6.28,0,0,1-.41,1.18,4.69,4.69,0,0,1-.56.89,2.44,2.44,0,0,1-.62.53l-.27.13-.22,0-.17,0a0,0,0,1,1,0-.06Z"/><path class="cls-22" d="M76.33,67.2a7.83,7.83,0,0,0-.06-1.26A6.37,6.37,0,0,0,76,64.71a3.91,3.91,0,0,0-.28-.63,2.89,2.89,0,0,0-.42-.53,1.76,1.76,0,0,0-.29-.21.86.86,0,0,0-.28-.11,1.31,1.31,0,0,0-.59,0,2.15,2.15,0,0,0-.57.13,2.56,2.56,0,0,0-.84.56,1.61,1.61,0,0,0-.21.29,1,1,0,0,0-.12.31h-.06a1,1,0,0,1,0-.37,1.66,1.66,0,0,1,.47-.88,2.55,2.55,0,0,1,.54-.41,2,2,0,0,1,.75-.23,1.71,1.71,0,0,1,.83.13,1.75,1.75,0,0,1,.4.22c.13.09.19.18.29.26a2.64,2.64,0,0,1,.46.7,3.28,3.28,0,0,1,.26.72,5.42,5.42,0,0,1,.17,1.31,7.37,7.37,0,0,1-.08,1.27s0,0,0,0Z"/><path class="cls-25" d="M149.89,55.53c-10,6.17-17.72,2.23-17.72,2.23A14.4,14.4,0,0,0,138.84,53c-5.38,1.79-8.82-.78-8.82-.78-5.16,2.73-8.75.78-8.75.78s5.59-1.29,9.18-10.61A17,17,0,0,0,128.16,26c-5,24.53-29.08,21.28-29.08,21.28,6.22-1.24,10.14-6.79,10.14-6.79-6.41,5.45-16.64,6.17-16.64,6.17C77.37,57.83,82.39,73.32,81,72.75s-2.35-6-2.58-10.62c-.37-7.21-7.8-7.17-9.57-4s-1.53,11.33,2.92,14.34a4.2,4.2,0,0,0,6.58-1.58C78.55,81.64,81,88.39,81,88.39a20.25,20.25,0,0,0,5.93,9.94s3.49,3.83,10.52,5.07c6.69,2.3,13.48-.19,25.25-1.34s13-7.65,15.2-14.53,3.45-12,7.65-21c.53-1.13,1.68-3.2,1.68-3.2C150.39,58.26,149.89,55.53,149.89,55.53Zm-21.5,43.9c-3.18,1.87-6.55,1.41-15.44,3.16S89.28,103.31,85.12,89,82.39,70.9,82.54,67.2a5.15,5.15,0,0,1,6.24-5.14c2.58.57,1.65,1.68,2.65,8.73a13.9,13.9,0,0,0,9.81,11.64c3.89,1.22,11.59-.19,14.12-1.36,7.13-3.3,7.51-8.91,8.7-11.66.8-1.83,3.23-3.08,4.33-1.83s.94,1.73,0,5.24,0,11.64,3.85,14S134.06,96.1,128.39,99.43Zm3.83-35.31c-2.05,2.27-1.77.83-4.16.15s-2.68.68-3.23-.53-.45-2.8-3.37-4.43S117.92,54.53,114,52s-11.28,0-13.77.94.81,1.14-1.63,1.76-4,.41-5,2.78c-.38,1-3.87.47-6.42-.05-2.83-.57,2.91-6.6,5.64-8.61s5.64-2.45,3.78-.8,6.59,1.09,13-.35c7.2-1.61,13.08-4.92,16.79-13.1C128,31,128.18,48.05,118.5,52.45c-2.68,1.22,3.72,3.07,8.27,1.93,1-.23.7.41,2.19,1.15,2.11,1.06,5.36-.32,5.51-.35a13,13,0,0,1-4.21,2.41c-2.15.67,1.72,2.7,6.74,2.52S134.28,61.85,132.22,64.12Z"/><g class="cls-26"><path class="cls-27" d="M128.44,70.27s-.54,1.72-1.24,4.34l-.54,2.12c-.15.75-.38,1.54-.51,2.37a12.38,12.38,0,0,0-.25,2.52c0,.89,0,1.8,0,2.73a9.86,9.86,0,0,1-.13,1.41,4,4,0,0,1-.54,1.45,2.16,2.16,0,0,1-.27.33l-.08.08,0,0h0l0,0,0,0-.13.1a3.34,3.34,0,0,1-.57.4,9.17,9.17,0,0,1-1.24.64,11.09,11.09,0,0,1-2.47.67c-.4.06-.79.1-1.17.13h-1l-.07,0-.12,0a1.78,1.78,0,0,1-.62-.26A2.12,2.12,0,0,1,117,89a4.29,4.29,0,0,1-.6-.73,7.55,7.55,0,0,1-.68-1.31,7.66,7.66,0,0,1-.42-1.2l.11,0s.22.4.66,1.05a12.17,12.17,0,0,0,.86,1.09,5.11,5.11,0,0,0,.59.54,1.68,1.68,0,0,0,.34.2.42.42,0,0,0,.15.06s0,0,.16,0h.22c-.12,0,0,0,0,0h0l.25,0,.51,0c.34-.05.7-.11,1.06-.19a15.65,15.65,0,0,0,2.22-.69,9.6,9.6,0,0,0,1.07-.49,4,4,0,0,0,.52-.33l.14-.1,0,0,0,0h0l0,0a.87.87,0,0,0,.16-.17,4.68,4.68,0,0,0,.64-2.3c.08-.88.09-1.78.11-2.67v-.33l0-.35c0-.23,0-.46.08-.68a13,13,0,0,1,.26-1.3c.09-.42.19-.82.31-1.22s.22-.78.33-1.15l.67-2.1c.87-2.57,1.52-4.26,1.52-4.26Z"/></g><path class="cls-28" d="M94,61.1h-.11L78.08,60.05a5.39,5.39,0,0,0-3.84-3.8l19.83,3.14A.86.86,0,0,1,94,61.1Z"/><g class="cls-4"><path class="cls-29" d="M75.8,56.8s4.2.56,8.39,1.16l3.07.43c1,.15,1.89.33,2.67.48.39.07.75.16,1.06.22l.82.18.71.18v0l-.73-.06c-.23,0-.51,0-.83-.08l-1.08-.11c-.79-.1-1.7-.21-2.68-.37l-3.07-.54c-4.16-.72-8.33-1.49-8.33-1.49Z"/></g><path class="cls-30" d="M94.8,60.24,77.69,59.05a5.76,5.76,0,0,1,.39,1L93.86,61.1H94a.86.86,0,0,0,.85-.75v-.11Z"/><path class="cls-28" d="M130.06,69.41h0a.58.58,0,0,1-.57-.58,2.68,2.68,0,0,0-2-2.61,4,4,0,0,0-3.61,1.21.58.58,0,0,1-.81,0,.57.57,0,0,1,0-.81,5.16,5.16,0,0,1,4.74-1.55,3.79,3.79,0,0,1,2.84,3.73A.57.57,0,0,1,130.06,69.41Z"/><path class="cls-30" d="M92.54,65.07c.12-2.34,1.51-7.6,4.41-8.75,6.69-2.64,17.65-.07,23.89,3.66,4.08,2.44,3.37,6,2.73,8s-3.26,14.38-16.84,13.85C95.73,81.36,92.15,72.68,92.54,65.07Z"/><path class="cls-31" d="M120.84,60c-6.24-3.73-17.2-6.3-23.89-3.66-2.9,1.15-4.29,6.41-4.41,8.75-.39,7.61,3.19,16.29,14.19,16.72,13.58.53,16.19-11.84,16.84-13.85S124.92,62.42,120.84,60Zm.07,7C120.34,68.7,118,79.64,106,79.17c-9.72-.38-12.89-8.06-12.54-14.78.11-2.07,1.33-6.72,3.9-7.73,5.91-2.34,15.6-.07,21.11,3.23C122.11,62,121.48,65.15,120.91,66.93Z"/><path class="cls-30" d="M131.6,65.62c1.84-1.65,8.11-1.38,12.7,0s8.57,3.81,7.67,8.85c-.94,5.26-5.24,14.92-14.3,13.74C127.78,86.91,127.15,69.62,131.6,65.62Z"/><path class="cls-31" d="M144.3,65.62c-4.59-1.38-10.86-1.65-12.7,0-4.45,4-3.82,21.29,6.07,22.59,9.06,1.18,13.36-8.48,14.3-13.74C152.87,69.43,148.89,67,144.3,65.62Zm5.39,8.22C148.86,78.48,145.07,87,137.08,86c-8.73-1.14-9.28-16.39-5.36-19.91,1.62-1.46,7.15-1.22,11.2,0S150.48,69.4,149.69,73.84Z"/><path class="cls-32" d="M112.45,56.53c-5,2.29-12.55,5.62-19.89,8.34,0,.06,0,.14,0,.2a21.24,21.24,0,0,0,.33,5C103.48,66.24,115,60.85,119,59A36.49,36.49,0,0,0,112.45,56.53Z"/><path class="cls-32" d="M97,56.32A6.61,6.61,0,0,0,93.81,60c4.06-1.55,8.11-3.3,11.25-4.72A19.66,19.66,0,0,0,97,56.32Z"/><path class="cls-32" d="M104.65,81.59a19.06,19.06,0,0,0,2.08.2c7.26.28,11.38-3.12,13.75-6.66C115.82,77.19,110.15,79.58,104.65,81.59Z"/><path class="cls-32" d="M123.57,67.94a7.87,7.87,0,0,0,.34-4.1A289.46,289.46,0,0,1,95.13,75.77a12.71,12.71,0,0,0,3.26,3.41c8.83-3,18.87-7.39,24.85-10.14C123.38,68.56,123.49,68.18,123.57,67.94Z"/><path class="cls-32" d="M131.6,65.62a7.77,7.77,0,0,0-2,3.61c3.86-1.44,7.8-3.14,10.72-4.46C136.65,64.24,132.94,64.42,131.6,65.62Z"/><path class="cls-32" d="M145.83,66.14c-4.33,2-10.71,4.77-16.84,7a21.45,21.45,0,0,0,.21,4.36c8-2.8,16.71-6.76,21-8.79A12.35,12.35,0,0,0,145.83,66.14Z"/><path class="cls-32" d="M136.82,88.05c.28.06.56.12.85.16,4.48.58,7.8-1.49,10.12-4.36C144.24,85.33,140.42,86.83,136.82,88.05Z"/><path class="cls-32" d="M152,74.47c0-.2.05-.39.07-.58a213.94,213.94,0,0,1-21.42,8.59,11.85,11.85,0,0,0,2,3.1,192.13,192.13,0,0,0,18.14-7.06A22.76,22.76,0,0,0,152,74.47Z"/><g class="cls-4"><path class="cls-29" d="M103.23,78.85l-.56,0a7.26,7.26,0,0,1-1.56-.39,9.6,9.6,0,0,1-2.19-1.16A12.33,12.33,0,0,1,96.58,75a14.85,14.85,0,0,1-2-3.26,16.8,16.8,0,0,1-1.22-4.09,15.18,15.18,0,0,1-.2-2.25,10.81,10.81,0,0,1,.14-2.33,13.76,13.76,0,0,1,1.53-4.48,6.13,6.13,0,0,1,1.59-1.86,4.06,4.06,0,0,1,1.11-.54,9.35,9.35,0,0,1,1.14-.35,17.54,17.54,0,0,1,4.57-.5,25.94,25.94,0,0,1,4.25.42,32.21,32.21,0,0,1,9,3c.61.31,1.08.58,1.39.77l.48.3,0,.05-.5-.27c-.33-.17-.8-.42-1.43-.69a33.17,33.17,0,0,0-5.34-1.86A31.63,31.63,0,0,0,103.23,56a19.12,19.12,0,0,0-4.42.48c-.37.09-.71.2-1.08.32a4.12,4.12,0,0,0-1,.47,5.49,5.49,0,0,0-1.47,1.66,13.2,13.2,0,0,0-1.55,4.3,10.52,10.52,0,0,0-.17,2.24,16.07,16.07,0,0,0,.17,2.21,15.44,15.44,0,0,0,3,7.26A11.84,11.84,0,0,0,99,77.12a9.29,9.29,0,0,0,2.14,1.2,8,8,0,0,0,1.52.41c.37,0,.56.06.56.06Z"/></g><g class="cls-4"><path class="cls-29" d="M137.07,86l-.39-.07-.47-.08-.63-.19c-.23-.07-.48-.19-.75-.3a7.16,7.16,0,0,1-.83-.47,7.83,7.83,0,0,1-1.71-1.51,12.39,12.39,0,0,1-2.51-5.1,19.14,19.14,0,0,1-.51-6.53,13.74,13.74,0,0,1,.68-3.3,8,8,0,0,1,.7-1.52,4.17,4.17,0,0,1,1.11-1.26,1.71,1.71,0,0,1,.36-.22,2.2,2.2,0,0,1,.39-.17,4.68,4.68,0,0,1,.76-.23,8.87,8.87,0,0,1,1.5-.21,18.77,18.77,0,0,1,2.72,0c.84.06,1.59.2,2.26.31s1.25.27,1.72.4.83.23,1.08.32l.38.13,0,.06-.39-.09c-.25-.06-.62-.14-1.1-.23a28.1,28.1,0,0,0-4-.44,17,17,0,0,0-2.65.06,9.73,9.73,0,0,0-1.4.23,4.22,4.22,0,0,0-.69.21,1.38,1.38,0,0,0-.3.14,1.12,1.12,0,0,0-.31.18,3.67,3.67,0,0,0-1,1.09,7.26,7.26,0,0,0-.68,1.4,14.45,14.45,0,0,0-.74,3.15,19,19,0,0,0,.38,6.41,12.51,12.51,0,0,0,2.34,5,8,8,0,0,0,1.64,1.53c.27.19.55.33.8.48s.51.23.73.31l.62.2c.18,0,.34.07.46.1l.39.08Z"/></g><path class="cls-23" d="M71,68.16c1,3.2,4.39,2.83,5.37-.32S76.1,59.75,73,60C70.27,60.24,69.32,62.71,71,68.16Z"/><path class="cls-23" d="M72.76,68.32c.65,2.07,2.83,1.83,3.46-.21s-.18-5.21-2.16-5C72.28,63.22,71.66,64.81,72.76,68.32Z"/><path class="cls-23" d="M73.07,71.51C68,70.51,68,61.64,68,60.86c-.6,3.8.31,9.26,3.77,11.6a4.2,4.2,0,0,0,6.58-1.58l.18-5.64C78.51,65.85,78.17,72.51,73.07,71.51Z"/><path class="cls-27" d="M78.54,65.24v0Z"/><path class="cls-22" d="M128.41,70.8s-.11.44-.32,1.23c-.11.39-.23.86-.38,1.41l-.41,1.85c-.15.67-.31,1.41-.48,2.18a24.72,24.72,0,0,0-.48,2.45c-.11.85-.17,1.74-.2,2.64s0,1.83-.06,2.77a6.94,6.94,0,0,1-.2,1.42l-.11.35-.15.35-.19.31c-.07.1-.16.2-.24.3a5.71,5.71,0,0,1-2.36,1.48,11.15,11.15,0,0,1-2.5.55c-.4,0-.79.07-1.18.08h-.57a2.18,2.18,0,0,1-.55-.07,3,3,0,0,1-1.7-1,4.47,4.47,0,0,1-.72-1.32,4.65,4.65,0,0,1-.24-.92c0-.22,0-.33,0-.33s0,0,0,0,0,0,0,0l.09.32a6.12,6.12,0,0,0,.33.87,4.57,4.57,0,0,0,.78,1.17,2.71,2.71,0,0,0,1.52.81,2.49,2.49,0,0,0,.5,0h.26l.27,0,1.13-.12a12.36,12.36,0,0,0,2.37-.57,5.33,5.33,0,0,0,2.16-1.28,3.75,3.75,0,0,0,.83-2.4c.07-.91.08-1.84.13-2.75a23.35,23.35,0,0,1,.26-2.69,24.5,24.5,0,0,1,.55-2.45c.19-.77.38-1.5.55-2.17s.33-1.29.46-1.84.31-1,.42-1.4c.24-.78.37-1.22.37-1.22s0,0,0,0S128.42,70.78,128.41,70.8Z"/><path class="cls-20" d="M84.76,164.85c3.37-.07,5.09-3.95,1.36-3.73s-5-2.08-9.54-3.87a11.1,11.1,0,0,0-8.77.57,93.19,93.19,0,0,1-5.45-11.17c-3-7.05-5.79-13.94-5.79-13.94l-2.2-4.35a39.64,39.64,0,0,1,3.31-2.93l4.09-2.58c2,1.19,5.95-.82,7.42-2.94s6.78-7.75,8.64-12.48.31-5.94.31-5.94-5.84-2.87-7.56-2.2-11.57,9.94-17,16.45S42.08,127.5,42.94,131.9s10.43,17.5,10.43,17.5l7.17,8.47s2.68,3,2.58,4c-1.18,12.38,7.13,15,9.28,16.65s6.84,5.16,7.7,4.78.33-1-.86-2.44a35.94,35.94,0,0,1-2.49-3.68,9.25,9.25,0,0,0,3.73,0,4.36,4.36,0,0,0,1.82-1.06c1.48.39,3.49,1.06,3.82.58s-.43-1.1-.43-1.1c1.37.72,1.87-.29,1.58-2.08s-3.23-3.87-4.81-4.38A3.11,3.11,0,0,1,80,165.78C80,163.85,81.39,164.92,84.76,164.85Z"/><path class="cls-22" d="M70.32,113.74s-.41.79-1.14,1.89c-.18.28-.38.57-.6.88s-.46.63-.71,1c-.51.65-1.07,1.34-1.67,2-.3.33-.6.66-.91,1a12.66,12.66,0,0,1-.93.88c-.32.27-.63.53-1,.75a10.71,10.71,0,0,1-.89.6c-.28.18-.55.32-.78.46l-.63.31-.56.24a0,0,0,0,1,0,0s0,0,0,0l.47-.37.56-.41c.21-.16.44-.36.7-.55s.53-.43.81-.67.6-.48.9-.76.63-.53,1-.82.64-.58,1-.88A32.52,32.52,0,0,0,69,115.51c.79-1,1.25-1.79,1.25-1.79a0,0,0,0,1,0,0A0,0,0,0,1,70.32,113.74Z"/><path class="cls-22" d="M68.89,112.69s-.27.73-.74,1.8a35.32,35.32,0,0,1-1.94,3.8c-.19.34-.4.67-.61,1s-.43.63-.64.93-.46.56-.68.81-.47.47-.69.67a7.59,7.59,0,0,1-.63.5,3.08,3.08,0,0,1-.53.34c-.3.17-.47.25-.47.25s0,0,0,0,0,0,0,0h0l.38-.36a4.34,4.34,0,0,0,.43-.43c.16-.17.35-.35.53-.57s.39-.45.59-.71.42-.52.63-.81.45-.57.67-.88.45-.61.66-.93c.85-1.28,1.6-2.63,2.15-3.65s.86-1.73.86-1.73,0,0,0,0S68.89,112.68,68.89,112.69Z"/><path class="cls-22" d="M51.36,126.66a3.9,3.9,0,0,1,.91.22,4.67,4.67,0,0,1,.88.39,7.62,7.62,0,0,1,.92.64,5.48,5.48,0,0,1,.79.81c.1.14.19.3.27.44s.12.3.18.43a2.92,2.92,0,0,1,.16.68,1.56,1.56,0,0,1,0,.26,0,0,0,0,1,0,0h0l-.16-.21c-.1-.13-.22-.32-.38-.54s-.15-.23-.25-.35-.18-.25-.28-.38a5.89,5.89,0,0,0-.62-.82,5.67,5.67,0,0,0-.78-.7,8.11,8.11,0,0,0-.78-.49,4.26,4.26,0,0,0-.84-.34.05.05,0,0,1,0,0S51.35,126.66,51.36,126.66Z"/><path class="cls-22" d="M74.19,165.79s.55.84,1.39,2.08c.43.62.92,1.34,1.47,2.1q.42.57.87,1.14l.24.27a3,3,0,0,0,.26.22A5,5,0,0,0,79,172c.85.48,1.79.82,2.64,1.21s1.66.77,2.32,1.13a13.43,13.43,0,0,1,2.1,1.41,0,0,0,0,1,0,0h0l-.61-.32c-.39-.19-1-.47-1.64-.75s-1.49-.62-2.36-1a18.16,18.16,0,0,1-2.67-1.3,5.51,5.51,0,0,1-.64-.47l-.29-.28a3.5,3.5,0,0,1-.24-.3c-.3-.4-.57-.8-.83-1.2-.52-.79-1-1.54-1.36-2.19-.76-1.29-1.25-2.17-1.25-2.17a.06.06,0,0,1,0,0S74.18,165.78,74.19,165.79Z"/><path class="cls-22" d="M70.55,168.27s.61.7,1.55,1.71l1.63,1.71.94.94c.34.31.67.63,1,.92l.53.42a5.69,5.69,0,0,0,.57.35,3.47,3.47,0,0,0,.59.27,5,5,0,0,0,.58.23l.58.2.58.16c.37.12.74.2,1.07.29l.92.24c.27.08.51.14.7.21l.61.21s0,0,0,0,0,0,0,0l-.63-.07L81,176c-.28,0-.6-.06-.94-.11s-.72-.11-1.11-.2a8.74,8.74,0,0,1-1.23-.34,4.37,4.37,0,0,1-.64-.27,3.08,3.08,0,0,1-.62-.34,5.54,5.54,0,0,1-.58-.4l-.53-.47c-.35-.32-.66-.66-1-1s-.61-.67-.9-1c-.57-.65-1.1-1.27-1.54-1.81-.88-1.07-1.45-1.8-1.45-1.8s0,0,0,0A0,0,0,0,1,70.55,168.27Z"/><path class="cls-22" d="M68.89,171.11l1.21,1.26c.72.77,1.72,1.74,2.7,2.73l.37.36.09.09.09.08.2.15a5.87,5.87,0,0,0,.83.42c.29.14.58.24.85.34l.79.26c.49.17.91.27,1.21.36l.46.14s0,0,0,0,0,0,0,0a8.37,8.37,0,0,1-1.77-.1,7.31,7.31,0,0,1-1.78-.5,5,5,0,0,1-.93-.55L73,176l-.11-.1-.09-.1-.34-.4c-.93-1.07-1.89-2.09-2.53-2.92l-1.1-1.37a0,0,0,0,1,0,0S68.88,171.1,68.89,171.11Z"/><path class="cls-22" d="M79,162.89s0,.34.14.84a14,14,0,0,0,.45,1.81,8.07,8.07,0,0,0,.37.9c0,.14.11.27.16.4s.11.24.15.36.11.2.15.29a1.17,1.17,0,0,0,.13.23l.13.21h0s0,0,0,0h0l-.23-.11a.93.93,0,0,1-.24-.15,2.34,2.34,0,0,1-.28-.27,2.88,2.88,0,0,1-.49-.79,6.22,6.22,0,0,1-.26-1,12.23,12.23,0,0,1-.2-2.76,0,0,0,0,1,0,0Z"/><path class="cls-33" d="M84.76,164.85c3.37-.07,5.09-3.95,1.36-3.73s-5-2.08-9.54-3.87a11.1,11.1,0,0,0-8.77.57,93.19,93.19,0,0,1-5.45-11.17c-3-7.05-5.79-13.94-5.79-13.94l-2.2-4.35a39.64,39.64,0,0,1,3.31-2.93l4.09-2.58c2,1.19,5.95-.82,7.42-2.94s6.78-7.75,8.64-12.48.31-5.94.31-5.94-5.84-2.87-7.56-2.2-11.57,9.94-17,16.45S42.08,127.5,42.94,131.9s10.43,17.5,10.43,17.5l7.17,8.47s2.68,3,2.58,4c-1.18,12.38,7.13,15,9.28,16.65s6.84,5.16,7.7,4.78.33-1-.86-2.44a35.94,35.94,0,0,1-2.49-3.68,9.25,9.25,0,0,0,3.73,0,4.36,4.36,0,0,0,1.82-1.06c1.48.39,3.49,1.06,3.82.58s-.43-1.1-.43-1.1c1.37.72,1.87-.29,1.58-2.08s-3.23-3.87-4.81-4.38A3.11,3.11,0,0,1,80,165.78C80,163.85,81.39,164.92,84.76,164.85Zm-6.33-1c.09,1.35,0,4.08,2.72,5.51s4.31,1.39,5.45,3.4-.14,2.58-1,1.82-2-1.63-5.26-2.63-3-2.3-4.93-4.93-2.29-2.63-.86.05,1.63,4.45,3.59,5.45S85,176,81.91,175.27s-4.87-.43-7.74-3.49-5.18-5.44-3.57-3.2,4.72,6,5.67,6.5a6.23,6.23,0,0,0,3.51.88c1.82,0-.82,1-3.75.41s-6.69-5.35-7.65-6.17.62,1.58,1.91,3.16,2.3,3.15,3.88,4,2.55,2.06,4.19,3.78-2.52-.62-5.58-2.82-9-3.91-9.23-13.44c0-2,.81-2.68.05-4.16s-14.42-18.37-17.93-24.93-2-7.85,2.15-13a173.39,173.39,0,0,1,11.91-13.44c5.92-5.84,10-9,11.26-9.5s7.31.68,5,6.77-4.66,8.93-4.45,6.08-1.07-.59-2.08,1.12-.14-1,.22-3.11-5.62,8.83-12,12.41-4.59,2.73-7.17,2.94,2.22.15,4.51,5.31,4.37,9.49,8.1,18.05,4,9,3.31,9.9.64-.76,2.4-1.43a11.23,11.23,0,0,1,7.59-.34c2.86,1,4.88,3.45,7.41,3.73s3.36-.09,3.74.48-.72,3.48-4.69,2.44-3.16-1.53-3.68-2.49S78.33,162.48,78.43,163.83Z"/><g class="cls-26"><path class="cls-27" d="M72.29,99.89l-.11,0-.31.13c-.14,0-.3.16-.5.25s-.41.23-.64.39l-.78.51-.89.66c-.64.46-1.3,1-2,1.67s-1.5,1.35-2.32,2.09-1.64,1.59-2.52,2.43-1.74,1.74-2.63,2.66-1.77,1.86-2.64,2.81-1.73,1.92-2.56,2.88-1.65,1.91-2.43,2.84-1.55,1.81-2.27,2.65l-2,2.4-.87,1.08-.76,1c-.46.63-.85,1.19-1.15,1.66a5.91,5.91,0,0,0-.38.64,3.61,3.61,0,0,0-.24.5l-.17.42H44s0-.17.09-.47a2.35,2.35,0,0,1,.16-.55,6.38,6.38,0,0,1,.29-.72,15.79,15.79,0,0,1,1-1.83c.41-.69.89-1.46,1.44-2.26l.89-1.25,1-1.3c.68-.89,1.44-1.8,2.23-2.73s1.65-1.86,2.54-2.78,1.78-1.87,2.69-2.79,1.84-1.84,2.75-2.74,1.83-1.76,2.73-2.58,1.75-1.64,2.62-2.35,1.64-1.42,2.43-2,1.47-1.16,2.14-1.59l.92-.63.81-.48c.24-.15.47-.26.67-.36a3.63,3.63,0,0,1,.52-.23l.33-.12.12,0Z"/></g><g class="cls-26"><path class="cls-27" d="M66.72,159.5l.15-.15c.11-.08.25-.23.46-.37a7.27,7.27,0,0,1,.77-.52,7.59,7.59,0,0,1,1.07-.55,10,10,0,0,1,1.35-.5c.49-.15,1-.21,1.57-.33s1.13-.07,1.74-.07c.29,0,.57,0,.87.07a8.63,8.63,0,0,1,.91.16,10.88,10.88,0,0,1,1.73.54,11.24,11.24,0,0,1,1.56.74c.48.28.93.56,1.33.84l1.15.77c.35.24.68.44,1,.61a8.43,8.43,0,0,0,.79.4,3.6,3.6,0,0,0,.54.22l.19.09v.11h-.22a3.39,3.39,0,0,1-.61,0l-.43-.06-.5-.12a8.71,8.71,0,0,1-1.16-.42,25.08,25.08,0,0,1-2.64-1.38c-.46-.27-.93-.55-1.41-.8-.25-.12-.49-.25-.75-.35a7.08,7.08,0,0,0-.77-.28,7.69,7.69,0,0,0-.79-.21c-.25-.06-.56-.08-.83-.13-.52,0-1.09,0-1.61,0s-1,.1-1.51.19a9.38,9.38,0,0,0-1.32.35,8.67,8.67,0,0,0-1.08.43,7.8,7.8,0,0,0-.79.42,4.68,4.68,0,0,0-.49.32l-.17.12Z"/></g><g class="cls-26"><path class="cls-27" d="M49.73,126.63a1.63,1.63,0,0,1,.44,0,3.46,3.46,0,0,1,1.15.43,7.37,7.37,0,0,1,1.51,1.16,9.55,9.55,0,0,1,.78.86l.4.48c.13.17.26.36.39.54a21.06,21.06,0,0,1,1.48,2.46c.25.45.46.92.68,1.41s.44,1,.63,1.5c.4,1,.77,2.1,1.15,3.17s.81,2.15,1.24,3.23c1.73,4.31,3.71,8.52,5,11.77a32.7,32.7,0,0,1,1.43,4,5.53,5.53,0,0,1,.18,1.19,1.4,1.4,0,0,1-.07.43l-.11,0a1.6,1.6,0,0,0,0-.4,4.8,4.8,0,0,0-.23-1.14,31.8,31.8,0,0,0-1.61-3.87c-1.5-3.15-3.6-7.31-5.51-11.57-.48-1.07-1-2.14-1.4-3.2s-.85-2.13-1.26-3.12c-.18-.51-.38-1-.59-1.47s-.4-.95-.61-1.39-.4-.88-.62-1.28-.41-.81-.64-1.18a14.86,14.86,0,0,0-1.29-1.92,7.92,7.92,0,0,0-1.24-1.27,3.58,3.58,0,0,0-1-.58,1.64,1.64,0,0,0-.39-.1Z"/></g><g class="cls-26"><path class="cls-27" d="M78.17,162.9s0,.23,0,.62a8.88,8.88,0,0,0,.14,1.62,7,7,0,0,0,.75,2.12,4,4,0,0,0,.74,1,3.41,3.41,0,0,0,.48.37,5.12,5.12,0,0,0,.57.3c.38.18.81.35,1.22.5s.84.31,1.24.48a10.9,10.9,0,0,1,1.13.59,7,7,0,0,1,1,.68,4.36,4.36,0,0,1,.7.74,2.21,2.21,0,0,1,.37.71,1.38,1.38,0,0,1,.09.5c0,.12,0,.18,0,.18l-.12,0-.08-.15a1.29,1.29,0,0,0-.26-.35,2.4,2.4,0,0,0-.49-.44,6.86,6.86,0,0,0-.74-.45c-.57-.3-1.28-.59-2-.94-.38-.18-.78-.37-1.18-.59s-.82-.42-1.24-.68c-.23-.13-.39-.25-.61-.4a3.88,3.88,0,0,1-.55-.52,5,5,0,0,1-.78-1.2,6.74,6.74,0,0,1-.55-2.37,8.39,8.39,0,0,1,.06-1.68,4.92,4.92,0,0,1,.11-.63Z"/></g><g class="cls-26"><path class="cls-27" d="M73.69,165.78l1,1.69c.58,1,1.31,2.39,2,3.75a2,2,0,0,0,.65.69c.27.19.57.35.87.52.59.33,1.18.65,1.68.95a9.53,9.53,0,0,1,1.19.81,3.48,3.48,0,0,1,.42.36l-.05.11-.54-.1c-.34-.07-.82-.18-1.38-.34a9,9,0,0,1-1.91-.75,4.68,4.68,0,0,1-1-.74,3.29,3.29,0,0,1-.78-1.11c-.58-1.44-1.18-2.88-1.59-4l-.69-1.82Z"/></g><g class="cls-26"><path class="cls-27" d="M70,168l1.29,1.55,1.34,1.57c.49.57,1,1.18,1.57,1.74l.41.42.42.35c.27.23.64.47.91.68a8.83,8.83,0,0,0,.8.58,1.63,1.63,0,0,0,.38.22,2.33,2.33,0,0,0,.39.19l.37.16a3,3,0,0,1,.36.12l.6.2a4.64,4.64,0,0,1,.54.19v.11s-.2,0-.57.11a4,4,0,0,1-.66.05,4.63,4.63,0,0,1-1.92-.36,4.57,4.57,0,0,1-1-.62,6.81,6.81,0,0,1-.89-.82l-.43-.48-.38-.49c-.26-.32-.5-.65-.73-1s-.47-.65-.68-1c-.44-.62-.81-1.22-1.14-1.74-.65-1-1-1.72-1-1.72Z"/></g><g class="cls-26"><path class="cls-27" d="M67.86,170.17s.44.6,1.12,1.47c.32.44.75.92,1.18,1.46a10.06,10.06,0,0,0,.68.81l.74.78.37.39.09.09,0,0h0l.05,0,.22.17c.28.22.56.45.82.68l.37.34.35.3c.23.2.43.39.62.58s.39.36.54.51l.42.42c.23.23.36.38.36.38l0,.1a3.86,3.86,0,0,1-.52-.13l-.57-.2a5.43,5.43,0,0,1-.71-.33l-.81-.48-.43-.28c-.13-.1-.25-.22-.38-.34s-.5-.49-.75-.76l-.18-.2,0-.05v0l0,0,0,0-.09-.12-.33-.45-.67-.91a8.28,8.28,0,0,1-.6-.9c-.37-.59-.72-1.13-1-1.62s-.51-.89-.65-1.18l-.23-.45Z"/></g><path class="cls-20" d="M80.14,112.68c-2.58,7.84-2.67,11.86,2.68,13.67s12.05.2,13.87-7.46A65.43,65.43,0,0,0,98.58,106h0a4.13,4.13,0,0,0-1.12-1.66v-.94c-7-1.24-10.52-5.07-10.52-5.07s-1.06,2.58-1.92,3a18,18,0,0,1-3.63.57S82.73,104.84,80.14,112.68Z"/><path class="cls-22" d="M86.24,99.84a1.5,1.5,0,0,1,0,.24,2.55,2.55,0,0,1-.12.62l-.14.42a3.46,3.46,0,0,1-.23.41c-.18.27-.39.54-.59.82a8.18,8.18,0,0,1-.66.76c-.21.24-.42.45-.59.64l-.59.61a0,0,0,0,1,0,0s0,0,0,0h0l.47-.7c.14-.21.31-.46.49-.71a7.74,7.74,0,0,0,.54-.82c.16-.29.3-.6.45-.86s.17-.26.26-.37a2.63,2.63,0,0,1,.2-.33c.13-.21.27-.37.36-.5s.14-.2.13-.2,0,0,0,0A0,0,0,0,1,86.24,99.84Z"/><path class="cls-22" d="M97.48,103.41s0,.37-.08.88c0,.25-.11.53-.17.85s-.19.62-.29,1-.17.66-.24,1-.13.61-.19.86c-.12.5-.19.84-.19.84s0,0,0,0,0,0,0,0l0-.86c0-.25,0-.56.07-.88a7.12,7.12,0,0,1,.12-1c0-.35.09-.69.16-1a4.21,4.21,0,0,1,.3-.85,3.08,3.08,0,0,1,.47-.75,0,0,0,0,1,0,0S97.48,103.4,97.48,103.41Z"/><path class="cls-33" d="M97.46,104.34v-.94c-7-1.24-10.52-5.07-10.52-5.07s-1.06,2.58-1.92,3a18,18,0,0,1-3.63.57s1.34,3-1.25,10.81-2.67,11.86,2.68,13.67,12.05.2,13.87-7.46A65.43,65.43,0,0,0,98.58,106,4.13,4.13,0,0,0,97.46,104.34Zm-1.77,11.78c-1.1,5-3.49,9.33-9.09,8.9s-7.33-5.13-6-9.63a34.15,34.15,0,0,0,1.61-8.74c.08-1.91.51-3.25.75-2.31.3,1.19,2.87-.37,3.92-2.25s.86-1.61,4.35.21,5.09.86,4.83,3.3-.72,6.12.27,4.07S96.79,111.1,95.69,116.12Z"/><g class="cls-26"><path class="cls-27" d="M82.83,104.85s0,.1-.06.27,0,.2-.08.32,0,.28,0,.44c-.07.66-.07,1.63-.13,2.78,0,.29,0,.59-.05.9s-.06.64-.1,1c0,.67-.21,1.36-.31,2.08s-.34,1.44-.51,2.18a9,9,0,0,0-.23,1.1c-.07.35-.1.73-.14,1.09s0,.74,0,1.11,0,.73.1,1.07l.09.53.13.5a5.83,5.83,0,0,0,.34.94,5.64,5.64,0,0,0,1,1.56l.3.32.34.27.32.26.36.21.33.21.35.15c.23.1.44.21.66.29.43.12.81.27,1.13.34.65.14,1,.24,1,.24v.12s-.39,0-1.08,0a8.89,8.89,0,0,1-1.25-.1,6.35,6.35,0,0,1-.76-.18,3.25,3.25,0,0,1-.42-.11l-.41-.18-.44-.19-.42-.26-.43-.29-.4-.36a5.58,5.58,0,0,1-1.31-1.86,7.45,7.45,0,0,1-.53-2.33c0-.4,0-.8,0-1.2s0-.8.12-1.2.11-.78.21-1.17.19-.77.3-1.13c.22-.72.43-1.43.63-2.12s.33-1.36.43-2c.06-.32.11-.63.17-.94s.08-.6.11-.88c.15-1.15.22-2.1.34-2.78a3.87,3.87,0,0,1,.19-.77l.08-.26Z"/></g><path class="cls-20" d="M118.53,134.51c-1.24-2.81-5.18-7-7.3-13.94-2.35-7.65-6-10.38-6-10.38A114.33,114.33,0,0,1,106.8,135c.87,1.3,1.87,2.85,2.35,3.77A50.87,50.87,0,0,0,112,143.6l7.64-6.1A21,21,0,0,0,118.53,134.51Z"/><path class="cls-33" d="M118.53,134.51c-1.24-2.81-5.18-7-7.3-13.94-2.35-7.65-6-10.38-6-10.38A114.33,114.33,0,0,1,106.8,135c.87,1.3,1.87,2.85,2.35,3.77A50.87,50.87,0,0,0,112,143.6l7.64-6.1A21,21,0,0,0,118.53,134.51Zm-1,4.09c-1.53,1.91-6.36,1.64-8.13-2.84s-1.72-6.92-2-10.7-.44-6.69-.67-8.17c-1-6.66,1.41-4.21,4,3.73a33.08,33.08,0,0,0,4.07,8.95C116.77,133.05,119.07,136.68,117.54,138.6Z"/><g class="cls-26"><path class="cls-27" d="M106.78,112.32s.22.36.59,1,.89,1.61,1.45,2.78c.29.58.57,1.23.88,1.91s.58,1.41.88,2.17.56,1.56.85,2.37a20.36,20.36,0,0,0,.91,2.35,42,42,0,0,0,2.47,4.33c.84,1.37,1.61,2.68,2.2,3.86.29.58.54,1.14.73,1.64a11.3,11.3,0,0,1,.41,1.34,6.32,6.32,0,0,1,.14.88c0,.21,0,.32,0,.32l-.11,0s0-.1-.1-.29-.17-.47-.33-.81a22.59,22.59,0,0,0-1.54-2.66c-.69-1.07-1.57-2.29-2.43-3.67a30.34,30.34,0,0,1-2.33-4.59,21.38,21.38,0,0,1-.83-2.49c-.24-.8-.45-1.61-.71-2.37s-.49-1.51-.76-2.19-.49-1.35-.74-2c-.47-1.2-.92-2.18-1.23-2.86s-.52-1.07-.52-1.07Z"/></g><path class="cls-20" d="M154.3,115.71c-2.65,1-6.42,1.26-6.88,2.37a1.81,1.81,0,0,0,.39,1.94c-1.31.37-3.37,1.09-3.57,1.77a.85.85,0,0,0,.45,1c-1.09.14-2.82-.22-3.16.5a1.16,1.16,0,0,0,.26,1.4s-2.84-.25-3.09.83.65,1.5,2.83,2.11,3.91.11,3.3,1.47-1.68,4.13-1.68,4.13L122,150.07a8.3,8.3,0,0,0,3.88.72c1.61-.29,9.61-4.27,13.12-6.63a30,30,0,0,0,6.46-6.53,36.31,36.31,0,0,0,6.53-1.8c3.37-1.29,3.19-2.79,4-4.62s1.72-4.81,3.16-7.89c.45-1,.68-1.29.5-1.94s-.5-1.65-.5-1.65l-1-2.22C157.21,114.89,157,114.67,154.3,115.71Z"/><path class="cls-22" d="M140.74,124.64s.2,0,.54-.08l1.4-.13c.59,0,1.27-.06,2-.06l1.12,0c.39,0,.76,0,1.17,0a4.71,4.71,0,0,1,1.2.23,1.47,1.47,0,0,1,.88.86,3.08,3.08,0,0,1,.14,1.09,9.1,9.1,0,0,1-.05.95c-.09,1.16-.11,1.94-.11,1.94a0,0,0,0,1,0,0s0,0,0,0,0-.78,0-1.95c0-.29,0-.6,0-.93a2.92,2.92,0,0,0-.18-1A1.08,1.08,0,0,0,148,125a3.78,3.78,0,0,0-1.09-.14l-1.14,0-1.12,0c-.73,0-1.41,0-2-.07s-1.06-.08-1.4-.13-.54-.07-.54-.07,0,0,0,0A0,0,0,0,1,140.74,124.64Z"/><path class="cls-22" d="M144.24,122.79l.5-.28c.32-.17.79-.39,1.34-.66s1.23-.55,1.94-.84a3.24,3.24,0,0,1,1.26-.28,1.61,1.61,0,0,1,1.22.69,4.76,4.76,0,0,1,.59,1.14c.14.39.25.78.35,1.16s.19.74.25,1.09.14.68.18,1c.11.62.19,1.12.24,1.48s.08.56.08.56,0,0,0,0,0,0,0,0,0-.2-.12-.55-.19-.86-.33-1.45-.34-1.3-.56-2c-.12-.36-.24-.73-.4-1.1a4.09,4.09,0,0,0-.58-1,1.08,1.08,0,0,0-.87-.44,3.13,3.13,0,0,0-1,.3c-.72.27-1.4.52-2,.7s-1.08.34-1.43.43-.56.14-.56.14,0,0,0,0S144.23,122.79,144.24,122.79Z"/><path class="cls-22" d="M147.41,120.11l.61-.29.7-.3c.28-.11.58-.25.92-.38l1.09-.42c.39-.15.81-.29,1.23-.44a3.3,3.3,0,0,1,1.51-.22,1.4,1.4,0,0,1,.76.44,2.87,2.87,0,0,1,.4.69,8.56,8.56,0,0,1,.39,1.44c.09.47.16.93.22,1.39.1.9.21,1.74.3,2.46s.16,1.32.18,1.75.06.66.06.66a0,0,0,0,1,0,0s0,0,0,0l-.09-.66c0-.42-.17-1-.3-1.73s-.27-1.55-.42-2.44c-.08-.44-.17-.9-.28-1.36a7.36,7.36,0,0,0-.42-1.33c-.19-.42-.47-.75-.83-.78a2.91,2.91,0,0,0-1.22.24c-.44.14-.85.29-1.25.4l-1.12.33c-.35.11-.68.18-1,.26l-.75.19-.65.14s0,0,0,0S147.4,120.11,147.41,120.11Z"/><path class="cls-22" d="M147.08,137.34a2.84,2.84,0,0,1-.71.37,3.79,3.79,0,0,1-.78.23c-.29,0-.61,0-.92.06s-.64,0-.93,0-.57,0-.81-.06l-.77-.14a.05.05,0,0,1,0,0s0,0,0,0h.77l.79-.07c.28,0,.58-.09.88-.13l.88-.2a5.9,5.9,0,0,1,.78-.08,4.71,4.71,0,0,1,.79,0s0,0,0,0Z"/><path class="cls-33" d="M159.68,121.38c-.18-.64-.5-1.65-.5-1.65l-1-2.22c-.93-2.62-1.18-2.84-3.84-1.8s-6.42,1.26-6.88,2.37a1.81,1.81,0,0,0,.39,1.94c-1.31.37-3.37,1.09-3.57,1.77a.85.85,0,0,0,.45,1c-1.09.14-2.82-.22-3.16.5a1.15,1.15,0,0,0,.22,1.37c.58,0,1.27,0,2.08,0,3,0,5.27-.79,5.06,2.27s.36,5,.64.72-.39-3.91-3.12-3.69-4.41.46-4.59-.33,1.65-.31,3.48-1,5.16-2.76,5.88,2.19,1.25,3.56.83.61c-.51-3.48-.86-3.66-1.37-4.34s1.62-2.51,3.05.36a23.44,23.44,0,0,1,1.79,5.2c.4,1,.51,0,0-3.7s.11-5.27-1.18-5.63-.87-1.11,1.15-1.5,1.33.07,2.22,2.08,1.54,3.15,0,7.42-2.31,8.13-6.09,9.67a38.58,38.58,0,0,1-9,2.62c-1.61.16.3.73,1.14.66s-5.66,6.56-12.5,9.72-7.64,1.86-5.46,0,3.07-2.49,5-4c2.66-2.07,8.89-6.82,9.93-7.61s3-1.58,4-4.66,2.46-4.68.28-4.81c-3.26-.21-5-.35-5.27-1.29-.17-.63.46-.87,1.83-1-.75,0-2.56,0-2.76.85-.25,1.07.65,1.5,2.83,2.11s3.91.11,3.3,1.47-1.68,4.13-1.68,4.13L122,150.07a8.3,8.3,0,0,0,3.88.72c1.61-.29,9.61-4.27,13.12-6.63a30,30,0,0,0,6.46-6.53,36.31,36.31,0,0,0,6.53-1.8c3.37-1.29,3.19-2.79,4-4.62s1.72-4.81,3.16-7.89C159.63,122.34,159.86,122,159.68,121.38Z"/><g class="cls-26"><path class="cls-27" d="M141.32,124.8s.7,0,1.76.07c.52,0,1.13,0,1.79,0l1-.09c.34,0,.7-.06,1.07-.07a2.17,2.17,0,0,1,1.14.25,1.68,1.68,0,0,1,.72.94,5.31,5.31,0,0,1,.21,1.86,11.75,11.75,0,0,1-.2,1.77h-.06s0-.18-.06-.48-.07-.74-.13-1.27a7.62,7.62,0,0,0-.32-1.68,1.29,1.29,0,0,0-.45-.67,1.68,1.68,0,0,0-.87-.24,7,7,0,0,0-1,0l-1,0c-.67,0-1.28-.06-1.81-.12-1.05-.11-1.74-.23-1.74-.23Z"/></g><g class="cls-26"><path class="cls-27" d="M142.76,123a17.27,17.27,0,0,0,2.06-.39c.31-.07.64-.16,1-.26s.7-.24,1.07-.37.72-.3,1.11-.47a2.2,2.2,0,0,1,1.35-.22,1.8,1.8,0,0,1,1.13.85,5.24,5.24,0,0,1,.53,1.17,13.83,13.83,0,0,1,.45,2.15c.07.63.13,1.16.15,1.53s0,.59,0,.59h-.05s-.07-.21-.17-.56c-.06-.18-.12-.4-.18-.65s-.14-.52-.23-.83c-.16-.61-.33-1.32-.56-2.06a6.09,6.09,0,0,0-.42-1.07,1.3,1.3,0,0,0-.77-.69,1.88,1.88,0,0,0-1.1.14c-.38.14-.77.3-1.15.43s-.75.24-1.11.3-.69.16-1,.21a16.85,16.85,0,0,1-2.1.25Z"/></g><path class="cls-2" d="M2.87,275.6c-.26-6.39.38-8.37.38-8.37L.38,268.38,0,276.7s1.82,1.91,1.53,1.82-.19,5.16-.38,11.09a9.14,9.14,0,0,0,3.6,8C.6,294.12,3.12,281.72,2.87,275.6Z"/><path class="cls-2" d="M24.77,293.24c-6.5-3.72-8.32-7.36-9.09-11.28a70.67,70.67,0,0,1-.95-9,3.53,3.53,0,0,1-4.55-.72c-2.24-2.29-1.81-6.74-1.81-6.74-3.21-1.48-5.12,1.72-5.12,1.72s-.64,2-.38,8.37c.25,6.12-2.27,18.52,1.88,22,2.2,1.67,5.46,2.76,10,3C24.58,301.18,31.27,297,24.77,293.24Z"/><path class="cls-34" d="M24.77,293.24c-6.5-3.72-8.32-7.36-9.09-11.28a70.67,70.67,0,0,1-.95-9,3.53,3.53,0,0,1-4.55-.72c-2.24-2.29-1.81-6.74-1.81-6.74-3.21-1.48-5.12,1.72-5.12,1.72s-.64,2-.38,8.37c.25,6.12-2.27,18.52,1.88,22,2.2,1.67,5.46,2.76,10,3C24.58,301.18,31.27,297,24.77,293.24Zm-13.48,3.59c-5.65-2.72-6.8-5.83-5.07-18.12.86-6.16,7.17-6.7,8-.58s-.11,9.37,6.12,13.11c3.11,1.86,5.59,2.63,5.64,4S16.93,299.56,11.29,296.83Z"/><g class="cls-4"><path class="cls-2" d="M13.82,297l.33,0,.93.09a21.63,21.63,0,0,0,3.31-.08,20.93,20.93,0,0,0,2.19-.31,14.67,14.67,0,0,0,2.38-.62,8.75,8.75,0,0,0,1.18-.51,3.44,3.44,0,0,0,.53-.34.56.56,0,0,0,.25-.4.76.76,0,0,0-.28-.43,2.9,2.9,0,0,0-.52-.38,12.39,12.39,0,0,0-1.19-.65c-.82-.41-1.66-.8-2.46-1.24a13.46,13.46,0,0,1-2.25-1.48,13.29,13.29,0,0,1-1.86-1.71A6.7,6.7,0,0,1,15.11,287a7.21,7.21,0,0,1-.43-1.87c-.06-.57-.1-1.05-.13-1.45s-.07-.71-.1-.93,0-.33,0-.33h.06s.13.45.28,1.24c.07.4.16.88.26,1.43a7.56,7.56,0,0,0,.52,1.74,6.17,6.17,0,0,0,1.23,1.74,17.41,17.41,0,0,0,1.83,1.62,25.4,25.4,0,0,0,4.55,2.77c.41.22.82.44,1.21.7a3.35,3.35,0,0,1,.57.44,1.06,1.06,0,0,1,.39.71.92.92,0,0,1-.4.72,3.81,3.81,0,0,1-.6.36,9.27,9.27,0,0,1-1.24.51,19.44,19.44,0,0,1-4.66.81,22.16,22.16,0,0,1-3.34,0c-.4,0-.72-.07-.93-.11l-.32-.05Z"/></g><path class="cls-34" d="M2.81,272.71a21.18,21.18,0,0,1,.44-5.48L.38,268.38l-.14,3C.91,270,2.18,270.59,2.81,272.71Z"/><path class="cls-2" d="M225.52,285.45c-.53-2-3.49-1.24-9.47-2.87s-11.29-4.16-17.17-5.88-9.85-1.53-11-3.54-2.3-1.34-2.3-1.34a6.66,6.66,0,0,1-3.2,2.78c-2.16.81-2.44,1.62-5.26,1.67-1.77,9.28-.29,10.38-.29,10.38s5.74,2.22,8,2.15,1.72-1.72,3.8,0,6.82,2.79,14.06,3,17.9-.9,20.4-1.84C225,288.52,225.83,286.66,225.52,285.45Z"/><path class="cls-2" d="M202.61,291.81c-7.24-.22-12-1.29-14.06-3s-1.58-.07-3.8,0-8-2.15-8-2.15-.67,1.14,2.06,2.67,6,2.44,6.5,2.06a13.35,13.35,0,0,0,1.48-1.82,19.85,19.85,0,0,0,1.34,1.58c.57.57.77,1.29,6.6,1.53a152.68,152.68,0,0,0,23-.72,10.81,10.81,0,0,0,5.19-2C220.51,290.91,209.84,292,202.61,291.81Z"/><path class="cls-34" d="M225.52,285.45c-.53-2-3.49-1.24-9.47-2.87s-11.29-4.16-17.17-5.88-9.85-1.53-11-3.54-2.3-1.34-2.3-1.34a6.66,6.66,0,0,1-3.2,2.78c-2.16.81-2.44,1.62-5.26,1.67-1.77,9.28-.29,10.38-.29,10.38s5.74,2.22,8,2.15,1.72-1.72,3.8,0,6.82,2.79,14.06,3,17.9-.9,20.4-1.84C225,288.52,225.83,286.66,225.52,285.45Zm-9.78,4.28c-9.18.79-24.46-.86-27.47-3.59s-5.74,2.3-6.24-1.14-.18-3.16-.09-6l.09-.29c-.79-2.94,3.8-5.81,6.38-4.16s7.94,1.87,14.85,4,11,4.3,15.85,5.16S224.92,288.94,215.74,289.73Z"/><g class="cls-4"><path class="cls-2" d="M186.69,275a2.07,2.07,0,0,1,.41,0,3.57,3.57,0,0,1,1.1.39,13.93,13.93,0,0,0,1.63.7,13.75,13.75,0,0,0,2.21.6c.41.1.84.16,1.29.23l1.4.19,3,.48a14.92,14.92,0,0,1,1.59.32l1.63.38c.54.14,1.1.25,1.65.4l1.63.49c1.09.32,2.19.63,3.24,1s2.1.72,3.1,1.06,1.94.71,2.85,1l2.58.86a31.85,31.85,0,0,1,3.88,1.43,4.2,4.2,0,0,1,1,.65,2.07,2.07,0,0,1,.27.33l-.09.07a1.24,1.24,0,0,0-.31-.24,3.86,3.86,0,0,0-1-.43c-.94-.27-2.32-.55-4-.93-.83-.18-1.72-.41-2.67-.68s-1.93-.61-2.92-1-2-.75-3.05-1.17S205,280.41,204,280l-1.59-.55c-.54-.17-1.07-.3-1.6-.45l-1.58-.44a14.75,14.75,0,0,0-1.56-.38l-3-.59c-.48-.11-.93-.18-1.39-.27s-.89-.18-1.3-.29a15.63,15.63,0,0,1-2.22-.73,15.06,15.06,0,0,1-1.61-.8,3.32,3.32,0,0,0-1-.42,1.89,1.89,0,0,0-.39,0Z"/></g><path class="cls-34" d="M180.94,288.06c-2.12-.63-4.15-1.41-4.15-1.41s-.67,1.14,2.06,2.67a21.11,21.11,0,0,0,3.41,1.53C180.87,289.89,180.39,288.76,180.94,288.06Z"/><path class="cls-35" d="M115.44,197.23a28.55,28.55,0,0,1,9.43-3.92l-1.66-1.87C120.55,192.34,116.93,194.09,115.44,197.23Z"/><path class="cls-23" d="M117.45,195.69c1.24-2.25,3.9-3.42,6-4l-.21-.24c-2.66.9-6.28,2.65-7.77,5.79a28.55,28.55,0,0,1,9.43-3.92l-.15-.17A21.93,21.93,0,0,0,117.45,195.69Z"/><path class="cls-35" d="M114.5,208.15s6.15-6.8,15-9.23c-.82-1-1.66-2.08-2.49-3.08C123.67,197.18,118.32,200.44,114.5,208.15Z"/><path class="cls-23" d="M117.83,204.23a18.68,18.68,0,0,1,9.63-7.86l-.43-.53c-3.36,1.34-8.71,4.6-12.53,12.31,0,0,6.15-6.8,15-9.23l-.31-.38A30.45,30.45,0,0,0,117.83,204.23Z"/><path class="cls-8" d="M184.2,268.38c-1.15-1.44-12.72-16-21.14-27s-10.8-14.83-13.58-18.94-8-6.6-16.64-19c-1.06-1.54-2.18-3.05-3.32-4.52-8.87,2.43-15,9.23-15,9.23,3.82-7.71,9.17-11,12.53-12.31-.72-.87-1.45-1.71-2.16-2.53a28.55,28.55,0,0,0-9.43,3.92c1.49-3.14,5.11-4.89,7.77-5.79-.71-.78-1.4-1.53-2.08-2.24-8,1.87-13.15,10-13.15,10a17.67,17.67,0,0,1,11.17-12.11c-4-4.13-7-6.73-7-6.73-1.35.86-4.18,3-6.29,11.57a44,44,0,0,1-6,14.06,51.31,51.31,0,0,1,10.61,5.55c5.26,3.63,18,10.52,20.49,12.71s1.33,5.23,1.51,6.88,4.78,2.84,4.78,2.84c-1.58,1.72,2.49,3.1,2.49,3.1,4,10.05,8.61,14.64,16.83,20.18s15.69,13.49,17.55,16.21,3,2.78,3,2.78c2.82,0,3.1-.86,5.26-1.67a6.66,6.66,0,0,0,3.2-2.78A7.32,7.32,0,0,0,184.2,268.38Z"/><path class="cls-35" d="M108,199.23s5.13-8.16,13.15-10c-.68-.73-1.35-1.42-2-2.08A17.67,17.67,0,0,0,108,199.23Z"/><path class="cls-23" d="M109.46,196.65c1.75-5.57,6.7-8.14,10-9.25l-.26-.28A17.67,17.67,0,0,0,108,199.23s5.13-8.16,13.15-10L121,189C113.92,190.74,109.46,196.65,109.46,196.65Z"/><path class="cls-17" d="M103.3,200.6l1,.74,3,2,4.71,3,6.21,3.78c2.29,1.37,4.78,2.84,7.35,4.5a75.27,75.27,0,0,1,7.81,5.67,18.16,18.16,0,0,1,1.83,1.79,8,8,0,0,1,.8,1.08l.16.31a3.62,3.62,0,0,1,.13.35,3.94,3.94,0,0,1,.14.7c.14,2-1.27,3.53-1.72,4.94,0,0,0,.1,0,.08a.36.36,0,0,0,0,.1s0,.06.05.09a1.12,1.12,0,0,0,.4.21,8.09,8.09,0,0,0,1.23.25l.67.12a1.86,1.86,0,0,1,.78.31,1,1,0,0,1,.22.24s.08.16.1.22a3,3,0,0,1,.11.37c.05.24.08.46.12.68a11.49,11.49,0,0,0,.26,1.25,2.53,2.53,0,0,0,.49,1c.37.47,1.31.31,2.24.39a4.89,4.89,0,0,1,2.72,1A7.41,7.41,0,0,1,146,238a23.39,23.39,0,0,1,1.16,2.44c.37.79.74,1.57,1.14,2.33a22.42,22.42,0,0,0,2.82,4.21,18.9,18.9,0,0,0,3.68,3.25c.68.47,1.35.86,2.07,1.31s1.39.91,2.05,1.37c1.32.94,2.57,1.92,3.74,2.91,2.35,2,4.46,4,6.35,5.88s3.53,3.72,5,5.35a36.5,36.5,0,0,1,3.42,4.49,21.3,21.3,0,0,1,1.7,3.21c.15.39.26.69.35.88s.08.17.11.18h0a.07.07,0,0,1,.08,0,.07.07,0,0,1,0,.08.17.17,0,0,1-.13,0,.48.48,0,0,1-.16-.22c-.11-.19-.23-.48-.42-.86a21.34,21.34,0,0,0-1.84-3.07,44.23,44.23,0,0,0-3.57-4.28c-1.48-1.57-3.21-3.29-5.13-5.12s-4.06-3.77-6.41-5.68c-1.19-.95-2.42-1.9-3.71-2.81-.66-.46-1.3-.89-2-1.32s-1.44-.85-2.12-1.34a20.25,20.25,0,0,1-3.88-3.48,22.6,22.6,0,0,1-2.9-4.46c-.41-.79-.78-1.6-1.14-2.42a23,23,0,0,0-1.08-2.35,6.74,6.74,0,0,0-1.54-1.91,3.94,3.94,0,0,0-2.21-.83c-.42,0-.85,0-1.33-.07l-.38,0-.2,0-.19-.06a1.81,1.81,0,0,1-.72-.49,3.29,3.29,0,0,1-.68-1.36,11.67,11.67,0,0,1-.27-1.36c0-.21-.06-.43-.1-.63s-.05-.19-.07-.26l0-.08s0,0,0,0a1.23,1.23,0,0,0-.44-.16c-.2,0-.41-.08-.63-.12a7.18,7.18,0,0,1-1.35-.3,1.75,1.75,0,0,1-.73-.43.91.91,0,0,1-.24-.5.65.65,0,0,1,0-.22c0-.09,0-.09,0-.14s0-.07,0-.11a5.37,5.37,0,0,1,.57-1.3c.21-.38.42-.75.61-1.13a4.63,4.63,0,0,0,.59-2.29,3.33,3.33,0,0,0-.1-.55l-.09-.25-.13-.27a6.5,6.5,0,0,0-.71-1,18,18,0,0,0-1.74-1.75,76.07,76.07,0,0,0-7.67-5.71c-2.54-1.7-5-3.21-7.26-4.62l-6.15-3.88-4.67-3.13-2.95-2.08-1-.76a.06.06,0,0,1,0-.08A.05.05,0,0,1,103.3,200.6Z"/><path class="cls-11" d="M184.2,268.38c-1.15-1.44-12.72-16-21.14-27s-10.8-14.83-13.58-18.94-8-6.6-16.64-19c-1.06-1.54-2.18-3.05-3.32-4.52-8.87,2.43-15,9.23-15,9.23,3.82-7.71,9.17-11,12.53-12.31-.72-.87-1.45-1.71-2.16-2.53a28.55,28.55,0,0,0-9.43,3.92c1.49-3.14,5.11-4.89,7.77-5.79-.71-.78-1.4-1.53-2.08-2.24-8,1.87-13.15,10-13.15,10a17.67,17.67,0,0,1,11.17-12.11c-4-4.13-7-6.73-7-6.73-1.35.86-4.18,3-6.29,11.57a44,44,0,0,1-6,14.06,51.31,51.31,0,0,1,10.61,5.55c5.26,3.63,18,10.52,20.49,12.71s1.33,5.23,1.51,6.88,4.78,2.84,4.78,2.84c-1.58,1.72,2.49,3.1,2.49,3.1,4,10.05,8.61,14.64,16.83,20.18s15.69,13.49,17.55,16.21,3,2.78,3,2.78c2.82,0,3.1-.86,5.26-1.67a6.66,6.66,0,0,0,3.2-2.78A7.32,7.32,0,0,0,184.2,268.38Zm-1.39.91c-.78,2.36-2.27,1.7-4.25,3.38s-.62,0-8.73-8.33c-7.94-8.15-12.34-8.18-17.79-13.7s-8.15-12.48-9.35-15.5-4-.93-3.34-5-3.41.75-3.46-4-2.1-3.85-9.17-9.34-14.49-7-18.07-9.9-5.46-2.65-4-8.32,2.15-5.52,3.51-10c1.8-5.85,4.24-7.46,6-5.74s3.44,3.45,0,5.74-6.68,7.45-6.89,11.26c-.21,4,3.85-3.74,8.16-7,2.82-2.15,5.34-2.87,5.69-2.15s-4.83,2.37-6.58,7.1,2.46-1.93,7.46-2.72-3.18,3.58-5.9,8.68-2.65,6.24.83,3.15,10.28-7.67,12.87-5.38,6.38,8,11.26,13.13,6.53,5,11.83,13.7S168,249,173.56,256,183.6,266.92,182.81,269.29Z"/><g class="cls-4"><path class="cls-15" d="M131.17,203.88l2.22,2.58c.71.82,1.57,1.81,2.58,2.93s2.13,2.41,3.4,3.74l2,2.11.51.54.56.53,1.14,1.09a45.69,45.69,0,0,1,4.94,4.58,15.2,15.2,0,0,1,1.1,1.41c.35.49.74,1,1,1.47.64,1,1.33,2,1.93,3.11l1.82,3.21c.63,1,1.22,2.16,1.91,3.15l1,1.54,1.07,1.5c.7,1,1.46,2,2.19,2.94s1.5,1.9,2.24,2.84l2.24,2.73c1.49,1.78,2.95,3.48,4.34,5.09l4,4.52,3.33,3.82c1,1.15,1.83,2.15,2.51,3,.35.42.63.81.89,1.14s.48.62.63.87l.49.75a.06.06,0,0,1,0,.08s-.06,0-.07,0h0s-.17-.26-.5-.73c-.16-.24-.39-.52-.65-.85s-.55-.71-.91-1.12c-.7-.82-1.57-1.81-2.58-2.93L173,255.75l-4-4.42c-1.44-1.58-2.92-3.27-4.45-5-.75-.88-1.52-1.78-2.29-2.7s-1.54-1.85-2.3-2.81-1.53-1.92-2.26-2.93l-1.1-1.49-1.06-1.55c-.74-1-1.33-2.09-2-3.16l-1.88-3.14c-.61-1.05-1.32-2-1.95-3-.31-.51-.7-.94-1-1.41a14.28,14.28,0,0,0-1.07-1.34,54.58,54.58,0,0,0-4.81-4.58l-1.1-1.12-.54-.55c-.2-.2-.34-.39-.52-.58l-1.91-2.19c-1.26-1.38-2.29-2.74-3.23-3.92l-1.32-1.66-1.07-1.45c-.64-.87-1.16-1.55-1.49-2s-.51-.73-.51-.73a.05.05,0,0,1,0-.08A.08.08,0,0,1,131.17,203.88Z"/></g><path class="cls-35" d="M62.88,223a15.73,15.73,0,0,0,15.41,3.46c.27-1,.51-1.92.73-2.74C75.4,224.5,68.85,225.3,62.88,223Z"/><path class="cls-23" d="M64.8,224c5.2,1.65,10.72.77,14.16-.08l.06-.21c-3.62.76-10.17,1.56-16.14-.72a15.73,15.73,0,0,0,15.41,3.46,1.21,1.21,0,0,1,0-.18A16.24,16.24,0,0,1,64.8,224Z"/><path class="cls-35" d="M63.82,237.08a17.29,17.29,0,0,0,10.45,2.6l.56-1.63A30.14,30.14,0,0,1,63.82,237.08Z"/><path class="cls-23" d="M66.32,237.83a24.64,24.64,0,0,0,8.48.33l0-.11a30.14,30.14,0,0,1-11-1,17.29,17.29,0,0,0,10.45,2.6l.07-.22A13.8,13.8,0,0,1,66.32,237.83Z"/><path class="cls-35" d="M60.59,229.91s5.23,3.66,10.11,3.94a17.8,17.8,0,0,0,5.67-.65c.24-.78.47-1.56.69-2.33A27.15,27.15,0,0,1,60.59,229.91Z"/><path class="cls-23" d="M72.71,233.61c-4.78.3-10-2.7-10-2.7a28.61,28.61,0,0,0,14.23.24,2.29,2.29,0,0,1,.08-.28,27.15,27.15,0,0,1-16.47-1s5.23,3.66,10.11,3.94a17.8,17.8,0,0,0,5.67-.65,1.72,1.72,0,0,0,.07-.21A18.41,18.41,0,0,1,72.71,233.61Z"/><path class="cls-8" d="M62.88,223c6,2.28,12.52,1.48,16.14.72.58-2.21.93-3.66.93-3.66a27.78,27.78,0,0,1-24.37-11.57,98.19,98.19,0,0,0,.66,15.59c-1.25-.86-1.82,4.4-1.82,4.4a36,36,0,0,0-9.09,3.06c-4.21,2.2-6,5.07-11.57,10.42a169.22,169.22,0,0,1-18.12,15.07c-5.89,4.2-6.12,2.86-6.89,4.25s-.38,4.21-.38,4.21-.43,4.45,1.81,6.74a3.53,3.53,0,0,0,4.55.72c9.85-6.22,24.1-10.81,36-17.22s18-6.4,21-10.52a25,25,0,0,0,2.54-5.55,17.29,17.29,0,0,1-10.45-2.6,30.14,30.14,0,0,0,11,1c.52-1.54,1-3.19,1.54-4.85a17.8,17.8,0,0,1-5.67.65c-4.88-.28-10.11-3.94-10.11-3.94a27.15,27.15,0,0,0,16.47,1c.44-1.54.86-3,1.23-4.39A15.73,15.73,0,0,1,62.88,223Z"/><path class="cls-17" d="M59.24,212.63c-.15,1.59-.24,3.19-.35,4.78-.06.79-.11,1.59-.13,2.39l-.1,2.39-.1,2.39c0,.39,0,.79,0,1.19V227l0,4.78a.28.28,0,0,1-.44.22h0a8.09,8.09,0,0,0-.79-.5,3.52,3.52,0,0,0-.4-.18.54.54,0,0,0-.27,0s0,0,0,0,0,0,0,.09l0,.11-.11.48c-.08.32-.16.64-.26,1a5.88,5.88,0,0,1-.36,1,4.09,4.09,0,0,1-.29.48l-.22.22,0,0h0l-.06,0-.06,0-.11,0a8.18,8.18,0,0,1-1.06.21L53,235a19.74,19.74,0,0,0-3.74.87,15.49,15.49,0,0,0-3.44,1.63,38.36,38.36,0,0,0-3.07,2.34l-3.08,2.43-6.16,4.81L21.19,256.7c-1,.81-2,1.62-3,2.45-.51.41-1,.84-1.47,1.27a6.07,6.07,0,0,0-.68.66c-.12.12-.21.2-.34.35l-.34.36a7,7,0,0,1-3.53,1.91c-.64.16-1.29.25-1.91.43a2.44,2.44,0,0,0-1.52,1,.06.06,0,0,1-.08,0,0,0,0,0,1,0-.07,2.56,2.56,0,0,1,1.53-1.24c.63-.22,1.27-.36,1.88-.56a6.85,6.85,0,0,0,3.15-2l.31-.37.32-.37c.23-.25.45-.52.69-.74.47-.47.94-.93,1.43-1.37,1-.88,2-1.72,3-2.57s2-1.67,3-2.49,2-1.63,3.06-2.44c2.05-1.62,4.13-3.19,6.22-4.76l6.26-4.68,3.12-2.36,1.54-1.2a17.67,17.67,0,0,1,1.64-1.14,16.85,16.85,0,0,1,3.64-1.66,22.34,22.34,0,0,1,3.88-.83l1-.12c.31,0,.67-.09.86-.12l.11-.05.06,0s-.08.05,0,0h0a.74.74,0,0,1,.12-.13,2.33,2.33,0,0,0,.22-.35,5.92,5.92,0,0,0,.34-.86c.1-.3.19-.61.27-.92l.12-.48,0-.12a1.24,1.24,0,0,0,0-.15.54.54,0,0,1,.33-.33,1,1,0,0,1,.68,0,3.51,3.51,0,0,1,.48.22,7.41,7.41,0,0,1,.85.57l-.44.22L58.1,227l0-1.2c0-.4,0-.8,0-1.2l.16-2.39.15-2.39c.05-.8.11-1.59.19-2.39.14-1.59.27-3.18.45-4.77a.08.08,0,0,1,.07-.05A.06.06,0,0,1,59.24,212.63Z"/><path class="cls-17" d="M54.81,226.34s-.07.65-.17,1.61c0,.23-.06.49-.09.76s-.07.56-.1.86-.08.6-.12.91-.09.62-.11.94l-.06,1c0,.31,0,.62,0,.92s0,.59,0,.87a6.29,6.29,0,0,0,0,.77c.1,1,.16,1.6.16,1.6h0s0,0,0,0l0,0L54,235a5.86,5.86,0,0,1-.11-.78c0-.27,0-.56-.07-.87s-.06-.61-.05-.93v-1c0-.65.05-1.3.09-1.91a14,14,0,0,1,.34-1.63,9.45,9.45,0,0,1,.38-1.12,3,3,0,0,1,.18-.41s0,0,0,0Z"/><path class="cls-17" d="M55.92,220.75s0,.22.1.61.13.93.22,1.59.16,1.42.23,2.25.11,1.7.19,2.58.17,1.75.29,2.57.24,1.58.37,2.23c.06.32.13.62.2.88s.12.49.18.67l.19.57s0,0,0,0,0,0,0,0l-.22-.56c-.08-.18-.15-.41-.23-.66s-.18-.55-.26-.88c-.17-.64-.35-1.4-.5-2.22s-.29-1.69-.41-2.57-.25-1.76-.33-2.58-.1-1.61-.1-2.27,0-1.22,0-1.61,0-.61,0-.61a0,0,0,0,1,0,0Z"/><path class="cls-11" d="M79,223.74c.58-2.21.93-3.66.93-3.66a27.78,27.78,0,0,1-24.37-11.57,98.19,98.19,0,0,0,.66,15.59c-1.25-.86-1.82,4.4-1.82,4.4a36,36,0,0,0-9.09,3.06c-4.21,2.2-6,5.07-11.57,10.42a169.22,169.22,0,0,1-18.12,15.07c-5.89,4.2-6.12,2.86-6.89,4.25s-.38,4.21-.38,4.21-.43,4.45,1.81,6.74a3.53,3.53,0,0,0,4.55.72c9.85-6.22,24.1-10.81,36-17.22s18-6.4,21-10.52a25,25,0,0,0,2.54-5.55,17.29,17.29,0,0,1-10.45-2.6,30.14,30.14,0,0,0,11,1c.52-1.54,1-3.19,1.54-4.85a17.8,17.8,0,0,1-5.67.65c-4.88-.28-10.11-3.94-10.11-3.94a27.15,27.15,0,0,0,16.47,1c.44-1.54.86-3,1.23-4.39A15.73,15.73,0,0,1,62.88,223C68.85,225.3,75.4,224.5,79,223.74Zm-16.76-1.12c-.57.81,3.35,4.83,8.94,5.11s2.44,3.16-1.24,3a37.37,37.37,0,0,1-9.37-1.48c-1.68-.62,1.11,3.89,7.7,5.45,3,.72,5.11.15,5.35,1.2s-1.93,1.92-10.76.24c-1-.19,2,3.47,7.08,4.21,3,.43,2,3.75-1.77,5.9S56.86,248,46.53,253.72,27,263.44,20.69,266.22s-7.78,4.18-9.94,2.79.15-3.88-.37-5.46-.72-1.77,3.49-4.45,7.07-5.4,13.15-10.37,13.82-13.38,15.92-14.85c3.49-2.45,9.61-4.79,9.81-3.09.38,3.3.27,4.78,1.61,6.7s-.71-4.59.42-8.08,1.17,4.44,3.08,6.88-.63-7.22.19-13.77c.89-7,1.82-6.84,5.36-5.16s9.8,4,12.48,3.77.57,3.3-5.5,2.44S62.83,221.8,62.26,222.62Z"/><g class="cls-4"><path class="cls-15" d="M52.5,232a4,4,0,0,0-.52,0,8.69,8.69,0,0,0-1.44.25,6.79,6.79,0,0,0-1,.3,9.13,9.13,0,0,0-1.15.43l-1.25.58c-.43.26-.86.53-1.33.79l-.35.21-.34.24-.68.5-.72.52a8.44,8.44,0,0,0-.71.57c-1,.82-2,1.63-3,2.55l-6.52,5.55L27,250.08c-1,.9-2.05,1.76-3,2.57s-1.87,1.57-2.72,2.26l-2.35,1.87c-.68.56-1.32,1-1.84,1.39l-1.64,1.17a.06.06,0,0,1-.07-.09h0L17,258c.5-.39,1.12-.86,1.78-1.45l2.27-2c.82-.72,1.69-1.52,2.63-2.36s1.92-1.72,2.92-2.65l6.33-5.81,3.21-3c1-1,2.14-1.92,3.17-2.83s2.07-1.73,3.07-2.5c.26-.19.47-.38.76-.56l.77-.51.76-.47.36-.23.38-.19c.5-.26,1-.49,1.45-.71l1.36-.49a9.57,9.57,0,0,1,1.24-.33,7.84,7.84,0,0,1,1.06-.18,5.61,5.61,0,0,1,.87-.06,4.34,4.34,0,0,1,.64,0,4.49,4.49,0,0,1,.53.07.06.06,0,0,1,.05.06A.06.06,0,0,1,52.5,232Z"/></g><path class="cls-8" d="M105.25,110.19c-.29-3.44-.45-4-1.89-4.67a31,31,0,0,0-5.9-1.18s2.58,1.74,2.67,11.49c.07,6.38-.08,16-.18,21.81.12-.14.25-.28.38-.41,2.19-2.14,5.14-1.92,6.27.55h0A113.45,113.45,0,0,0,105.25,110.19Z"/><path class="cls-36" d="M105.25,110.19c-.29-3.44-.45-4-1.89-4.67a31,31,0,0,0-5.9-1.18s2.58,1.74,2.67,11.49c.07,6.38-.08,16-.18,21.81.12-.14.25-.28.38-.41,2.19-2.14,5.14-1.92,6.27.55h0A113.45,113.45,0,0,0,105.25,110.19Zm.43,18.55c-.29,8.17-1.15,7.13-2,5.89s-.52-2.87-1.53-.86-.86-3.21-.52-9.81a62.76,62.76,0,0,0-1.52-16.69c-.52-1.82.27-2,1.8-.9s1.82-1.82,2.25,2.58S106,120.57,105.68,128.74Z"/><g class="cls-4"><path class="cls-15" d="M103.39,107.24s.15.41.35,1.15c.11.36.23.81.36,1.33s.25,1.1.38,1.74c.07.32.14.65.21,1s.11.7.17,1.07c.12.74.23,1.52.33,2.33s.13,1.65.18,2.51.12,1.72.14,2.59,0,1.74.07,2.59.06,1.7,0,2.51,0,1.61-.05,2.35,0,1.45-.08,2.1c-.23,2.6-.37,4.33-.37,4.33a.07.07,0,0,1-.07,0,.06.06,0,0,1,0-.06h0s0-1.73.08-4.33c0-.64,0-1.35,0-2.09s0-1.52-.08-2.33-.08-1.64-.15-2.49l-.21-2.57c-.06-.86-.19-1.71-.29-2.55s-.2-1.68-.3-2.48c-.21-1.6-.3-3.11-.42-4.4-.07-.65-.1-1.24-.14-1.77s-.08-1-.09-1.36c0-.76-.07-1.2-.07-1.2a.06.06,0,0,1,.06-.06S103.39,107.22,103.39,107.24Z"/></g></g></g></g></svg>